<svg xmlns="http://www.w3.org/2000/svg" version="1.1" xmlns:xlink="http://www.w3.org/1999/xlink" fill="none" width="48" height="48" viewBox="0 0 48 48"><g fill="#171a26"><path d="M0.27900001 0.62900001C0.76099998 -0.046 1.697 -0.20200001 2.372 0.27900001C4.0580001 1.483 5.145 3.355 5.3540001 5.4169998L5.7179999 9L39.210999 9C42.469002 9 45.012001 11.815 44.682999 15.055L43.222 29.459C42.73 34.308998 38.646 38 33.771 38L14.23 38C9.3540001 38 5.27 34.308998 4.7779999 29.459L2.3699999 5.7199998C2.2479999 4.5170002 1.613 3.424 0.62900001 2.721C-0.046 2.24 -0.20200001 1.303 0.27900001 0.62900001Z" transform="translate(1.644, 1)"></path><path d="M12 43C12 44.657001 10.657 46 9 46C7.3429999 46 6 44.657001 6 43C6 41.342999 7.3429999 40 9 40C10.657 40 12 41.342999 12 43Z" transform="translate(1.644, 1)"></path><path d="M39 46C40.657001 46 42 44.657001 42 43C42 41.342999 40.657001 40 39 40C37.342999 40 36 41.342999 36 43C36 44.657001 37.342999 46 39 46Z" transform="translate(1.644, 1)"></path></g></svg>