<svg xmlns="http://www.w3.org/2000/svg" viewBox="0 0 48 48" fill="none">
  <g fill="currentColor" transform="translate(1, 4.315)">
    <path d="M12.837 6.999L7.768 1.930C7.377 1.539 6.744 1.539 6.354 1.930L5.646 2.637C5.256 3.028 5.256 3.661 5.646 4.051L9.280 7.685L9.273 7.685L12.108 10.520C12.110 10.520 12.112 10.519 12.114 10.519L24 22.405L24 22.412L27 25.412L27 25.405L37.543 35.948C37.933 36.338 38.567 36.338 38.957 35.948L39.311 35.594C47.860 27.044 48.091 13.326 40.003 4.497C39.630 4.090 38.994 4.091 38.604 4.481L37.896 5.189C37.506 5.579 37.508 6.211 37.879 6.620C44.463 13.905 44.573 24.961 38.210 32.372L34.221 28.383C38.214 23.563 38.305 16.263 34.495 11.330C34.157 10.893 33.521 10.863 33.112 11.234L32.116 12.136C31.706 12.507 31.680 13.137 32.005 13.583C34.641 17.197 34.586 22.458 31.842 26.004L27 21.162L27 4.008C27 0.653 23.120 -1.211 20.501 0.884L13.096 6.808C13.012 6.876 12.925 6.939 12.837 6.999Z"/>
    <path d="M27 29.655L24 26.655L8 10.685L8.030 10.685L5.446 8.101C2.280 9.167 0 12.160 0 15.685L0 23.685C0 28.103 3.582 31.685 8 31.685L10.597 31.685C11.505 31.685 12.386 31.994 13.096 32.562L20.501 38.486C23.120 40.581 27 38.717 27 35.362L27 29.655Z"/>
  </g>
</svg>