<svg xmlns="http://www.w3.org/2000/svg" viewBox="0 0 50 50" fill="none">
  <path
    d="M25.797 1.666C24.822 0.288 23.323 -0.19 21.422 0.066C21.087 0.111 20.742 0.2 20.391 0.316C20.082 0.421 19.783 0.55 19.493 0.699C13.124 4 12.307 10.346 12.307 10.346C10.791 8.857 8.306 7.911 6.535 7.593C4.772 7.278 1.084 7.222 0.117 10.073C-1.023 15.195 6.471 18.585 8.522 19.412C9.104 19.645 6.617 18.751 9.962 19.951C14.011 21.3661 12.7852 25.2689 12.2703 26.5842C12.1902 26.7887 12.3316 27.002 12.5512 27.002H13.8518C14.0088 27.002 14.1422 26.8871 14.1647 26.7317C14.3898 25.173 14.5294 23.7784 14.745 22.897C15.163 21.195 15.814 19.904 17.784 18.606C27.531 12.601 27.365 3.879 25.797 1.666Z"
    transform="translate(11.75 11.4)"
    fill="currentColor"
  />
  <path
    d="M0 4.112C0.616 2.918 1.788 1.309 3.267 0.275C4.745 -0.76 10.944 1.382 10.202 2.502C10.202 2.502 8.964 3.485 9.237 3.582C6.078 5.173 2.714 8.771 1.924 9.566C1.444 7.59 0.753 5.691 0 4.112Z"
    transform="translate(22.748 17.948)"
    fill="currentColor"
    fill-opacity="0.35"
  />
</svg>
