<svg xmlns="http://www.w3.org/2000/svg" version="1.1" xmlns:xlink="http://www.w3.org/1999/xlink" fill="none" width="50" height="50" viewBox="0 0 50 50"><defs><filter id="filter_yh619A" color-interpolation-filters="sRGB" filterUnits="userSpaceOnUse" x="8.893" y="12.195" width="32.91" height="27.33"><feColorMatrix in="SourceAlpha" values="0 0 0 0 0 0 0 0 0 0 0 0 0 0 0 0 0 0 999999 0" type="matrix"></feColorMatrix><feOffset dy="0.8571" dx="0"></feOffset><feGaussianBlur stdDeviation="1.2857 1.2857"></feGaussianBlur><feColorMatrix values="0 0 0 0 0 0 0 0 0 0 0 0 0 0 0 0 0 0 0.12 0" type="matrix" result="effect1_DROP_SHADOW_2017:1630"></feColorMatrix><feBlend id="SvgjsFeBlend1004" result="effect2_SOURCE_GRAPHIC_2017:1630" in="SourceGraphic" mode="normal" in2="effect1_DROP_SHADOW_2017:1630"></feBlend></filter><linearGradient id="GRADIENT_LINEAR_Vgfirs" gradientUnits="userSpaceOnUse" x1="4.032223163008689" y1="0.3169276474043727" x2="11.026653071284294" y2="6.440208723664283"><stop stop-opacity="0.03999999910593033" stop-color="#000000" offset="0"></stop><stop stop-opacity="0" stop-color="#ffffff" offset="1"></stop></linearGradient></defs><g filter="url(#filter_yh619A)"><path d="M27.691219 10.5744C27.576986 10.2693 27.265749 10.016399 26.64328 9.5106001L16.228199 1.0476195C15.370299 0.35049939 14.9414 0.0019394159 14.5799 -0.00038063526C14.2655 -0.0024006367 13.9675 0.13943934 13.7709 0.38465941C13.5447 0.66666937 13.5447 1.2193893 13.5447 2.3248391L13.5447 5.5347104C7.0546293 6.1059904 -0.15721497 10.846949 0.0031003952 19.783199C0.0031003952 20.2652 0.58400059 20.508499 0.93430042 20.1775C3.1702003 18.064701 5.6259499 16.287899 10.37163 16.287899L13.544699 16.287899L13.544699 19.8456C13.544699 20.9631 13.544699 21.521801 13.772698 21.804501C13.970999 22.050201 14.271099 22.191301 14.586799 22.187101C14.949999 22.182301 15.380198 21.8258 16.240599 21.112701L26.657669 12.4789C27.275209 11.967099 27.583981 11.7112 27.695248 11.4051C27.792843 11.136499 27.791414 10.842 27.691219 10.5744Z" fill-rule="evenodd" transform="translate(11.464, 13.91)" fill="#ffffff" fill-opacity="0.9"></path></g><g transform="matrix(-1,0,0,1,50.018,0)"><path d="M0 0.075703703C5.5714302 -0.353237 10.2857 0.93284601 13.5428 6.7971501L13.5428 8.0939903C11.0181 5.6105299 8.5839796 3.3018501 3.17434 3.3018501C2.1659801 3.3018501 1.22447 3.3018501 0 3.3018501L0 0.075703703Z" transform="translate(25.009, 26.896)" fill="url(#GRADIENT_LINEAR_Vgfirs)"></path></g></svg>
