<svg xmlns="http://www.w3.org/2000/svg" version="1.1" xmlns:xlink="http://www.w3.org/1999/xlink" fill="none" width="48" height="48" viewBox="0 0 48 48"><path d="M23.338087 0.43611157L23.335527 0.43396366C22.550993 -0.22433972 21.38134 -0.12200844 20.723038 0.66252697L9.5163898 14.018088L3.0239563 8.7606201C2.2282085 8.1162367 1.0607519 8.2389412 0.41636753 9.0346889L0.41385078 9.0377979C-0.23053265 9.8335457 -0.10782909 11.001002 0.68791866 11.645387L8.6241341 18.072006C9.4198818 18.716389 10.587339 18.593685 11.231723 17.797937L11.23424 17.794828C11.320307 17.688545 11.39269 17.57563 11.451612 17.458216C11.515841 17.400475 11.576814 17.337534 11.633936 17.269459L23.56665 3.0486021C24.224955 2.2640667 24.122623 1.0944149 23.338087 0.43611157Z" fill-rule="evenodd" transform="translate(12, 14.757)" fill="#171a26"></path></svg>