<svg xmlns="http://www.w3.org/2000/svg" version="1.1" xmlns:xlink="http://www.w3.org/1999/xlink" fill="none" width="48" height="48" viewBox="0 0 48 48"><path d="M22.495001 17.495001L39 17.495001C39.551998 17.495001 40 17.943001 40 18.495001L40 21.495001C40 22.047001 39.551998 22.495001 39 22.495001L22.495001 22.495001L22.495001 39C22.495001 39.551998 22.047001 40 21.495001 40L18.495001 40C17.943001 40 17.495001 39.551998 17.495001 39L17.495001 22.495001L1 22.495001C0.44800001 22.495001 0 22.047001 0 21.495001L0 18.495001C0 17.943001 0.44800001 17.495001 1 17.495001L17.495001 17.495001L17.495001 1C17.495001 0.44800001 17.943001 0 18.495001 0L21.495001 0C22.047001 0 22.495001 0.44800001 22.495001 1L22.495001 17.495001Z" transform="translate(4, 4.005)" fill="#171a26"></path></svg>