<svg xmlns="http://www.w3.org/2000/svg" viewBox="0 0 50 50" fill="none">
  <path
    fill-rule="evenodd"
    clip-rule="evenodd"
    d="M13.5 0C20.9558 0 27 5.82025 27 13C27 20.1797 20.9558 26 13.5 26C13.3998 26 13.2999 25.9989 13.2002 25.9969L13.198 26H2.13308C1.40272 26 0.98054 25.1717 1.40971 24.5807L3.48723 21.7199C1.32001 19.4136 0 16.3553 0 13C0 5.82025 6.04416 0 13.5 0ZM6.7988 13C6.7988 11.9396 7.65841 11.08 8.7188 11.08C9.77919 11.08 10.6388 11.9396 10.6388 13C10.6388 14.0603 9.77919 14.92 8.7188 14.92C7.65841 14.92 6.7988 14.0603 6.7988 13ZM15.7588 13C15.7588 11.9396 16.6184 11.08 17.6788 11.08C18.7391 11.08 19.5988 11.9396 19.5988 13C19.5988 14.0603 18.7391 14.92 17.6788 14.92C16.6184 14.92 15.7588 14.0603 15.7588 13Z"
    transform="translate(12 12)"
    fill="currentColor"
  />
  <path
    fill-rule="evenodd"
    clip-rule="evenodd"
    d="M1.99679 0.000337C4.47995 2.36205 7.96485 3.83595 11.8262 3.85H0.895945C0.159074 3.85 -0.2614 3.00861 0.180972 2.4193L1.99679 0.000337Z"
    transform="translate(13.271 34.157)"
    fill="currentColor"
    fill-opacity="0.35"
  />
</svg>
