<svg xmlns="http://www.w3.org/2000/svg" fill="none" width="22" height="22" viewBox="0 0 22 22"><g transform="matrix(1,0,0,-1,0,35)"><path d="M5.65273 -0.9101541C5.5332069 -0.85575128 5.4255695 -0.77833945 5.3359632 -0.68233836L-0.7310366 5.8176618C-1.0896546 6.2018743 -1.0896546 6.7981257 -0.73103654 7.1823382L5.3359632 13.682339C5.4255691 13.778339 5.5332065 13.855751 5.65273 13.910154C5.7722535 13.964557 5.9013214 13.994884 6.0325656 13.999407C6.1638098 14.003929 6.2946591 13.982556 6.4176426 13.936509C6.540627 13.890462 6.653337 13.820642 6.7493386 13.731036C6.8453398 13.64143 6.9227514 13.533792 6.9771543 13.414269C7.0315566 13.294746 7.0618849 13.165678 7.0664067 13.034435C7.0709286 12.903191 7.0495563 12.772342 7.003509 12.649357C6.9574623 12.526373 6.8876424 12.413663 6.7980366 12.317661L1.3679206 6.5L6.7980366 0.6823383C6.8876424 0.58633745 6.9574623 0.4736273 7.0035095 0.35064253C7.0495563 0.22765827 7.0709291 0.096808761 7.0664067 -0.034435302C7.0618849 -0.16567928 7.0315566 -0.2947475 6.9771538 -0.41427007C6.9227514 -0.53379315 6.8453393 -0.64143056 6.7493382 -0.73103678C6.653337 -0.82064271 6.5406265 -0.8904624 6.4176426 -0.93650949C6.2946582 -0.98255628 6.1638083 -1.003929 6.0325651 -0.99940681C5.9013214 -0.99488485 5.772253 -0.96455657 5.65273 -0.9101541Z" fill-rule="evenodd" transform="translate(7.967, 17.5)" fill="currentColor"></path></g></svg>
