<svg xmlns="http://www.w3.org/2000/svg" fill="none" width="22" height="22" viewBox="0 0 22 22"><g><path d="M0.93349999 0L13.0665 0C13.582058 0 14 0.41794217 14 0.93349999C14 1.4490578 13.582058 1.867 13.0665 1.867L0.93349999 1.867C0.41794217 1.867 0 1.4490578 0 0.93349999C0 0.41794217 0.41794217 0 0.93349999 0Z" fill-rule="evenodd" transform="translate(4, 4)" fill="currentColor"></path><path d="M0.93349999 0L13.0665 0C13.582058 0 14 0.41794217 14 0.93349999C14 1.4490578 13.582058 1.867 13.0665 1.867L0.93349999 1.867C0.41794217 1.867 0 1.4490578 0 0.93349999C0 0.41794217 0.41794217 0 0.93349999 0Z" fill-rule="evenodd" transform="translate(4, 16.133)" fill="currentColor"></path><path d="M0.93349999 0L13.0665 0C13.582058 0 14 0.41794217 14 0.93349999C14 1.4490578 13.582058 1.867 13.0665 1.867L0.93349999 1.867C0.41794217 1.867 0 1.4490578 0 0.93349999C0 0.41794217 0.41794217 0 0.93349999 0Z" fill-rule="evenodd" transform="translate(4, 10.067)" fill="currentColor"></path></g></svg>
