<svg xmlns="http://www.w3.org/2000/svg" fill="none" width="22" height="22" viewBox="0 0 22 22"><g><path d="M7.2222223 0C11.210946 0 14.444445 3.2334988 14.444445 7.2222223C14.444445 11.210946 11.210946 14.444445 7.2222223 14.444445C3.2334988 14.444445 0 11.210946 0 7.2222223C0 3.2334988 3.2334988 0 7.2222223 0ZM7.2222223 2.0000005Q5.0591073 2 3.5295534 3.5295539Q2 5.0591068 2.0000005 7.2222195Q2.0000002 9.3853369 3.5295539 10.914891Q5.0591063 12.444445 7.2222195 12.444445Q9.3853369 12.444445 10.914891 10.914891Q12.444445 9.3853397 12.444445 7.2222223Q12.444445 5.0591063 10.914892 3.5295534Q9.3853397 2 7.2222223 2.0000005Z" fill-rule="evenodd" transform="translate(2.667, 2.667)" fill="currentColor"></path><g transform="matrix(0,-1,1,0,-2.9170000000000016,32.417)"><path d="M2.5343165 -0.9238795C2.412991 -0.87362474 2.3027518 -0.79996526 2.2098932 -0.70710665L-0.70710677 2.2098932C-0.7999652 2.3027518 -0.87362486 2.4129908 -0.92387962 2.534317C-0.97413421 2.6556427 -1 2.7856786 -0.99999988 2.9170005C-0.99999988 3.0483224 -0.97413403 3.1783583 -0.92387956 3.2996833C-0.87362486 3.4210091 -0.79996538 3.5312481 -0.70710653 3.6241071C-0.61424786 3.7169657 -0.50400859 3.7906251 -0.38268304 3.8408799C-0.26135722 3.8911343 -0.13132122 3.9170001 0 3.9169998C0.13132167 3.9169998 0.26135775 3.8911343 0.38268334 3.8408797C0.50400895 3.7906249 0.61424816 3.7169654 0.70710677 3.6241069L3.6241069 0.70710677C3.7169654 0.61424822 3.7906251 0.50400913 3.8408797 0.38268295C3.8911343 0.26135725 3.9170001 0.13132131 3.9169998 0C3.9169998 -0.1313225 3.891134 -0.2613585 3.8408794 -0.38268352C3.7906249 -0.50400913 3.7169652 -0.61424828 3.6241064 -0.70710713C3.5312476 -0.79996568 3.4210086 -0.87362504 3.2996829 -0.92387974C3.1783571 -0.97413421 3.048321 -1 2.9170001 -0.99999982C2.7856784 -0.99999988 2.655642 -0.97413409 2.5343165 -0.9238795Z" fill-rule="evenodd" transform="translate(14.75, 17.667)" fill="currentColor"></path></g></g></svg>
