<svg xmlns="http://www.w3.org/2000/svg" fill="none" width="22" height="22" viewBox="0 0 22 22"><g><path d="M16 8C16 3.5817218 12.418278 0 8 0C3.5817218 0 0 3.5817218 0 8C0 12.418278 3.5817218 16 8 16C12.418278 16 16 12.418278 16 8ZM7.798625 4.9161997C7.5382762 4.6558504 7.1161637 4.6558523 6.855814 4.9162025C6.5954642 5.1765518 6.5954695 5.5986576 6.8558187 5.8590064L9.2128401 8.2160282L6.855814 10.573053C6.5954647 10.833404 6.5954671 11.255515 6.8558168 11.515865C7.1161661 11.776215 7.5382786 11.776217 7.7986279 11.515867L10.46992 8.8445759C10.817053 8.4974422 10.817053 7.9346275 10.46992 7.5874949L7.798625 4.9161997Z" fill-rule="evenodd" transform="translate(3, 3)" fill="currentColor"></path></g></svg>
