<svg xmlns="http://www.w3.org/2000/svg" version="1.1" xmlns:xlink="http://www.w3.org/1999/xlink" fill="none" width="17.406" height="18.335" viewBox="0 0 17.406 18.335"><path d="M9.7069998 2.8959999L16.350342 8.542985C16.525789 8.6921196 16.788912 8.6708174 16.938084 8.4954014L17.477797 7.8607378C17.627016 7.6852679 17.605705 7.4220486 17.430202 7.2728686L9.4134951 0.4585771C9.1024275 0.19416635 8.6455717 0.19416636 8.3345041 0.45857713L0.31779748 7.2728686C0.14229423 7.4220486 0.12098332 7.6852674 0.27020207 7.8607378L0.80989718 8.4953794C0.95907736 8.670804 1.2222137 8.6920977 1.39766 8.542943L8.04 2.8959999L8.04 18.177999C8.04 18.408302 8.226697 18.594999 8.4569998 18.594999L9.29 18.594999C9.5203028 18.594999 9.7069998 18.408302 9.7069998 18.177999L9.7069998 2.8959999Z" fill-rule="evenodd" transform="translate(-0.171, -0.26)" fill="currentColor"></path></svg>
