<svg xmlns="http://www.w3.org/2000/svg" version="1.1" xmlns:xlink="http://www.w3.org/1999/xlink" fill="none" width="20.021" height="20.021" viewBox="0 0 20.021 20.021"><path d="M15.707 0.977C16.301001 1.571 16.624001 2.277 16.676001 3.096L16.964001 2.664C17.181 2.3380001 17.471001 2.1170001 17.834 2C18.164 1.892 18.497999 1.89 18.836 1.992C19.174 2.095 19.451 2.2820001 19.666 2.5539999C19.903 2.8529999 20.021 3.198 20.021 3.5899999L20.021 13.094C20.021 13.486 19.903 13.831 19.666 14.13C19.451 14.402 19.174 14.589 18.836 14.692C18.497999 14.794 18.164 14.792 17.834 14.684C17.471001 14.567 17.181 14.346 16.964001 14.02L16.676001 13.588C16.624001 14.407 16.301001 15.113 15.707 15.707C15.055 16.358 14.269 16.684 13.347 16.684L3.3369999 16.684C2.415 16.684 1.6289999 16.358 0.977 15.707C0.32600001 15.055 0 14.269 0 13.347L0 3.3369999C0 2.415 0.32600001 1.6289999 0.977 0.977C1.6289999 0.32600001 2.415 0 3.3369999 0L13.347 0C14.269 0 15.055 0.32600001 15.707 0.977ZM15.016 5.2199998L15.016 3.3369999C15.016 2.8759999 14.853 2.483 14.527 2.1570001C14.201 1.831 13.808 1.668 13.347 1.668L3.3369999 1.668C2.8759999 1.668 2.483 1.831 2.1570001 2.1570001C1.831 2.483 1.668 2.8759999 1.668 3.3369999L1.668 13.347C1.668 13.808 1.831 14.201 2.1570001 14.527C2.483 14.853 2.8759999 15.016 3.3369999 15.016L13.347 15.016C13.808 15.016 14.201 14.853 14.527 14.527C14.853 14.201 15.016 13.808 15.016 13.347L15.016 11.464C15.016 11.096 15.256 10.772 15.608 10.665L15.952 10.561C16.302999 10.455 16.683001 10.591 16.886999 10.897L18.351999 13.094L18.351999 3.5899999L16.886999 5.7870002C16.683001 6.0929999 16.302999 6.2290001 15.952 6.1230001L15.608 6.0190001C15.256 5.9120002 15.016 5.5879998 15.016 5.2199998ZM7.6760001 5.2639999L11.119 7.3959999C11.311 7.5139999 11.46 7.6729999 11.565 7.8720002C11.664 8.0579996 11.713 8.2559996 11.712 8.4680004C11.71 8.6800003 11.659 8.8780003 11.557 9.0629997C11.449 9.2600002 11.298 9.4160004 11.104 9.5319996L8.151 11.304C7.9510002 11.425 7.7340002 11.484 7.5019999 11.483C7.2849998 11.482 7.0809999 11.427 6.8909998 11.32C6.7010002 11.212 6.5500002 11.066 6.4369998 10.88C6.3169999 10.682 6.257 10.465 6.257 10.231L6.257 8.882C6.257 8.651 6.4429998 8.4650002 6.6739998 8.4650002L7.5079999 8.4650002C7.7379999 8.4650002 7.9250002 8.651 7.9250002 8.882L7.9250002 9.4940004L9.6590004 8.4540005L6.7969999 6.6830001C6.6020002 6.5609999 6.5409999 6.3039999 6.6630001 6.1079998L7.1020002 5.3990002C7.223 5.2030001 7.48 5.1430001 7.6760001 5.2639999Z" fill-rule="evenodd" transform="translate(0, 1.668)" fill="#11141a"></path></svg>