<svg xmlns="http://www.w3.org/2000/svg" version="1.1" xmlns:xlink="http://www.w3.org/1999/xlink" fill="none" width="20.01" height="20" viewBox="0 0 20.01 20"><path d="M15.69 0.97600001C16.284 1.5700001 16.607 2.2750001 16.659 3.0929999L16.947001 2.661C17.163 2.336 17.452999 2.115 17.815001 1.998C18.145 1.89 18.479 1.888 18.816 1.99C19.153999 2.0929999 19.43 2.28 19.646 2.552C19.882 2.8499999 20 3.1949999 20 3.586L20 13.081C20 13.472 19.882 13.817 19.646 14.115C19.43 14.387 19.153999 14.574 18.816 14.676C18.479 14.778 18.145 14.776 17.815001 14.669C17.452999 14.552 17.163 14.331 16.947001 14.005L16.659 13.574C16.607 14.392 16.284 15.097 15.69 15.69C15.04 16.341 14.254 16.667 13.333 16.667L3.3329999 16.667C2.4130001 16.667 1.627 16.341 0.97600001 15.69C0.32499999 15.04 0 14.254 0 13.333L0 3.3329999C0 2.4130001 0.32499999 1.627 0.97600001 0.97600001C1.627 0.32499999 2.4130001 0 3.3329999 0L13.333 0C14.254 0 15.04 0.32499999 15.69 0.97600001Z" fill-rule="evenodd" transform="translate(0, 1.99)" fill="#ff0000"></path><path d="M1.418 0.063000001L4.8579998 2.1919999C5.0500002 2.3099999 5.198 2.4690001 5.303 2.6670001C5.402 2.8529999 5.4510002 3.052 5.4499998 3.263C5.448 3.4749999 5.3969998 3.6730001 5.2950001 3.8570001C5.1869998 4.0539999 5.0359998 4.21 4.842 4.3260002L1.893 6.0960002C1.693 6.217 1.476 6.276 1.244 6.2750001C1.027 6.2740002 0.824 6.2189999 0.634 6.112C0.44400001 6.0050001 0.29300001 5.8579998 0.18000001 5.6729999C0.059999999 5.474 0 5.2579999 0 5.0240002L0 3.677C0 3.4460001 0.18700001 3.26 0.417 3.26L1.25 3.26C1.48 3.26 1.6670001 3.4460001 1.6670001 3.677L1.6670001 4.2880001L3.3989999 3.2490001L0.54000002 1.48C0.345 1.358 0.285 1.102 0.40599999 0.90600002L0.84500003 0.198C0.96499997 0.0020000001 1.223 -0.059 1.418 0.063000001Z" fill-rule="evenodd" transform="translate(6.26, 7.186)" fill="#ffffff"></path></svg>