<svg xmlns="http://www.w3.org/2000/svg" version="1.1" xmlns:xlink="http://www.w3.org/1999/xlink" fill="none" width="16" height="16" viewBox="0 0 16 16"><path d="M6.799983 0C10.555511 0 13.599966 3.044456 13.599966 6.799983C13.599966 7.9034815 13.337114 8.9455872 12.870605 9.8671055C12.375322 9.2759247 11.631562 8.8999996 10.799999 8.8999996C9.3088303 8.8999996 8.0999994 10.10883 8.0999994 11.6C8.0999994 12.255646 8.3336954 12.856709 8.722333 13.324436C8.1127625 13.503753 7.4676085 13.599966 6.799983 13.599966C3.044456 13.599966 0 10.555511 0 6.799983C0 3.044456 3.044456 0 6.799983 0ZM6.7999835 3.6001911Q5.4745855 3.6001911 4.5373883 4.5373888Q3.6001911 5.474586 3.6001911 6.7999854Q3.6001914 8.1253815 4.5373878 9.0625782Q5.4745846 9.9997749 6.7999859 9.9997749Q8.1253815 9.9997749 9.0625782 9.0625782Q9.9997749 8.1253815 9.9997749 6.799983Q9.9997749 5.4745855 9.0625782 4.5373883Q8.1253815 3.6001911 6.7999835 3.6001911Z" fill-rule="evenodd" transform="translate(1.2, 1.2)" fill="#ffffff"></path><path d="M1.75 0C2.7164984 0 3.5 0.78350163 3.5 1.75C3.5 2.7164984 2.7164984 3.5 1.75 3.5C0.78350163 3.5 0 2.7164984 0 1.75C0 0.78350163 0.78350163 0 1.75 0Z" transform="translate(10.25, 11.05)" fill="#ffffff"></path></svg>