<svg xmlns="http://www.w3.org/2000/svg" version="1.1" xmlns:xlink="http://www.w3.org/1999/xlink" fill="none" width="16" height="16" viewBox="0 0 16 16"><path d="M6.1139998 0.083999999C6.369 -0.028000001 6.6609998 -0.028000001 6.9159999 0.083999999L12.43 2.4820001C13.23 2.8310001 13.23 3.9590001 12.43 4.3080001L10.697391 5.0615001L10.702369 5.0636649L6.8899999 6.7360001C6.6350002 6.8470001 6.3449998 6.8470001 6.0900002 6.7360001L2.3025239 5.074584L2.3326097 5.0615001L0.60000002 4.3080001C-0.2 3.9590001 -0.2 2.8310001 0.60000002 2.4820001L6.1139998 0.083999999ZM0.60000002 5.8150001L1.0521044 5.6183834L5.6900001 7.6520004C6.1999998 7.8760004 6.7800002 7.8760004 7.29 7.6520004L11.952793 5.6074662L12.43 5.8150001C13.23 6.164 13.23 7.2919998 12.43 7.6409998L6.9159999 10.039C6.6609998 10.151 6.369 10.151 6.1139998 10.039L0.60000002 7.6409998C-0.2 7.2919998 -0.2 6.164 0.60000002 5.8150001ZM12.43 8.8259993C13.23 9.177 13.23 10.316999 12.43 10.669L6.9169998 13.093C6.6609998 13.205 6.3699999 13.205 6.1139998 13.093L0.60000002 10.669C-0.2 10.316999 -0.2 9.177 0.60000002 8.8259993L0.68699998 8.7869997L5.7119999 10.996C6.224 11.221 6.8060002 11.221 7.3179998 10.996L12.343 8.7869997L12.43 8.8259993Z" fill-rule="evenodd" transform="translate(1.495, 1.425)" fill="#ffffff"></path></svg>