<svg xmlns="http://www.w3.org/2000/svg" version="1.1" xmlns:xlink="http://www.w3.org/1999/xlink" fill="none" width="16" height="16" viewBox="0 0 16 16"><defs><linearGradient id="GRADIENT_LINEAR_6MI1rX" gradientUnits="userSpaceOnUse" x1="5.952011346817017" y1="11.797058120369911" x2="5.952011346817017" y2="1.4156468748301267"><stop stop-color="#ff2f2f" offset="0"></stop><stop stop-color="#fe8900" offset="1"></stop></linearGradient></defs><path d="M4.6220002 0C4.6220002 0 4.8730001 0.055 5.0300002 0.111C6.4089999 0.60500002 9.1829996 2.569 8.2980003 5.9699998C9.5570002 5.9699998 10.254 5 10.586 4.4629998C10.727 4.2350001 10.828 4.1199999 10.828 4.1199999C10.828 4.1199999 11.001 4.362 11.08 4.487C11.654 5.3870001 12 6.4330001 12 7.566C12 10.772 9.3140001 13.37 6 13.37C2.6860001 13.37 0 10.772 0 7.566C0 4.098 3.7249999 2.427 4.5289998 0.301C4.566 0.20200001 4.6220002 0 4.6220002 0Z" transform="translate(2, 1.333)" fill="url(#GRADIENT_LINEAR_6MI1rX)"></path></svg>