<svg xmlns="http://www.w3.org/2000/svg" version="1.1" xmlns:xlink="http://www.w3.org/1999/xlink" fill="none" width="16" height="16" viewBox="0 0 16 16"><path d="M5 0L6.6669998 0L5 2.6670001L6.6669998 2.6670001L8.3330002 0L10 0L8.3330002 2.6670001L10 2.6670001L11.650389 0.024991162C12.604289 0.17692624 13.333333 1.0033245 13.333333 2L13.333333 10C13.333333 11.104569 12.437902 12 11.333333 12L2 12C0.89543045 12 0 11.104569 0 10L0 2C0 0.89543045 0.89543045 0 2 0L3.3340001 0L1.6670001 2.6670001L3.3340001 2.6670001L5 0ZM8.249999 7.4329376L5.7499671 8.8760815C5.4166336 9.0684986 5 8.8279333 5 8.4430504L5 5.556138C5 5.1712127 5.4167156 4.9306531 5.7500486 5.1231532L8.2500811 6.5669222C8.5833855 6.7594051 8.5833397 7.2405167 8.249999 7.4329376Z" fill-rule="evenodd" transform="translate(1.333, 2)" fill="#ffffff"></path></svg>