<svg xmlns="http://www.w3.org/2000/svg" version="1.1" xmlns:xlink="http://www.w3.org/1999/xlink" fill="none" width="16" height="16" viewBox="0 0 16 16"><path d="M8.7010002 1.0940001C8.7729998 0.42099997 9.3739996 -0.064999998 10.044 0.0080000004C10.713 0.081 11.196 0.685 11.124 1.357L11.054 2.0109999L11.781 2.0109999C12.454 2.0109999 13 2.559 13 3.2359998C13 3.9119999 12.454 4.46 11.781 4.46L10.79 4.46L10.438 7.7259998L10.969 7.7259998C11.642 7.7259998 12.187 8.2740002 12.187 8.9500008C12.187 9.6260004 11.642 10.175 10.969 10.175L4.4860001 10.175L4.2989998 11.908C4.2270002 12.581 3.6259999 13.067 2.957 12.994C2.2869999 12.921 1.804 12.317 1.876 11.645L2.0350001 10.175L1.219 10.175C0.546 10.175 0 9.6260004 0 8.9500008C0 8.2740002 0.546 7.7259998 1.219 7.7259998L2.2980001 7.7259998L2.6500001 4.46L2.0309999 4.46C1.358 4.46 0.81300002 3.9119999 0.81199998 3.2359998C0.81199998 2.559 1.358 2.0109999 2.0309999 2.0109999L2.914 2.0109999L3.013 1.0940001C3.086 0.42099997 3.687 -0.064999998 4.3559999 0.0080000004C5.0250001 0.081 5.5089998 0.685 5.4369998 1.357L5.3660002 2.0109999L8.6020002 2.0109999L8.7010002 1.0940001ZM7.5640001 11.645C7.6360002 10.972 8.2370005 10.486 8.9069996 10.559C9.5760002 10.632 10.059 11.236 9.9870005 11.908C9.915 12.581 9.3129997 13.067 8.6440001 12.994C7.9749999 12.921 7.4910002 12.317 7.5640001 11.645ZM5.1020002 4.46L4.75 7.7259998L7.9860001 7.7259998L8.3380003 4.46L5.1020002 4.46Z" transform="translate(1.5, 1.5)" fill="#ffffff"></path></svg>