<svg xmlns="http://www.w3.org/2000/svg" viewBox="0 0 48 48" fill="none">
  <g fill="#ffffff" fill-opacity="0.7" transform="translate(2, 2)">
    <path d="M37.400 0C41.045 0 44 2.955 44 6.600L44 26.965C43.019 26.155 41.906 25.499 40.700 25.028L40.700 6.600C40.700 4.777 39.223 3.300 37.400 3.300L6.600 3.300C4.777 3.300 3.300 4.777 3.300 6.600L3.300 37.400C3.300 39.223 4.777 40.700 6.600 40.700L25.028 40.700C25.499 41.906 26.155 43.018 26.966 44L6.600 44L6.261 43.991C2.886 43.820 0.180 41.114 0.009 37.739L0 37.400L0 6.600C0 2.955 2.955 0 6.600 0L37.400 0Z"/>
    <path d="M32.329 14L26.181 14L26.181 23.387L32.835 23.387L32.835 25.689L26.181 25.689L26.181 33.305L23.171 33.305L23.171 25.689L16.542 25.689L16.542 23.387L23.171 23.387L23.171 14L17.022 14L17.022 11.698L32.329 11.698L32.329 14Z"/>
    <path d="M15.201 29.029C16.129 28.725 17.031 28.236 17.908 27.561L17.908 30.167C16.357 31.213 14.476 32.115 12.267 32.874L12.267 19.896L10.065 19.896L10.065 17.517L15.201 17.517L15.201 29.029Z"/>
    <path d="M21.577 21.617L19.122 21.617L17.022 15.620L20.134 15.620L21.577 21.617Z"/>
    <path d="M30.230 21.617L27.775 21.617L29.217 15.620L32.329 15.620L30.230 21.617Z"/>
    <path d="M16.137 15.747L13.430 15.747L11.128 10.889L14.468 10.889L16.137 15.747Z"/>
  </g>
  <path d="M15.414 2.828L6.768 11.475C6.378 11.865 5.744 11.865 5.354 11.475L0.707 6.828C0.317 6.438 0.317 5.804 0.707 5.414L1.414 4.707C1.804 4.317 2.438 4.317 2.828 4.707L6.061 7.939L13.293 0.707C13.683 0.317 14.317 0.317 14.707 0.707L15.414 1.414C15.804 1.804 15.804 2.438 15.414 2.828Z" transform="translate(28.939, 31.939)" fill="#ff0f23"/>
</svg>
