<svg xmlns="http://www.w3.org/2000/svg" version="1.1" xmlns:xlink="http://www.w3.org/1999/xlink" fill="none" width="54" height="16" viewBox="0 0 54 16"><rect width="54" height="16" rx="2" fill="#61aa5a"></rect><path d="M1.0693359 11.174805L1.0693359 0.74804688L10.930664 0.74804688L10.930664 11.174805L10.054688 11.174805L10.054688 10.65918L1.9453125 10.65918L1.9453125 11.174805L1.0693359 11.174805ZM1.9453125 9.8447266L10.054688 9.8447266L10.054688 1.5654297L1.9453125 1.5654297L1.9453125 9.8447266ZM2.7011719 8.6318359L2.7011719 7.8408203L5.5546875 7.8408203L5.5546875 5.9306641L3.4072266 5.9306641L3.4072266 5.1630859L5.5546875 5.1630859L5.5546875 3.4345703L3.0234375 3.4345703L3.0234375 2.6552734L8.9648438 2.6552734L8.9648438 3.4345703L6.4453125 3.4345703L6.4453125 5.1630859L8.5927734 5.1630859L8.5927734 5.9306641L6.4453125 5.9306641L6.4453125 7.8408203L9.3105469 7.8408203L9.3105469 8.6318359L2.7011719 8.6318359ZM7.96875 7.8173828Q7.6083984 7 7.1748047 6.4111328L7.8603516 6.1826172Q8.3173828 6.8066406 8.6396484 7.5039062L7.96875 7.8173828ZM16.678802 11.189453L16.391693 10.430664L16.968842 10.430664Q18.035248 10.418945 18.29892 10.108398Q18.624115 9.7128906 18.624115 8.5966797Q18.600677 8.2128906 18.57724 7.9960938Q16.573334 9.5693359 13.306732 10.56543L12.876068 9.8212891Q16.476654 8.7636719 18.407318 7.1669922Q18.240326 6.6396484 18.058685 6.2675781Q16.368256 7.6005859 13.453217 8.4267578L13.019623 7.6826172Q16.081146 6.8798828 17.689545 5.6435547Q17.519623 5.3681641 17.209076 5.0195312Q17.17099 5.03125 17.112396 5.0693359Q17.003998 5.1162109 16.945404 5.1513672Q15.709076 5.7285156 13.678802 6.3027344L13.23642 5.5966797Q14.976654 5.2128906 16.356537 4.6240234Q17.159271 4.2636719 17.592865 4.0234375L14.411224 4.0234375L14.411224 3.2207031L21.600677 3.2207031L21.600677 4.0234375L18.852631 4.0234375Q18.240326 4.4453125 17.868256 4.6591797Q18.503998 5.3066406 18.876068 6.0654297Q20.554779 5.5966797 22.054779 4.6123047L22.643646 5.2011719Q21.659271 5.8486328 20.581146 6.2675781Q21.419037 8.5234375 23.340912 9.8798828L22.728607 10.588867Q20.748138 8.9804688 19.883881 6.5195312Q19.464935 6.6396484 19.151459 6.7246094Q19.453217 7.6240234 19.464935 8.5966797Q19.464935 10.011719 19.081146 10.56543Q18.635834 11.189453 17.088959 11.189453L16.678802 11.189453ZM12.934662 3.3408203L12.934662 1.2519531L17.689545 1.2519531Q17.496185 0.71289062 17.26767 0.26757812L18.143646 0.11230469Q18.337006 0.54296875 18.550873 1.2519531L23.065521 1.2519531L23.065521 3.3408203L22.212982 3.3408203L22.212982 2.0546875L13.787201 2.0546875L13.787201 3.3408203L12.934662 3.3408203ZM26.569519 11.212891L26.569519 6.1591797Q25.740417 7.0117188 24.720886 7.8173828L24.468933 6.953125Q27.096863 4.8525391 27.961121 2.8603516L24.791199 2.8603516L24.791199 2.0693359L26.74823 2.0693359Q26.434753 1.1669922 26.015808 0.41113281L26.856628 0.18261719Q27.275574 1.0732422 27.550964 1.8994141L27.132019 2.0693359L28.81073 2.0693359L28.81073 2.7753906Q28.368347 3.9882812 27.40741 5.2011719L27.40741 5.4033203Q27.624207 5.546875 28.054871 5.8603516Q28.643738 5.4765625 29.159363 4.7441406L29.674988 5.2480469Q29.171082 5.9072266 28.608582 6.3027344Q29.124207 6.7363281 29.663269 7.2753906L29.1828 8.0195312Q28.321472 6.9648438 27.40741 6.1972656L27.40741 11.212891L26.569519 11.212891ZM31.283386 11.189453L31.283386 0.22070312L32.135925 0.22070312L32.135925 4.1669922Q33.720886 5.2011719 35.519714 6.6630859L35.004089 7.4072266Q33.275574 5.8603516 32.135925 5.0546875L32.135925 11.189453L31.283386 11.189453ZM37.019806 11.189453L36.551056 10.457031Q37.787384 9.8681641 38.29129 8.8955078Q38.748322 7.9111328 38.783478 6.2675781L38.783478 2.3066406L39.539337 2.3066406L39.539337 6.2675781Q39.504181 8.2363281 38.915314 9.4492188Q38.352814 10.550781 37.019806 11.189453ZM42.120392 11.163086L42.120392 5.5351562L43.848907 5.5351562L43.848907 0.19726562L44.701447 0.19726562L44.701447 2.3798828L47.461212 2.3798828L47.461212 3.1972656L44.701447 3.1972656L44.701447 5.5351562L46.969025 5.5351562L46.969025 11.163086L46.139923 11.163086L46.139923 10.624023L42.934845 10.624023L42.934845 11.163086L42.120392 11.163086ZM41.004181 11.151367Q40.415314 10.193359 39.384064 9.0888672L39.949493 8.546875Q40.930939 9.53125 41.628204 10.539062L41.004181 11.151367ZM42.934845 9.8066406L46.139923 9.8066406L46.139923 6.3408203L42.934845 6.3408203L42.934845 9.8066406ZM37.019806 8.1894531L37.019806 0.67480469L41.317657 0.67480469L41.317657 8.1894531L40.535431 8.1894531L40.535431 1.46875L37.810822 1.46875L37.810822 8.1894531L37.019806 8.1894531Z" transform="translate(3, 2)" fill="#ffffff"></path></svg>