<svg xmlns="http://www.w3.org/2000/svg" version="1.1" xmlns:xlink="http://www.w3.org/1999/xlink" fill="none" width="24" height="16" viewBox="0 0 24 16"><defs><linearGradient id="GRADIENT_LINEAR_02rX_q" gradientUnits="userSpaceOnUse" x1="8.571428775787354" y1="4.898587410340671e-16" x2="8.571428775787354" y2="16"><stop stop-color="#faffc3" offset="0"></stop><stop stop-color="#ffffff" offset="1"></stop></linearGradient><clipPath id="clip_1648:11250_i-rcpO"><rect width="24" height="16"></rect></clipPath></defs><g clip-path="url(#clip_1648:11250_i-rcpO)"><path d="M1.6670001 0L22.333 0C23.253658 0 24 0.74634135 24 1.6670001L24 6.062923C23.260471 6.2848287 22.714001 7.0679603 22.714001 8C22.714001 8.9320393 23.260471 9.7151709 24 9.9370766L24 14.333C24 15.253659 23.253658 16 22.333 16L1.6670001 16C0.74634135 16 0 15.253659 0 14.333L0 9.9369488C0.73931068 9.7148695 1.2855716 8.93186 1.2855716 8C1.2855716 7.0681405 0.73931068 6.285131 0 6.0630517L0 1.6670001C0 0.74634135 0.74634135 0 1.6670001 0Z" fill-rule="evenodd" fill="url(#GRADIENT_LINEAR_02rX_q)"></path><path d="M1.6670001 0L22.333 0C23.253658 0 24 0.74634135 24 1.6670001L24 6.062923C23.260471 6.2848287 22.714001 7.0679603 22.714001 8C22.714001 8.9320393 23.260471 9.7151709 24 9.9370766L24 14.333C24 15.253659 23.253658 16 22.333 16L1.6670001 16C0.74634135 16 0 15.253659 0 14.333L0 9.9369488C0.73931068 9.7148695 1.2855716 8.93186 1.2855716 8C1.2855716 7.0681405 0.73931068 6.285131 0 6.0630517L0 1.6670001C0 0.74634135 0.74634135 0 1.6670001 0ZM23.623016 1.6670001L23.623016 5.803545Q23.114025 6.0394301 22.767019 6.5545387Q22.337019 7.1928539 22.337017 8Q22.337017 8.8071461 22.767019 9.4454613Q23.114021 9.9605694 23.623016 10.196455L23.623016 14.333Q23.623016 14.867342 23.24518 15.245179Q22.867344 15.623017 22.333 15.623016L1.6670001 15.623016Q1.1326587 15.623016 0.75482124 15.245178Q0.37698406 14.867341 0.37698412 14.332996L0.37698412 10.196251Q0.88583511 9.9602785 1.2327106 9.4452276Q1.6625555 8.8069811 1.6625556 8Q1.6625557 7.1930199 1.2327106 6.5547729Q0.88583505 6.039722 0.37698412 5.8037496L0.37698412 1.6670001Q0.37698412 1.132658 0.75482106 0.75482106Q1.1326581 0.37698403 1.6670001 0.37698412L22.333 0.37698412Q22.867346 0.37698415 23.24518 0.75482106Q23.623016 1.1326582 23.623016 1.6670001Z" fill-rule="evenodd" fill="#ffe061"></path><path d="M3.6191406 7.7192383Q4.2905273 7.7192383 4.7592773 7.3041992Q5.2304688 6.8891602 5.2304688 6.3105469Q5.2304688 5.7294922 4.7592773 5.3144531Q4.2905273 4.8994141 3.6191406 4.8994141Q2.9599609 4.8994141 2.4887695 5.3144531Q2.0200195 5.7294922 2.0200195 6.3105469Q2.0200195 6.8891602 2.4887695 7.3041992Q2.9599609 7.7192383 3.6191406 7.7192383ZM0.65039062 6.2299805Q0.65039062 4.9702148 1.7294922 4.1499023Q1.019043 3.4711914 1.019043 2.5288086Q1.019043 1.5595703 1.7832031 0.87109375Q2.5498047 0.18017578 3.6191406 0.18017578Q4.7006836 0.18017578 5.4648438 0.87109375Q6.2290039 1.5595703 6.2290039 2.5288086Q6.2290039 3.4711914 5.5209961 4.1499023Q6.6000977 4.9702148 6.6000977 6.2299805Q6.6000977 7.3505859 5.7285156 8.1391602Q4.859375 8.9301758 3.6191406 8.9301758Q2.3911133 8.9301758 1.5195312 8.1391602Q0.65039062 7.3505859 0.65039062 6.2299805ZM2.75 1.659668Q2.3911133 1.9794922 2.3911133 2.4311523Q2.3911133 2.8803711 2.75 3.2001953Q3.1088867 3.5200195 3.6191406 3.5200195Q4.1391602 3.5200195 4.4980469 3.2001953Q4.859375 2.8803711 4.859375 2.4311523Q4.859375 1.9794922 4.4980469 1.659668Q4.1391602 1.3398438 3.6191406 1.3398438Q3.1088867 1.3398438 2.75 1.659668Z" transform="translate(4.5, 3.5)" fill="#ff0f23"></path><path d="M5.6797409 7.8554688L5.6797409 3.6953125L4.3516159 3.6953125L4.3516159 3.9355469Q4.2793503 6.34375 3.1680222 7.8085938L2.6328659 7.2402344Q3.5352097 6.0488281 3.6074753 3.9355469L3.6074753 1.0390625Q5.5352097 0.9921875 7.0391159 0.43164062L7.416069 1.1191406Q6.0488815 1.5839844 4.3516159 1.671875L4.3516159 2.96875L7.5996628 2.96875L7.5996628 3.6953125L6.447319 3.6953125L6.447319 7.8554688L5.6797409 7.8554688ZM0.73638153 7.7363281L0.56060028 7.0078125Q0.91997528 7.0566406 1.2324753 7.0566406Q1.5273972 7.0566406 1.5273972 6.7441406L1.5273972 5.0390625Q0.83989716 5.2636719 0.49614716 5.359375L0.31255341 4.5917969Q0.87114716 4.4726562 1.5273972 4.2636719L1.5273972 2.5761719L0.45513153 2.5761719L0.45513153 1.8476562L1.5273972 1.8476562L1.5273972 0.44726562L2.2715378 0.44726562L2.2715378 1.8476562L3.1992722 1.8476562L3.1992722 2.5761719L2.2715378 2.5761719L2.2715378 4Q2.7676315 3.8085938 3.2324753 3.5683594L3.2324753 4.34375Q2.6484909 4.6074219 2.2715378 4.7597656L2.2715378 6.9355469Q2.2715378 7.7363281 1.4961472 7.7363281L0.73638153 7.7363281Z" transform="translate(11.5, 4.5)" fill="#ff0f23"></path></g></svg>