<svg xmlns="http://www.w3.org/2000/svg" version="1.1" xmlns:xlink="http://www.w3.org/1999/xlink" fill="none" width="16" height="16" viewBox="0 0 16 16"><path d="M5.6522083 0C8.7738371 0 11.304417 2.5305798 11.304417 5.6522083C11.304417 8.7738371 8.7738371 11.304417 5.6522083 11.304417C2.5305798 11.304417 0 8.7738371 0 5.6522083C0 2.5305798 2.5305798 0 5.6522083 0ZM5.6522083 1.4673823Q3.9187965 1.4673822 2.693089 2.6930895Q1.4673818 3.9187965 1.4673823 5.6522083Q1.4673822 7.3856192 2.6930895 8.6113272Q3.9187975 9.8370352 5.6522083 9.8370352Q7.3856196 9.8370352 8.6113272 8.6113281Q9.8370361 7.3856206 9.8370352 5.6522083Q9.8370352 3.9187961 8.6113281 2.693089Q7.3856206 1.467382 5.6522083 1.4673823Z" fill-rule="evenodd" transform="translate(2, 1.35)" fill="#ffffff"></path><g transform="matrix(0,-1,1,0,-1.892999999999999,24.807000000000002)"><path d="M2.2622285 -0.67784202C2.173213 -0.64097053 2.0923316 -0.58692729 2.0242021 -0.51879776L-0.51879781 2.0242021C-0.58692724 2.0923316 -0.64097065 2.173213 -0.67784214 2.2622287C-0.71471345 2.3512444 -0.73369086 2.4466505 -0.7336908 2.5430005C-0.7336908 2.6393499 -0.71471322 2.7347562 -0.67784202 2.8237712C-0.64097059 2.9127867 -0.58692735 2.9936683 -0.51879764 3.0617981C-0.45066804 3.1299274 -0.3697865 3.1839707 -0.28077108 3.2208421C-0.19175544 3.2577133 -0.09634921 3.276691 0 3.2766907C0.096349508 3.276691 0.1917558 3.2577133 0.28077129 3.2208419C0.36978677 3.1839705 0.45066828 3.1299274 0.51879781 3.0617979L3.0617979 0.51879781C3.1299272 0.45066833 3.1839707 0.36978698 3.2208421 0.28077105C3.2577133 0.19175547 3.276691 0.096349269 3.2766907 0C3.2766907 -0.096350104 3.2577133 -0.1917564 3.2208419 -0.28077137C3.1839705 -0.36978692 3.1299272 -0.45066833 3.0617976 -0.51879805C2.9936678 -0.58692753 2.9127865 -0.64097071 2.823771 -0.67784226C2.7347553 -0.71471345 2.639349 -0.73369086 2.543 -0.73369074C2.4466503 -0.73369086 2.351244 -0.71471328 2.2622285 -0.67784202Z" fill-rule="evenodd" transform="translate(11.457, 13.35)" fill="#ffffff"></path></g></svg>