<svg preserveAspectRatio="none" width="100%" height="100%" overflow="visible" style="display: block;" viewBox="0 0 91.199 18" fill="none" xmlns="http://www.w3.org/2000/svg">
<g id="Group">
<path id="Vector" d="M59.498 0H62.297V17.999H59.498V0Z" fill="var(--fill-0, white)"/>
<path id="Vector_2" d="M53.599 2.7L52.874 0H49.873L50.596 2.7H53.599Z" fill="var(--fill-0, white)"/>
<path id="Vector_3" d="M55.598 5.199V3.3H47.498V5.199H51.96L46.799 12.05H50.43L50.899 11.428V18H53.699V7.718L55.598 5.199Z" fill="var(--fill-0, white)"/>
<path id="Vector_4" d="M58.26 6.501H56.006L53.811 9.412L53.813 9.414H53.811L56.137 12.501H58.391L56.066 9.414L58.26 6.501Z" fill="var(--fill-0, white)"/>
<path id="Vector_5" d="M66.242 5.199H63.199L65.196 12.5H68.198L66.242 5.199Z" fill="var(--fill-0, white)"/>
<path id="Vector_6" d="M91.197 5.201V3.301H86.721V0H83.922V8.201H80.622V17.999H90.722V8.201H86.723V5.201H91.199H91.197ZM87.921 16.1H83.421V10.1H87.921V16.1Z" fill="var(--fill-0, white)"/>
<path id="Vector_7" d="M72.421 2.701H77.722V12.401H79.621V2.701V0.802H77.722H72.421H70.522V2.701V12.401H72.421V2.701Z" fill="var(--fill-0, white)"/>
<path id="Vector_8" d="M76.021 10.562V10.509C76.021 10.447 76.021 10.401 76.021 10.373V3.301H74.121V10.403C74.121 10.433 74.121 10.472 74.121 10.524C74.101 11.098 73.802 13.892 69.972 15.893V17.999C72.745 16.778 74.248 15.162 75.064 13.728C75.871 15.16 77.363 16.777 80.123 17.999V15.89C76.355 13.906 76.044 11.154 76.022 10.562H76.021Z" fill="var(--fill-0, white)"/>
<path id="Vector_9" d="M33.603 16.101L43.7 2.7V0.801001H31.4V2.7H40.193L29.9 16.361V17.179V18H44.499V16.101H33.603Z" fill="var(--fill-0, white)"/>
<path id="Vector_10" d="M25.499 17.999H28.298V2.194L25.499 4.382V17.999Z" fill="var(--fill-0, white)"/>
<path id="Vector_11" d="M12.347 0.801001H9.448H0V2.7H8.938L8.376 4.8H6.57L8.056 6.7H15.712L18.143 4.8H11.275L11.837 2.7H21.2V0.801001H12.347Z" fill="var(--fill-0, white)"/>
<path id="Vector_12" d="M16.825 16.1H4.325V8.747L1.577 5.231L1.525 5.163V16.1H1.5V17.999H1.525H4.325H16.825H19.7H19.725V8.894L16.825 11.16V16.1Z" fill="var(--fill-0, white)"/>
<path id="Vector_13" d="M24.4 0.801001L10.836 11.397L5.682 4.8H2.128L10.352 15.327H10.354L28.947 0.801001H24.4Z" fill="var(--fill-0, white)"/>
</g>
</svg>
