<svg preserveAspectRatio="none" width="100%" height="100%" overflow="visible" style="display: block;" viewBox="0 0 31.0909 18" fill="none" xmlns="http://www.w3.org/2000/svg">
<g id="618" clip-path="url(#clip0_0_20)">
<path id="Vector" fill-rule="evenodd" clip-rule="evenodd" d="M25.0343 16.9737C24.071 16.9677 23.2235 16.7337 22.4227 16.3482C21.9273 16.1097 21.4835 15.8052 21.1088 15.4272C20.7357 15.0537 20.406 14.6502 20.1792 14.1867C20.0393 13.9017 19.8978 13.6197 19.8078 13.3182C19.7161 13.0062 19.655 12.6942 19.6695 12.3687C19.6759 12.2397 19.663 12.1092 19.6502 11.9802C19.6357 11.8497 19.6453 11.7207 19.6695 11.5917C19.7161 11.3457 19.7547 11.0982 19.7997 10.8522C19.8142 10.7727 19.8287 10.6932 19.8528 10.6167C20.0152 10.1007 20.2532 9.61621 20.5861 9.17221C20.7566 8.94571 20.9319 8.72671 21.1313 8.52271C21.2358 8.41621 21.3484 8.32171 21.4722 8.23621C21.6942 8.08321 21.908 7.92121 22.1251 7.76221C22.1589 7.73821 22.1621 7.68271 22.1316 7.65421C22.0769 7.60471 22.0238 7.55221 21.9659 7.50421C21.633 7.22071 21.358 6.89221 21.1184 6.54121C21.0782 6.48121 21.0428 6.41821 21.0075 6.35521C20.8836 6.12121 20.7807 5.87671 20.6955 5.62771C20.6392 5.46571 20.5925 5.29921 20.5732 5.12971C20.5507 4.93171 20.5234 4.73221 20.5009 4.53271C20.4944 4.48321 20.4944 4.43071 20.4977 4.38121C20.5186 4.02121 20.5684 3.66421 20.6955 3.31771C20.7759 3.10021 20.8531 2.87971 20.948 2.66521C21.1265 2.26021 21.3757 1.89421 21.7118 1.57471C21.8357 1.45921 21.9515 1.33471 22.0849 1.22821C22.2265 1.11271 22.3808 1.01221 22.5368 0.914714C23.2155 0.482714 23.9585 0.191714 24.7835 0.0807135C24.8156 0.0762135 24.8478 0.0702135 24.8832 0.0657135C25.5683 -0.0587865 26.2437 0.00271355 26.9079 0.173714C27.3598 0.290714 27.794 0.454214 28.1912 0.683714C28.8827 1.08121 29.4279 1.60321 29.8058 2.25721C29.9859 2.56771 30.1049 2.90371 30.1757 3.25171C30.1934 3.33871 30.2078 3.42871 30.2288 3.51721C30.2625 3.67471 30.2834 3.83371 30.2706 3.99421C30.2673 4.04371 30.269 4.09471 30.2706 4.14421C30.2883 4.48921 30.2304 4.82521 30.1355 5.15671C29.9007 5.99221 29.4424 6.71671 28.7605 7.32871C28.7299 7.35721 28.6994 7.38721 28.6688 7.41721C28.6318 7.45471 28.6383 7.51771 28.6849 7.55071C28.7187 7.57621 28.7541 7.60021 28.791 7.62271C29.0628 7.78321 29.2992 7.98271 29.5388 8.17921C29.579 8.21371 29.6209 8.24821 29.6546 8.28571C29.7945 8.44171 29.9377 8.59621 30.0663 8.75971C30.6035 9.43171 30.9219 10.1817 31.0457 11.0007C31.0795 11.2302 31.1036 11.4567 31.0843 11.6892C31.073 11.8092 31.0763 11.9307 31.073 12.0507C31.0634 12.6282 30.9154 13.1787 30.679 13.7172C30.4571 14.2197 30.121 14.6502 29.7222 15.0522C29.5276 15.2487 29.3217 15.4302 29.0853 15.5862C29.0065 15.6402 28.931 15.7032 28.857 15.7617C28.3761 16.1517 27.8229 16.4277 27.2182 16.6347C26.776 16.7862 26.3177 16.8747 25.8561 16.9542C25.6581 16.9888 25.4601 16.9868 25.2621 16.9849C25.2366 16.9846 25.2111 16.9844 25.1855 16.9842C25.118 16.9842 25.0504 16.9797 25.0327 16.9797L25.0343 16.9737ZM17.7638 4.40521C17.7654 4.45471 17.7638 4.50421 17.7718 4.55371L17.775 4.55821C17.8166 4.78955 17.8141 5.02285 17.8116 5.25731C17.811 5.31321 17.8104 5.36919 17.8104 5.42521C17.7943 8.82121 17.7782 12.2172 17.7605 15.6132C17.7589 15.8637 17.7509 16.1112 17.7059 16.3602C17.6448 16.6947 17.6142 17.0322 17.5386 17.3667C17.5338 17.3892 17.5113 17.3967 17.4888 17.3892C17.4807 17.3847 17.4711 17.3742 17.4711 17.3667C17.4662 17.1372 17.4662 16.9062 17.4662 16.6677C17.4236 16.687 17.4235 16.7141 17.4235 16.7395C17.4235 16.7457 17.4235 16.7518 17.4228 16.7577C17.4148 16.8462 17.4148 16.9362 17.4035 17.0262C17.3987 17.0637 17.373 17.0982 17.3537 17.1357C17.3505 17.1402 17.336 17.1447 17.3247 17.1447C17.3167 17.1447 17.299 17.1372 17.299 17.1312C17.2861 17.0742 17.2733 17.0172 17.262 16.9557C17.2057 16.9992 17.2266 17.0622 17.2057 17.1117C17.1864 17.1582 17.1784 17.2092 17.1575 17.2557C17.1414 17.2902 17.1141 17.3217 17.0851 17.3532C17.0771 17.3607 17.0353 17.3577 17.0288 17.3502C17.0015 17.3112 16.9854 17.2662 16.9565 17.2092C16.9179 17.2737 16.8905 17.3277 16.8568 17.3772C16.8528 17.3832 16.8491 17.3899 16.8453 17.3967C16.8289 17.4261 16.811 17.4584 16.7667 17.4462C16.7458 17.4402 16.741 17.3952 16.7249 17.3697C16.7152 17.3532 16.6991 17.3292 16.6831 17.3292C16.6699 17.3281 16.6559 17.3377 16.6423 17.3471C16.6376 17.3503 16.633 17.3535 16.6284 17.3562C16.6203 17.3622 16.6171 17.3742 16.6123 17.3817C16.6059 17.3907 16.6043 17.4027 16.5962 17.4087C16.5721 17.4267 16.5496 17.4552 16.5222 17.4597C16.4885 17.4657 16.466 17.4342 16.4547 17.4057C16.429 17.3322 16.4065 17.2557 16.3775 17.1717C16.3003 17.2512 16.31 17.3472 16.2633 17.4252C16.2585 17.4327 16.2408 17.4402 16.2376 17.4402C16.2215 17.4297 16.2038 17.4162 16.1974 17.3997C16.1845 17.3757 16.1813 17.3457 16.1701 17.2977C16.1524 17.3607 16.1443 17.4057 16.1282 17.4477C16.1218 17.4627 16.0977 17.4807 16.0784 17.4807C16.0607 17.4807 16.0318 17.4672 16.0237 17.4537C16.0012 17.4087 15.9819 17.3622 15.9658 17.3142C15.9369 17.2317 15.9272 17.1447 15.8999 17.0562C15.8291 17.0907 15.8211 17.1447 15.7937 17.1852C15.7632 17.2692 15.731 17.3532 15.694 17.4507C15.6747 17.4132 15.6603 17.3892 15.6522 17.3637C15.6399 17.3226 15.6334 17.3013 15.6198 17.2959C15.605 17.29 15.5817 17.3027 15.5332 17.3292C15.4994 17.3502 15.4641 17.3427 15.4528 17.3127C15.4335 17.2662 15.4174 17.2197 15.4013 17.1717C15.3885 17.1357 15.3965 17.0907 15.3595 17.0622C15.3435 17.0742 15.3274 17.0847 15.3113 17.0952C15.2759 17.1162 15.2357 17.1102 15.2277 17.0847C15.2148 17.0472 15.1955 17.0097 15.1907 16.9707C15.1601 16.7937 15.1328 16.6152 15.1038 16.4382C15.1022 16.4307 15.0878 16.4247 15.0797 16.4187C15.0519 16.4587 15.0541 16.5018 15.0564 16.5446C15.0572 16.5613 15.0581 16.5779 15.0572 16.5942C15.0565 16.6199 15.0567 16.646 15.0569 16.6719C15.0572 16.7064 15.0574 16.7408 15.0556 16.7742C15.0492 16.8537 15.0379 16.9332 15.0266 17.0112C15.0234 17.0322 14.9977 17.0397 14.9736 17.0322C14.9655 17.0277 14.9511 17.0202 14.9511 17.0127C14.9382 16.9542 14.9237 16.8957 14.9205 16.8372C14.9092 16.7187 14.9076 16.5987 14.8996 16.4802C14.8996 16.4727 14.8851 16.4607 14.8803 16.4607C14.861 16.4667 14.8321 16.4727 14.8272 16.4862C14.7983 16.5597 14.7742 16.6347 14.7484 16.7112C14.7452 16.7187 14.7275 16.7262 14.7211 16.7262C14.7034 16.7187 14.6745 16.7097 14.6696 16.6977C14.6584 16.6407 14.6439 16.5807 14.6439 16.5222C14.6407 16.3917 14.6278 16.2642 14.5908 16.1367C14.5394 15.9612 14.5201 15.7827 14.5201 15.6027C14.5249 14.5017 14.5249 13.4052 14.5249 12.3057L14.5249 12.2783C14.525 12.0774 14.525 11.8766 14.4927 11.6772C14.4773 11.5919 14.4783 11.5017 14.4794 11.4137C14.4796 11.3919 14.4799 11.3702 14.4799 11.3487C14.4815 10.6992 14.4863 10.0497 14.4879 9.40171C14.4943 7.80271 14.4976 6.20521 14.5024 4.60771C14.5024 4.51771 14.4943 4.42771 14.4863 4.33771C14.4831 4.30471 14.4155 4.27321 14.3802 4.28821C14.348 4.30021 14.3158 4.31221 14.2869 4.32721C14.1888 4.37821 14.0891 4.41721 13.9765 4.43971C13.8784 4.45921 13.7851 4.49671 13.6902 4.52671C13.6452 4.54321 13.605 4.51021 13.6131 4.46221C13.6179 4.44271 13.6275 4.42471 13.634 4.40671C13.4603 4.44121 13.2979 4.50421 13.1451 4.58671C13.0952 4.61071 13.0486 4.63621 13.0003 4.66171C12.8685 4.72471 12.7382 4.76971 12.5838 4.72921C12.4954 4.70521 12.4101 4.73221 12.3281 4.76971C12.23 4.81621 12.1271 4.85371 12.0274 4.89571C12.0193 4.88671 12.0113 4.87921 12.0033 4.87171C12.103 4.75321 12.1995 4.63171 12.3265 4.53871C12.3153 4.50871 12.2992 4.50271 12.2702 4.50871C12.2059 4.51921 12.14 4.53121 12.074 4.54321C12.066 4.54321 12.0483 4.53721 12.0483 4.53121C12.0435 4.51471 12.037 4.48771 12.0483 4.48021C12.0756 4.45621 12.1078 4.43821 12.1351 4.41871C12.1424 4.41467 12.1899 4.38028 12.1947 4.37668C12.1995 4.37515 12.2011 4.3707 12.2059 4.36921C12.304 4.30471 12.4117 4.24921 12.4905 4.16071C12.4021 4.18021 12.312 4.20121 12.222 4.22071V4.16221C12.1834 4.18021 12.1432 4.19671 12.1046 4.21471C12.0949 4.22071 12.0853 4.22821 12.074 4.23271C12.0531 4.25071 12.0354 4.26721 12.0177 4.28071C11.8827 4.32721 11.7476 4.37221 11.6125 4.41871C11.6028 4.42171 11.5867 4.41871 11.5803 4.41271C11.5642 4.39921 11.5642 4.37821 11.5851 4.36471C11.7041 4.29121 11.7926 4.18171 11.9325 4.13371C12.0113 4.10671 12.0499 4.04371 12.0853 3.98371C11.9968 4.02271 11.9068 4.06021 11.8232 4.10521C11.7074 4.16521 11.598 4.23121 11.4854 4.29571C11.4002 4.34371 11.3134 4.38871 11.2104 4.39771C11.2555 4.35721 11.2989 4.31671 11.3439 4.27771C11.3857 4.23721 11.4308 4.19971 11.4742 4.16071C11.3889 4.18321 11.3053 4.20421 11.2185 4.22821L11.1976 4.20721C11.2104 4.19071 11.2249 4.17571 11.2346 4.15921C11.2796 4.09171 11.3101 4.01521 11.368 3.95971C11.442 3.88921 11.5353 3.83671 11.6221 3.77521C11.7154 3.70771 11.8199 3.65521 11.8843 3.56071C11.7138 3.61321 11.5691 3.70621 11.4147 3.78421C11.3069 3.83971 11.204 3.90121 11.0834 3.92821L11.0673 3.91321C11.04 3.92371 11.0142 3.93121 10.9853 3.93571C11.0255 3.87571 11.085 3.83821 11.159 3.81871C11.1718 3.80821 11.1831 3.79621 11.1976 3.78421C11.2876 3.71371 11.3954 3.65821 11.471 3.57871C11.5353 3.50821 11.5465 3.40171 11.6141 3.32521C11.5047 3.34771 11.4082 3.40171 11.3134 3.44821C11.2426 3.48271 11.1718 3.51121 11.0995 3.53821C11.0856 3.54396 11.0629 3.53044 11.0455 3.52006L11.0432 3.51871C11.04 3.51871 11.0448 3.49771 11.0512 3.49321C11.0914 3.46021 11.1365 3.42721 11.1799 3.39721C11.3584 3.27571 11.5337 3.15121 11.7106 3.02671C11.7717 2.98321 11.8312 2.93671 11.8939 2.89471C12.5597 2.45221 13.2271 2.00971 13.8929 1.56571C14.0987 1.42921 14.3126 1.29871 14.5378 1.18471C14.6246 1.14121 14.705 1.08571 14.7886 1.03621C15.2293 0.767714 15.7085 0.674714 16.2296 0.779714C16.3405 0.800714 16.4483 0.826214 16.556 0.856214C16.9629 0.974714 17.2491 1.21171 17.4035 1.57021C17.4534 1.69021 17.4984 1.81471 17.5402 1.93921C17.5836 2.06221 17.6158 2.18821 17.6528 2.31421C17.6673 2.36221 17.685 2.41021 17.6882 2.45971C17.6929 2.57784 17.7058 2.69544 17.7186 2.81317C17.7361 2.97351 17.7537 3.13411 17.7509 3.29671C17.7472 3.58014 17.753 3.86357 17.7588 4.14768C17.7605 4.23345 17.7623 4.31929 17.7638 4.40521ZM7.59686 1.81621C7.47785 1.88971 7.36206 1.97221 7.21411 1.99771V1.99171C7.23823 1.97221 7.26075 1.94971 7.28809 1.93021C7.47303 1.79521 7.62259 1.64971 7.73838 1.49371C7.74481 1.48471 7.75124 1.47571 7.75124 1.46671C7.75285 1.45621 7.75446 1.44121 7.74803 1.43821C7.74623 1.43704 7.74436 1.4358 7.74242 1.43451C7.727 1.42426 7.70764 1.41138 7.69335 1.41271C7.5454 1.43821 7.428 1.51471 7.30256 1.58071C7.17552 1.64821 7.0549 1.72471 6.92142 1.77121C6.76221 1.82971 6.61587 1.90321 6.48561 1.99771C6.21061 2.18971 5.93883 2.38321 5.67669 2.58721C5.23927 2.93221 4.85009 3.32221 4.46574 3.71371C4.30974 3.87121 4.16018 4.03471 4.00419 4.19221C3.52495 4.68571 3.08109 5.20171 2.65975 5.73271C2.61472 5.78971 2.57291 5.84971 2.53592 5.91271C2.39119 6.16321 2.23037 6.40321 2.07759 6.64771C1.81063 7.07671 1.54528 7.50721 1.30406 7.94821C0.993679 8.51521 0.712248 9.09271 0.490319 9.69271C0.26035 10.3137 0.0979235 10.9452 0.0593272 11.5992C0.0528945 11.6802 0.0416372 11.7597 0.0287718 11.8377C-0.00982446 12.0672 -0.0114326 12.2967 0.0352045 12.5262C0.138128 13.0272 0.266782 13.5237 0.4276 14.0127C0.536956 14.3397 0.678476 14.6547 0.850551 14.9577C1.18988 15.5592 1.61122 16.1067 2.14353 16.5882C2.54075 16.9467 2.99104 17.2407 3.49118 17.4717C3.74849 17.5917 4.01545 17.6997 4.30331 17.7507C4.36925 17.7627 4.43357 17.7792 4.49951 17.7927C4.85974 17.8647 5.21997 17.9322 5.58824 17.9727C5.94848 18.0117 6.30388 18.0027 6.6609 17.9802C7.11119 17.9517 7.55344 17.8947 7.98443 17.7717C8.13399 17.7297 8.28355 17.6847 8.43311 17.6397C8.55051 17.6052 8.65986 17.5587 8.76761 17.5032C8.89466 17.4402 9.02814 17.3847 9.16322 17.3352C9.26776 17.2962 9.37068 17.2557 9.46234 17.1987C9.76468 17.0097 10.0638 16.8147 10.2986 16.5537C10.334 16.5162 10.371 16.4772 10.4096 16.4412C10.7392 16.1397 11.0094 15.7947 11.2699 15.4422C11.4758 15.1662 11.6446 14.8722 11.7604 14.5572C11.91 14.1567 12.0113 13.7457 12.0419 13.3242C12.0451 13.2627 12.0499 13.2027 12.0644 13.1442C12.111 12.9567 12.1094 12.7662 12.1174 12.5772C12.1237 12.4132 12.1067 12.2509 12.0898 12.0891C12.0849 12.0423 12.08 11.9955 12.0756 11.9487C12.0596 11.7582 12.021 11.5737 11.9775 11.3862C11.8939 11.0217 11.7427 10.6782 11.5787 10.3377C11.3616 9.88771 11.1139 9.45271 10.7698 9.06421C10.6315 8.90821 10.4819 8.75971 10.3099 8.62921C10.1297 8.49421 9.94962 8.36071 9.76147 8.23471C9.60869 8.13271 9.45109 8.03521 9.28545 7.95271C8.53925 7.58521 7.73999 7.37821 6.878 7.37821C6.3457 7.37821 5.83108 7.44421 5.32289 7.58521C5.17333 7.62721 5.02377 7.67071 4.87421 7.71271C4.85652 7.71871 4.82758 7.71421 4.8131 7.70371C4.80024 7.69321 4.7922 7.66771 4.79702 7.65121C4.88225 7.38271 4.96427 7.11121 5.09132 6.85321C5.4033 6.22921 5.76354 5.63071 6.16397 5.05021C6.47757 4.59721 6.83297 4.17121 7.20125 3.75571C7.33473 3.60421 7.46981 3.45721 7.6242 3.32521C7.75446 3.21271 7.86382 3.08671 7.94583 2.94271C7.98443 2.87071 8.0375 2.80471 8.09057 2.74171C8.16615 2.65321 8.24817 2.57221 8.32536 2.48521C8.34627 2.46271 8.36557 2.43571 8.37361 2.40721C8.37683 2.39371 8.36074 2.37271 8.34788 2.35771C8.34466 2.35171 8.32536 2.34871 8.31732 2.35171C8.27873 2.36971 8.2353 2.38321 8.20314 2.40721C8.09218 2.49121 7.98443 2.57971 7.87507 2.66521C7.84613 2.61421 7.81557 2.56171 7.7818 2.50171C7.82683 2.44771 7.87347 2.39221 7.92332 2.33821C8.00051 2.25421 8.08253 2.17021 8.16455 2.08921C8.21118 2.04121 8.22726 1.98421 8.2337 1.92271C8.24013 1.86721 8.18384 1.82071 8.13077 1.84171C8.06001 1.87171 7.99086 1.90321 7.9201 1.93471C7.88151 1.95121 7.83809 1.94521 7.82844 1.92421C7.81235 1.89271 7.82683 1.86721 7.84613 1.84171C7.86703 1.81921 7.88794 1.79671 7.90885 1.77121C7.91367 1.76371 7.91849 1.75471 7.91849 1.74571C7.91849 1.73521 7.91849 1.72171 7.91206 1.71571C7.89598 1.70521 7.87507 1.69021 7.85899 1.69021C7.75446 1.70071 7.67888 1.76371 7.59686 1.81621ZM25.2128 6.42871C25.6873 6.45871 26.1215 6.34021 26.5316 6.13621C27.0719 5.86471 27.416 5.43871 27.6894 4.95871C27.7007 4.94071 27.7087 4.92121 27.7136 4.90321C27.7988 4.65271 27.8551 4.39621 27.831 4.13371C27.8004 3.81271 27.72 3.50221 27.5479 3.21571C27.2745 2.75671 26.8725 2.42821 26.3289 2.23771C26.062 2.14471 25.7854 2.12521 25.5071 2.11321C25.2225 2.09971 24.9491 2.14171 24.6854 2.23021C23.8732 2.49721 23.3361 2.99521 23.0852 3.74071C23.008 3.97321 22.9903 4.21321 22.9984 4.45171C23.0161 4.97371 23.2251 5.43121 23.632 5.80171C24.0646 6.19321 24.5857 6.42271 25.2128 6.43021V6.42871ZM11.8232 3.20371L11.8875 3.14521C11.91 3.12421 11.9325 3.10471 11.955 3.08221H11.9534L11.8859 3.14371C11.865 3.16171 11.8424 3.18271 11.8199 3.20221C11.7878 3.21571 11.7556 3.23071 11.7218 3.24571C11.7556 3.23371 11.7894 3.22021 11.8232 3.20371ZM28.3054 11.8287C28.3102 11.7387 28.3166 11.6502 28.3166 11.5602C28.3166 11.5107 28.3118 11.4582 28.3038 11.4102C28.1912 10.7022 27.8165 10.1292 27.1877 9.69271C26.6666 9.32971 26.0604 9.17671 25.4058 9.16921C25.3495 9.16921 25.2933 9.17221 25.237 9.17671C24.6596 9.23971 24.1305 9.41371 23.6593 9.72871C23.1705 10.0572 22.8183 10.4787 22.5979 10.9827C22.4001 11.4402 22.3471 11.9142 22.4468 12.4002C22.5835 13.0692 22.9405 13.6152 23.5661 14.0112C24.2833 14.4612 25.0761 14.5932 25.9269 14.4192C26.1536 14.3742 26.3772 14.3007 26.6007 14.2302C27.0011 14.1027 27.326 13.8762 27.5849 13.5762C27.7457 13.3932 27.8712 13.1952 27.9837 12.9852C28.1815 12.6192 28.3054 12.2382 28.3054 11.8287ZM8.52136 12.757C8.52012 12.7903 8.51888 12.8234 8.51834 12.8562L8.51674 12.8502C8.54086 13.2867 8.39612 13.6827 8.12112 14.0382C7.80431 14.4477 7.37171 14.7237 6.82332 14.8407C6.72523 14.8617 6.62552 14.8737 6.5242 14.8827C6.44701 14.8917 6.3666 14.8872 6.28941 14.8917C5.69921 14.9202 5.19102 14.7312 4.73752 14.4132C4.596 14.3157 4.46734 14.2062 4.33226 14.1012C4.03474 13.8702 3.86589 13.5687 3.74688 13.2417C3.58445 12.7917 3.58445 12.3372 3.74045 11.8842C3.90287 11.4147 4.22612 11.0532 4.70535 10.8087C4.88869 10.7157 5.07041 10.6152 5.28108 10.5672C5.41295 10.5357 5.54322 10.5072 5.6783 10.5072H6.04979C6.38108 10.5042 6.68824 10.5912 6.98736 10.7127C7.52771 10.9317 7.92332 11.2872 8.21118 11.7417C8.28355 11.8542 8.34466 11.9727 8.40577 12.0897C8.48296 12.2367 8.51352 12.3957 8.52317 12.5562C8.52639 12.6224 8.52387 12.69 8.52136 12.757ZM17.2976 16.4883C17.2931 16.5037 17.2883 16.5202 17.3183 16.5267C17.3183 16.5267 17.3247 16.5102 17.3247 16.5027C17.3231 16.4862 17.3183 16.4712 17.3151 16.4532C17.3103 16.4592 17.3006 16.4667 17.3006 16.4712C17.3011 16.4763 17.2993 16.4822 17.2976 16.4883ZM9.59439 17.6711L9.59582 17.6697H9.59743L9.59439 17.6711ZM9.59439 17.6711L9.591 17.6742C9.591 17.6742 9.5919 17.6725 9.59439 17.6711Z" fill="var(--fill-0, white)"/>
</g>
<defs>
<clipPath id="clip0_0_20">
<rect width="31.0909" height="18" fill="white"/>
</clipPath>
</defs>
</svg>
