<svg xmlns="http://www.w3.org/2000/svg" version="1.1" xmlns:xlink="http://www.w3.org/1999/xlink" fill="none" width="140" height="30" viewBox="0 0 140 30"><path d="M132.16499 24.879C131.214 25.603001 129.709 25.966 127.65 25.966L127.65 23.451C128.41901 23.337999 128.974 23.111 129.313 22.771C129.675 22.386 129.85699 21.809 129.85699 21.038L129.85699 16.993999L122.15 16.993999L122.15 25.455999L118.246 25.455999L118.246 16.993999L110.472 16.993999C110.268 20.120001 109.249 23.111 107.416 25.966L104.428 25.966C105.265 24.063 105.832 22.42 106.126 21.038C106.42 19.611 106.567 17.775 106.567 15.532L106.567 0.91799998L133.82899 0.91799998L133.82899 20.664C133.82899 22.635 133.274 24.040001 132.16499 24.879ZM118.246 3.467L110.539 3.467L110.539 7.7490001L118.246 7.7490001L118.246 3.467ZM118.246 10.23L110.539 10.23L110.539 14.513L118.246 14.513L118.246 10.23ZM129.85699 3.467L122.15 3.467L122.15 7.7490001L129.85699 7.7490001L129.85699 3.467ZM129.85699 10.23L122.15 10.23L122.15 14.513L129.85699 14.513L129.85699 10.23ZM93.530998 25.115999C92.851997 24.596001 92.421997 23.712 92.240997 22.465L90.712997 12.107C90.677002 12.844 90.380997 13.57 89.819 14.133L88.152 15.802L88.152 15.802L83.799004 20.16L79.445 15.802L79.445 15.802L77.778 14.133C76.575996 12.93 76.575996 10.978 77.778 9.7749996C78.980003 8.5710001 80.93 8.5710001 82.132004 9.7749996L83.799004 11.444L85.464996 9.7749996C86.667999 8.5710001 88.616997 8.5710001 89.819 9.7749996C90.152 10.108 90.389 10.5 90.537003 10.916L89.830002 6.118L78.457001 6.118L78.457001 3.467L89.457001 3.467L88.947998 0L92.851997 0L93.361 3.467L95.668999 3.467L94.549004 0.64600003L98.181999 0.64600003L98.453003 3.467L100.151 3.467L100.151 6.118L93.735001 6.118L96.111 22.194C96.247002 22.987 96.846001 23.382999 97.910004 23.382999L100.151 23.382999L100.151 25.966L96.959 25.966C95.398003 25.966 94.254997 25.681999 93.530998 25.115999ZM70.716003 0L75.401001 0L77.439003 5.4720001L74.315002 5.4720001L70.716003 0ZM76.013 20.018C76.668999 19.656 77.495003 19.101 78.490997 18.353001L78.490997 21.412001C77.087997 22.566999 74.983002 23.927 72.176003 25.49L72.176003 10.162L69.596001 10.162L69.596001 7.4429998L76.013 7.4429998L76.013 20.018ZM56.865002 16.926001L61.481998 16.926001L65.352997 25.32L62.432999 25.32L56.865002 16.926001ZM41.417999 11.386L48.276001 11.386L48.276001 7.2049999L52.52 7.2049999L52.52 11.386L64.164001 11.386L64.164001 14.139L52.52 14.139L52.52 19.848C52.52 23.950001 50.166 26 45.458 26L45.458 23.281C46.499001 23.191 47.223999 22.93 47.631001 22.499001C48.061001 22.046 48.276001 21.309999 48.276001 20.290001L48.276001 14.139L36.02 14.139L39.721001 4.6220002L34.798 4.6220002L34.798 1.802L40.806999 1.802L41.52 0L45.798 0L45.118999 1.802L65.352997 1.802L65.352997 4.6220002L44.032001 4.6220002L41.417999 11.386ZM22.237 17.264999L26.82 17.264999L30.555 25.32L27.635 25.32L22.237 17.264999ZM0 1.835L13.138 1.835L13.138 0L17.382 0L17.382 1.835L30.555 1.835L30.555 4.6220002L0 4.6220002L0 1.835ZM8.2840004 17.264999L2.8859999 25.32L0 25.32L3.7 17.264999L8.2840004 17.264999ZM12.493 22.533001C12.923 22.103001 13.138 21.389999 13.138 20.392L13.138 15.362L1.9349999 15.362L1.9349999 6.526L28.618999 6.526L28.618999 15.362L17.382 15.362L17.382 19.815001C17.382 22.080999 16.725 23.712 15.413 24.709C14.281 25.569 12.595 26 10.355 26L10.355 23.212999C11.373 23.167999 12.086 22.941 12.493 22.533001ZM24.511999 12.541L24.511999 9.3129997L6.0770001 9.3129997L6.0770001 12.541L24.511999 12.541ZM43.251999 16.926001L37.717999 25.32L34.798 25.32L38.667999 16.926001L43.251999 16.926001ZM90.373001 22.737L78.184998 25.014L78.184998 22.329L90.373001 20.018L90.373001 22.737Z" fill-rule="evenodd" transform="translate(3, 2)" fill="#ffffff"></path></svg>