<svg xmlns="http://www.w3.org/2000/svg" version="1.1" xmlns:xlink="http://www.w3.org/1999/xlink" fill="none" width="149.166" height="31.37" viewBox="0 0 149.166 31.37"><path d="M26.917999 5.3759999L24.365 3.8940001L24.362 3.8940001L17.641001 0L15.088 1.479L21.809 5.3759999L14.004 9.901L6.1960001 5.3759999L12.915 1.479L10.361 0L1.09 5.3759999L14.004 12.861L24.362 6.8569999L26.917999 5.3759999ZM0 7.2719998L0 18.009001L2.553 19.490999L2.553 11.712999L10.361 16.239L10.361 25.292999L3.6429999 21.398001L3.6429999 24.358L10.361 28.264L10.361 28.269999L12.914 29.747999L12.914 14.76L2.553 8.7509995L0 7.2719998ZM15.087 14.76L25.448 8.75L27.982 7.283L28.000999 18.008999L25.448 19.49L25.448 11.712999L17.639999 16.239L17.639999 25.292999L24.358 21.397999L24.358 24.358002L17.639999 28.264L17.639999 28.269001L15.087 29.748001L15.087 14.76Z" fill-rule="evenodd" transform="translate(0.718, 0.811)" fill="#ffffff"></path><path d="M5.2805486 18.541294L8.5514956 18.541294L3.8267944 26.187757L1.4323756 26.187757L5.2805486 18.541294ZM23.815916 18.541294L27.728226 26.187757L25.276796 26.187757L20.552095 18.541294L23.815916 18.541294ZM22.447678 10.196461L6.6844192 10.196461L6.6844192 14.251295L22.447678 14.251295L22.447678 10.196461ZM16.055433 16.588703L16.055433 21.313404Q16.055433 24.434702 14.537543 25.724552Q13.162177 26.857624 9.9268618 26.921761L9.9268618 24.612858Q11.822443 24.498837 12.463805 23.885981Q13.048158 23.301628 13.048158 21.755232L13.048158 16.588703L3.7626581 16.588703L3.7626581 7.8305473L25.362312 7.8305473L25.362312 16.588703L16.055433 16.588703ZM16.055433 3.3908958L27.728226 3.3908958L27.728226 5.6997986L1.4608805 5.6997986L1.4608805 3.3908958L13.048158 3.3908958L13.048158 0.64728928L16.055433 0.64728928L16.055433 3.3908958ZM34.382473 17.928438L37.653419 17.928438L33.128254 26.244768L30.648319 26.244768L34.382473 17.928438ZM53.095997 17.928438L56.858654 26.244768L54.350216 26.244768L49.796543 17.928438L53.095997 17.928438ZM45.535049 15.070813L45.535049 21.142376Q45.535049 24.235167 44.13118 25.517891Q42.698803 26.857624 39.199814 26.921761L39.199814 24.641361Q41.245049 24.498837 41.94342 23.793339Q42.556278 23.180481 42.556278 21.577076L42.556278 15.070813L32.194714 15.070813L35.843353 5.899334L30.648319 5.899334L30.648319 3.5405464L36.805397 3.5405464L37.945595 0.64728928L40.981377 0.64728928L39.784168 3.5405464L56.915665 3.5405464L56.915665 5.899334L38.822124 5.899334L35.985878 12.761909L42.556278 12.761909L42.556278 8.151228L45.535049 8.151228L45.535049 12.761909L55.74696 12.761909L55.74696 15.070813L45.535049 15.070813ZM61.46767 18.220613L63.947601 18.220613L61.788349 25.838572L59.750244 25.838572L61.46767 18.220613ZM72.242554 18.220613L73.147583 24.990549L71.102356 24.990549L69.72699 18.220613L72.242554 18.220613ZM83.680176 11.272524L83.680176 26.921761L80.993584 26.921761L80.993584 11.272524L77.466095 11.272524L77.466095 16.496063Q77.466095 21.983273 75.477867 26.921761L73.111954 26.921761Q74.750992 22.161428 74.750992 16.617208L74.750992 2.0226555L80.323715 2.0226555Q83.330994 2.0226555 85.518753 1.174633L85.518753 3.3623905Q83.388 4.210413 80.295212 4.210413L77.466095 4.210413L77.466095 8.970746L86.103104 8.970746L86.103104 11.272524L83.680176 11.272524ZM70.867188 9.5836029L73.760445 9.5836029L73.760445 11.828371L68.330246 11.828371L68.330246 14.39382L73.290115 14.39382L73.290115 16.645714L68.330246 16.645714L68.330246 21.463057Q68.330246 24.320681 67.190048 25.5749Q66.049843 26.800615 63.39888 26.921761L63.39888 24.669867Q64.738617 24.527342 65.237457 23.821844Q65.672157 23.208986 65.672157 21.726727L65.672157 16.645714L60.363102 16.645714L60.363102 14.39382L65.672157 14.39382L65.672157 11.828371L59.864262 11.828371L59.864262 9.5836029L62.750393 9.5836029L60.940327 6.1630039L63.74807 6.1630039L65.030792 9.5836029L68.593918 9.5836029L69.905144 6.1630039L72.677254 6.1630039L70.867188 9.5836029ZM68.387253 2.8350468L73.375626 2.8350468L73.375626 5.0584373L60.298965 5.0584373L60.298965 2.8350468L65.408485 2.8350468L65.408485 0.64728928L68.387253 0.64728928L68.387253 2.8350468ZM112.28326 1.6378384L112.28326 11.536195L92.030472 11.536195L92.030472 1.6378384L112.28326 1.6378384ZM94.97361 9.2914267L109.34013 9.2914267L109.34013 3.9182377L94.97361 3.9182377L94.97361 9.2914267ZM100.7815 14.194284L100.7815 26.337408L89.636055 26.337408L89.636055 14.194284L100.7815 14.194284ZM92.258514 24.085514L98.159042 24.085514L98.159042 16.467558L92.258514 16.467558L92.258514 24.085514ZM114.64918 14.194284L114.64918 26.337408L103.4966 26.337408L103.4966 14.194284L114.64918 14.194284ZM106.12619 24.085514L111.99109 24.085514L111.99109 16.467558L106.12619 16.467558L106.12619 24.085514Z" transform="translate(32.409, 1)" fill="#ffffff"></path><path d="M5.2805486 18.541294L8.5514956 18.541294L3.8267944 26.187757L1.4323756 26.187757L5.2805486 18.541294ZM23.815916 18.541294L27.728226 26.187757L25.276796 26.187757L20.552095 18.541294L23.815916 18.541294ZM22.447678 10.196461L6.6844192 10.196461L6.6844192 14.251295L22.447678 14.251295L22.447678 10.196461ZM16.055433 16.588703L16.055433 21.313404Q16.055433 24.434702 14.537543 25.724552Q13.162177 26.857624 9.9268618 26.921761L9.9268618 24.612858Q11.822443 24.498837 12.463805 23.885981Q13.048158 23.301628 13.048158 21.755232L13.048158 16.588703L3.7626581 16.588703L3.7626581 7.8305473L25.362312 7.8305473L25.362312 16.588703L16.055433 16.588703ZM16.055433 3.3908958L27.728226 3.3908958L27.728226 5.6997986L1.4608805 5.6997986L1.4608805 3.3908958L13.048158 3.3908958L13.048158 0.64728928L16.055433 0.64728928L16.055433 3.3908958ZM34.382473 17.928438L37.653419 17.928438L33.128254 26.244768L30.648319 26.244768L34.382473 17.928438ZM53.095997 17.928438L56.858654 26.244768L54.350216 26.244768L49.796543 17.928438L53.095997 17.928438ZM45.535049 15.070813L45.535049 21.142376Q45.535049 24.235167 44.13118 25.517891Q42.698803 26.857624 39.199814 26.921761L39.199814 24.641361Q41.245049 24.498837 41.94342 23.793339Q42.556278 23.180481 42.556278 21.577076L42.556278 15.070813L32.194714 15.070813L35.843353 5.899334L30.648319 5.899334L30.648319 3.5405464L36.805397 3.5405464L37.945595 0.64728928L40.981377 0.64728928L39.784168 3.5405464L56.915665 3.5405464L56.915665 5.899334L38.822124 5.899334L35.985878 12.761909L42.556278 12.761909L42.556278 8.151228L45.535049 8.151228L45.535049 12.761909L55.74696 12.761909L55.74696 15.070813L45.535049 15.070813ZM61.46767 18.220613L63.947601 18.220613L61.788349 25.838572L59.750244 25.838572L61.46767 18.220613ZM72.242554 18.220613L73.147583 24.990549L71.102356 24.990549L69.72699 18.220613L72.242554 18.220613ZM83.680176 11.272524L83.680176 26.921761L80.993584 26.921761L80.993584 11.272524L77.466095 11.272524L77.466095 16.496063Q77.466095 21.983273 75.477867 26.921761L73.111954 26.921761Q74.750992 22.161428 74.750992 16.617208L74.750992 2.0226555L80.323715 2.0226555Q83.330994 2.0226555 85.518753 1.174633L85.518753 3.3623905Q83.388 4.210413 80.295212 4.210413L77.466095 4.210413L77.466095 8.970746L86.103104 8.970746L86.103104 11.272524L83.680176 11.272524ZM70.867188 9.5836029L73.760445 9.5836029L73.760445 11.828371L68.330246 11.828371L68.330246 14.39382L73.290115 14.39382L73.290115 16.645714L68.330246 16.645714L68.330246 21.463057Q68.330246 24.320681 67.190048 25.5749Q66.049843 26.800615 63.39888 26.921761L63.39888 24.669867Q64.738617 24.527342 65.237457 23.821844Q65.672157 23.208986 65.672157 21.726727L65.672157 16.645714L60.363102 16.645714L60.363102 14.39382L65.672157 14.39382L65.672157 11.828371L59.864262 11.828371L59.864262 9.5836029L62.750393 9.5836029L60.940327 6.1630039L63.74807 6.1630039L65.030792 9.5836029L68.593918 9.5836029L69.905144 6.1630039L72.677254 6.1630039L70.867188 9.5836029ZM68.387253 2.8350468L73.375626 2.8350468L73.375626 5.0584373L60.298965 5.0584373L60.298965 2.8350468L65.408485 2.8350468L65.408485 0.64728928L68.387253 0.64728928L68.387253 2.8350468ZM112.28326 1.6378384L112.28326 11.536195L92.030472 11.536195L92.030472 1.6378384L112.28326 1.6378384ZM94.97361 9.2914267L109.34013 9.2914267L109.34013 3.9182377L94.97361 3.9182377L94.97361 9.2914267ZM100.7815 14.194284L100.7815 26.337408L89.636055 26.337408L89.636055 14.194284L100.7815 14.194284ZM92.258514 24.085514L98.159042 24.085514L98.159042 16.467558L92.258514 16.467558L92.258514 24.085514ZM114.64918 14.194284L114.64918 26.337408L103.4966 26.337408L103.4966 14.194284L114.64918 14.194284ZM106.12619 24.085514L111.99109 24.085514L111.99109 16.467558L106.12619 16.467558L106.12619 24.085514Z" transform="translate(32.409, 1)" fill="#ffffff"></path></svg>