<svg xmlns="http://www.w3.org/2000/svg" version="1.1" xmlns:xlink="http://www.w3.org/1999/xlink" fill="none" width="174.664" height="30" viewBox="0 0 174.664 30"><defs><clipPath id="clip_42:4643_LVe2f9"><rect width="174.664" height="30"></rect></clipPath></defs><g clip-path="url(#clip_42:4643_LVe2f9)"><path d="M95.225998 23.301001L95.225998 26.549L100.148 26.533001C101.941 26.533001 102.809 25.725 102.809 24.07L102.809 5.3709998C102.809 3.1110001 101.633 2.013 99.216003 2.013L91.967003 2.013L92.501999 0L88.143997 0C87.857002 1.778 87.151001 3.092 86.049004 3.9230001L86.049004 9.3649998C87.872002 8.4949999 89.442001 7.1630001 90.603996 5.4970002L90.681999 5.3829999L96.627998 5.3829999C97.567001 5.3829999 98.683998 5.7519999 98.683998 7.5170002L98.683998 22.292C98.704002 22.577 98.596001 22.857 98.389999 23.052C98.183998 23.247999 97.901001 23.339001 97.621002 23.301001L95.225998 23.301001ZM60.047001 26.659L60.047001 23.410999L61.245998 23.410999C61.542 23.410999 62.042 23.281 62.042 22.406L62.042 7.4029999C62.042 5.6420002 61.183998 5.2729998 60.463001 5.2729998L58.596001 5.2729998L57.533001 26.431L52.487999 26.431L53.953999 5.277L51.543999 5.277L51.543999 1.6950001L53.938999 1.6950001L53.938999 0.016000001L58.596001 0.016000001L58.596001 1.6950001L62.584999 1.6950001C65.271004 1.6950001 66.579002 2.829 66.579002 5.1630001L66.579002 24.195C66.579002 25.855 65.577003 26.659 63.516998 26.659L60.047001 26.659ZM150.15199 24.195L150.15199 26.659L158.409 26.667C160.377 26.667 161.336 25.823 161.336 24.093L161.336 21.966999L171.026 21.966999C172.842 21.966999 173.688 21.288 173.688 19.837L173.688 18.832001L162.64301 18.832001L162.53101 18.403999L172.233 14.548L172.233 13.795L174.064 13.795L170.603 7.9720001L173.56 7.9720001L173.56 5.171L160.793 5.171L160.793 3.0450001L170.10699 3.0450001C171.923 3.0450001 172.76801 2.4749999 172.76801 1.255L172.76801 0.024L143.767 0.024L143.767 3.0450001L152.94501 3.0450001C154.97501 3.0450001 156.008 3.4960001 156.008 4.3899999L156.008 5.1750002L143.23599 5.1750002L143.23599 7.9759998L145.77 7.9759998L142.70799 13.908L144.83099 13.908L144.83099 15.685L160.416 15.685L160.521 16.113001L156.28999 17.622999L156.28999 18.82L142.968 18.82L142.968 21.959L156.27901 21.959L156.27901 23.264999C156.35001 23.507999 156.287 23.768999 156.116 23.952C155.899 24.132999 155.62 24.221001 155.34 24.195L150.15199 24.195ZM111.906 26.659L111.906 20.162001L106.981 21.951L106.981 18.075001L111.906 16.282L111.906 10.538L108.747 10.538C107.218 10.185 106.597 8.9689999 106.849 6.8660002L106.849 1.021L109.911 1.021L109.911 6.9559999L111.906 6.9559999L111.906 0.126L116.427 0.126L116.427 6.9559999L118.026 6.9559999L118.026 10.538L116.427 10.538L116.427 14.96L118.026 14.175L118.026 18.125999L116.427 18.797001L116.427 26.643L111.906 26.659ZM129.862 26.436001L129.862 23.410999L131.453 23.410999C132.29201 23.410999 133.32001 23.105 133.44901 21.636999L133.44901 17.792L133.013 18.091C129.05499 20.806999 124.935 23.274 120.677 25.478001L120.677 20.853001C125.214 18.559 129.481 15.753 133.394 12.488L133.47099 12.422L133.47099 9L133.021 9.3690004C129.20799 12.436 125.023 14.998 120.568 16.992001L120.568 12.468C123.73 11.115 127.371 8.8620005 131.38699 5.7789998L131.896 5.3870001L122.679 5.3870001C121.565 5.3870001 120.739 5.1589999 120.211 4.6999998C119.683 4.2410002 119.454 3.563 119.485 2.6440001L120.983 0.126L126.54 0.126L125.609 2.029L134.787 2.029C137.11501 2.099 138.28 3.237 138.377 5.5089998L138.377 22.962999C138.377 25.316999 137.422 26.436001 135.45 26.436001L129.862 26.436001ZM82.322998 6.0619998L82.322998 20.186001L85.015999 20.186001L85.015999 3.4879999C85.015999 1.377 83.754997 0.34999999 81.157997 0.34999999L75.57 0.34999999C72.695 0.34999999 71.302002 1.522 71.302002 3.9319999L71.302002 20.186001L73.944 20.186001L73.944 3.7079999L79.795998 3.7079999C80.948997 3.7079999 82.322998 4.0999999 82.322998 6.0619998ZM11.414 26.462999C8.6459999 26.462999 7.296 25.399 7.296 23.205999L7.296 0.63599998L12.213 0.63599998L12.213 22.084999C12.213 22.32 12.317 22.868999 13.276 22.868999L24.165001 22.868999L24.165001 24.327999C24.165001 25.784 23.365999 26.462999 21.643 26.462999L11.414 26.462999ZM35.598 4.0450001L35.598 0.68699998L49.696999 0.68699998L49.696999 4.0450001L35.598 4.0450001ZM20.847 12.802C21.181 12.82 21.502001 12.944 21.764 13.155C22.058001 13.43 22.403 14.053 22.073999 15.109C21.577 16.712999 19.947001 16.921 19.035 16.870001C16.622 16.584 15.208 14.967 14.731 11.947L13.955 1.3099999L18.743999 1.3099999L19.52 10.534C19.59 11.892 19.974001 12.637 20.847 12.802ZM0.77600002 2.77L0 26.462999L3.0769999 26.462999C4.0089998 26.462999 4.6220002 26.118 4.9400001 25.410999L5.7160001 2.77L0.77600002 2.77ZM25.073999 2.994L29.754 2.994L30.666 26.353001L26.017 26.353001L25.073999 2.994ZM78.5 22.43L81.151001 26.659L85.661003 26.659L82.306999 20.186001L82.306999 20.409L80.313004 20.409L80.313004 6.2859998L75.924004 6.2859998L75.924004 18.886999C75.146004 20.969 73.320999 22.468 71.146004 22.811001L71.146004 26.646999C73.777 26.499001 76.164001 25.18 78.248001 22.724001L78.5 22.43ZM168.131 12.664L160.79601 12.664L160.79601 7.9569998L165.48399 7.9569998L168.131 12.664ZM156.008 12.664L148.54401 12.664L151.04401 7.9650002L153.213 7.9650002C155.522 7.9650002 156.008 9.1219997 156.008 10.091L156.008 12.664ZM47.09 26.325001L46.608002 24.572001L46.266998 24.964001C45.525002 25.799999 44.299 26.219 42.618 26.219L37.845001 26.219C35.904999 26.219 34.926998 25.207001 34.915001 23.124001L39.421001 12.673L35.051998 12.673L35.051998 9.3140001L50.481998 9.3140001L50.481998 12.673L44.438999 12.673L40.126999 22.971001L44.097 22.971001C44.896999 22.971001 45.359001 22.849001 45.549 22.579C45.673 22.402 45.673 22.163 45.549 21.986L44.443001 18.483L48.956001 18.483L51.727001 26.33L47.09 26.325001ZM88.233002 16.108999C87.754997 15.862 87.370003 15.464 87.135002 14.975L87.135002 14.999C86.501999 13.742 86.967003 12.204 88.186996 11.519C88.871002 11.115 89.706001 11.064 90.433998 11.382C90.685997 11.484 90.922997 11.629 91.167 11.754C91.185997 11.762 91.197998 11.782 91.224998 11.805C91.294998 11.656 91.322998 11.59 91.415001 11.413C91.508003 11.236 91.594002 11.056 91.702003 10.888C91.929001 10.54 92.240997 10.257 92.607002 10.068C93.098999 9.79 93.669998 9.6899996 94.224998 9.7849998C95.046997 9.9020004 95.760002 10.415 96.138 11.162C96.335999 11.538 96.439003 11.956 96.441002 12.382C96.433998 12.662 96.387001 12.939 96.302002 13.206C96.231003 13.406 96.141998 13.599 96.037003 13.783L93.480003 18.856001L88.233002 16.108999Z" fill-rule="evenodd" transform="translate(0.602, 2.07)" fill="#ffffff"></path></g></svg>