<svg xmlns="http://www.w3.org/2000/svg" version="1.1" xmlns:xlink="http://www.w3.org/1999/xlink" fill="none" width="134" height="30" viewBox="0 0 134 30"><path d="M0 0L4.0440001 0L4.0440001 25.999001L0 25.999001L0 0Z" transform="translate(87.132, 2)" fill="#ffffff"></path><path d="M5.382 3.9000001L4.335 0L0 0L1.045 3.9000001L5.382 3.9000001Z" transform="translate(73.229, 2)" fill="#ffffff"></path><path d="M12.71 2.744L12.71 0L1.01 0L1.01 2.744L7.4549999 2.744L0 12.639L5.2449999 12.639L5.9229999 11.741L5.9229999 21.233L9.9659996 21.233L9.9659996 6.381L12.71 2.744Z" transform="translate(68.789, 6.766)" fill="#ffffff"></path><path d="M6.427 0L3.1700001 0L0 4.2049999L0.0020000001 4.2080002L0 4.2080002L3.359 8.6660004L6.6160002 8.6660004L3.257 4.2080002L6.427 0Z" transform="translate(78.917, 11.39)" fill="#ffffff"></path><path d="M4.395 0L0 0L2.885 10.546L7.2199998 10.546L4.395 0Z" transform="translate(92.47800000000001, 9.51)" fill="#ffffff"></path><path d="M15.276 7.5120001L15.276 4.7690001L8.8100004 4.7690001L8.8100004 0L4.7670002 0L4.7670002 11.846L0 11.846L0 25.999001L14.589 25.999001L14.589 11.846L8.8120003 11.846L8.8120003 7.5120001L15.278 7.5120001L15.276 7.5120001ZM10.543 23.256001L4.0440001 23.256001L4.0440001 14.589L10.543 14.589L10.543 23.256001Z" transform="translate(117.645, 2)" fill="#ffffff"></path><path d="M2.744 2.744L10.4 2.744L10.4 16.754L13.143 16.754L13.143 2.744L13.143 0L10.4 0L2.744 0L0 0L0 2.744L0 16.754L2.744 16.754L2.744 2.744Z" transform="translate(103.056, 3.158)" fill="#ffffff"></path><path d="M8.7370005 10.489L8.7370005 10.411C8.7370005 10.322 8.7370005 10.256 8.7370005 10.215L8.7370005 0L5.994 0L5.994 10.258C5.994 10.302 5.994 10.359 5.994 10.434C5.9640002 11.262 5.533 15.298 0 18.188L0 21.23C4.0050001 19.466999 6.1760001 17.132 7.355 15.061C8.5200005 17.129999 10.676 19.465 14.662 21.23L14.662 18.183001C9.2209997 15.319 8.7709999 11.344 8.7390003 10.489L8.7370005 10.489Z" transform="translate(102.262, 6.768)" fill="#ffffff"></path><path d="M5.348 22.099001L19.933001 2.744L19.933001 0L2.1670001 0L2.1670001 2.744L14.867 2.744L0 22.476L0 23.657L0 24.843L21.087 24.843L21.087 22.099001L5.348 22.099001Z" transform="translate(44.379000000000005, 3.1559999999999997)" fill="#ffffff"></path><path d="M0 22.829L4.0440001 22.829L4.0440001 0L0 3.161L0 22.829Z" transform="translate(38.023, 5.17)" fill="#ffffff"></path><path d="M17.834999 0L13.647 0L0 0L0 2.744L12.911 2.744L12.099 5.777L9.4899998 5.777L11.636 8.5200005L22.695 8.5200005L26.207001 5.777L16.285999 5.777L17.098 2.744L30.622 2.744L30.622 0L17.834999 0Z" transform="translate(1.191, 3.1559999999999997)" fill="#ffffff"></path><path d="M22.136 15.798L4.0799999 15.798L4.0799999 5.177L0.112 0.097999997L0.035999998 0L0.035999998 15.798L0 15.798L0 18.542L0.035999998 18.542L4.0799999 18.542L22.136 18.542L26.289 18.542L26.325001 18.542L26.325001 5.3889999L22.136 8.6619997L22.136 15.798Z" transform="translate(3.3579999999999997, 9.458)" fill="#ffffff"></path><path d="M32.171001 0L12.578 15.305L5.1339998 5.777L0 5.777L11.88 20.982L11.882 20.982L38.738998 0L32.171001 0Z" transform="translate(4.265, 3.1559999999999997)" fill="#ffffff"></path></svg>