<svg viewBox="0 0 19 11" fill="none" xmlns="http://www.w3.org/2000/svg">
<g>
<path fill-rule="evenodd" clip-rule="evenodd" d="M15.2988 10.3728C14.7101 10.3692 14.1922 10.2262 13.7027 9.99057C13.4 9.84482 13.1288 9.65874 12.8998 9.42774C12.6718 9.19949 12.4703 8.95291 12.3318 8.66966C12.2463 8.49549 12.1598 8.32316 12.1047 8.13891C12.0487 7.94824 12.0114 7.75758 12.0202 7.55866C12.0242 7.47982 12.0163 7.40007 12.0084 7.32124C11.9996 7.24149 12.0055 7.16266 12.0202 7.08383C12.0487 6.93349 12.0723 6.78224 12.0998 6.63191C12.1087 6.58333 12.1175 6.53474 12.1323 6.48799C12.2315 6.17266 12.377 5.87657 12.5804 5.60524C12.6846 5.46683 12.7917 5.33299 12.9136 5.20833C12.9774 5.14324 13.0462 5.08549 13.1219 5.03324C13.2575 4.93974 13.3882 4.84074 13.5209 4.74358C13.5416 4.72891 13.5435 4.69499 13.5249 4.67758C13.4914 4.64733 13.459 4.61524 13.4236 4.58591C13.2202 4.41266 13.0521 4.21191 12.9057 3.99741C12.8811 3.96074 12.8595 3.92224 12.8379 3.88374C12.7622 3.74074 12.6993 3.59132 12.6472 3.43916C12.6128 3.34016 12.5843 3.23841 12.5725 3.13482C12.5588 3.01382 12.5421 2.89191 12.5283 2.76999C12.5244 2.73974 12.5244 2.70766 12.5264 2.67741C12.5391 2.45741 12.5696 2.23924 12.6472 2.02749C12.6964 1.89457 12.7435 1.75982 12.8015 1.62874C12.9106 1.38124 13.0629 1.15757 13.2683 0.962325C13.344 0.891742 13.4148 0.815658 13.4963 0.750575C13.5828 0.679992 13.6772 0.618575 13.7725 0.558992C14.1872 0.294992 14.6413 0.117158 15.1454 0.0493249C15.1651 0.0465749 15.1848 0.0429083 15.2064 0.0401583C15.625 -0.0359251 16.0378 0.00165828 16.4437 0.106158C16.7199 0.177658 16.9852 0.277575 17.2279 0.417825C17.6505 0.660742 17.9837 0.979742 18.2147 1.37941C18.3247 1.56916 18.3975 1.77449 18.4407 1.98716C18.4515 2.04032 18.4603 2.09532 18.4731 2.14941C18.4938 2.24566 18.5065 2.34282 18.4987 2.44091C18.4967 2.47116 18.4977 2.50232 18.4987 2.53257C18.5095 2.74341 18.4741 2.94874 18.4161 3.15132C18.2726 3.66191 17.9925 4.10466 17.5759 4.47866C17.5572 4.49608 17.5385 4.51441 17.5198 4.53274C17.4972 4.55566 17.5012 4.59416 17.5297 4.61432C17.5503 4.62991 17.5719 4.64457 17.5945 4.65832C17.7606 4.75641 17.9051 4.87832 18.0515 4.99841C18.0761 5.01949 18.1016 5.04058 18.1223 5.06349C18.2078 5.15882 18.2952 5.25324 18.3739 5.35316C18.7021 5.76382 18.8967 6.22216 18.9724 6.72266C18.993 6.86291 19.0078 7.00132 18.996 7.14341C18.9891 7.21674 18.991 7.29099 18.9891 7.36433C18.9832 7.71724 18.8928 8.05366 18.7483 8.38274C18.6127 8.68982 18.4073 8.95291 18.1636 9.19857C18.0446 9.31866 17.9188 9.42957 17.7744 9.52491C17.7262 9.55791 17.68 9.59641 17.6348 9.63216C17.341 9.87049 17.0029 10.0392 16.6334 10.1657C16.3631 10.2582 16.083 10.3123 15.801 10.3609C15.68 10.382 15.559 10.3808 15.438 10.3797C15.4224 10.3795 15.4068 10.3793 15.3911 10.3792C15.3499 10.3792 15.3086 10.3765 15.2978 10.3765L15.2988 10.3728ZM10.8556 2.69207C10.8566 2.72232 10.8556 2.75257 10.8605 2.78282L10.8625 2.78557C10.8879 2.92695 10.8864 3.06952 10.8849 3.2128C10.8845 3.24696 10.8841 3.28117 10.8841 3.31541C10.8743 5.39074 10.8645 7.46607 10.8537 9.54141C10.8527 9.69449 10.8478 9.84574 10.8203 9.99791C10.7829 10.2023 10.7642 10.4086 10.718 10.613C10.7151 10.6267 10.7013 10.6313 10.6876 10.6267C10.6827 10.624 10.6768 10.6176 10.6768 10.613C10.6738 10.4727 10.6738 10.3316 10.6738 10.1858C10.6477 10.1976 10.6477 10.2141 10.6477 10.2297C10.6477 10.2335 10.6477 10.2372 10.6473 10.2408C10.6424 10.2949 10.6424 10.3499 10.6355 10.4049C10.6325 10.4278 10.6168 10.4489 10.605 10.4718C10.6031 10.4746 10.5942 10.4773 10.5873 10.4773C10.5824 10.4773 10.5716 10.4727 10.5716 10.4691C10.5637 10.4342 10.5559 10.3994 10.549 10.3618C10.5146 10.3884 10.5274 10.4269 10.5146 10.4572C10.5028 10.4856 10.4979 10.5167 10.4851 10.5452C10.4753 10.5662 10.4586 10.5855 10.4409 10.6047C10.436 10.6093 10.4104 10.6075 10.4065 10.6029C10.3898 10.5791 10.38 10.5516 10.3623 10.5167C10.3387 10.5562 10.322 10.5892 10.3013 10.6194C10.2989 10.623 10.2967 10.6271 10.2943 10.6313C10.2844 10.6493 10.2734 10.669 10.2463 10.6616C10.2335 10.6579 10.2306 10.6304 10.2208 10.6148C10.2149 10.6047 10.205 10.5901 10.1952 10.5901C10.1872 10.5894 10.1786 10.5953 10.1703 10.601C10.1674 10.603 10.1646 10.6049 10.1618 10.6066C10.1569 10.6102 10.1549 10.6176 10.152 10.6222C10.148 10.6277 10.1471 10.635 10.1421 10.6387C10.1274 10.6497 10.1136 10.6671 10.0969 10.6698C10.0763 10.6735 10.0625 10.6542 10.0557 10.6368C10.0399 10.5919 10.0262 10.5452 10.0085 10.4938C9.96131 10.5424 9.9672 10.6011 9.9387 10.6487C9.93575 10.6533 9.92494 10.6579 9.92298 10.6579C9.91315 10.6515 9.90234 10.6432 9.89841 10.6332C9.89055 10.6185 9.88858 10.6002 9.8817 10.5708C9.87089 10.6093 9.86598 10.6368 9.85615 10.6625C9.85222 10.6717 9.83748 10.6827 9.82568 10.6827C9.81487 10.6827 9.79718 10.6744 9.79227 10.6662C9.77851 10.6387 9.76672 10.6102 9.75689 10.5809C9.7392 10.5305 9.7333 10.4773 9.7166 10.4232C9.67335 10.4443 9.66844 10.4773 9.65173 10.5021C9.63306 10.5534 9.6134 10.6047 9.5908 10.6643C9.57901 10.6414 9.57016 10.6267 9.56525 10.6112C9.55769 10.5861 9.55377 10.573 9.54541 10.5697C9.53636 10.5661 9.52214 10.5739 9.49252 10.5901C9.47188 10.6029 9.45026 10.5983 9.44338 10.58C9.43159 10.5516 9.42176 10.5232 9.41193 10.4938C9.40407 10.4718 9.40899 10.4443 9.38638 10.4269C9.37656 10.4342 9.36673 10.4407 9.3569 10.4471C9.33528 10.4599 9.31071 10.4562 9.30579 10.4407C9.29793 10.4177 9.28614 10.3948 9.28319 10.371C9.26452 10.2628 9.24781 10.1537 9.23012 10.0456C9.22914 10.041 9.22029 10.0373 9.21538 10.0337C9.19839 10.0581 9.19976 10.0844 9.20112 10.1106C9.20164 10.1208 9.20217 10.1309 9.20162 10.1409C9.2012 10.1566 9.20132 10.1725 9.20144 10.1884C9.2016 10.2095 9.20176 10.2305 9.20064 10.2509C9.19671 10.2995 9.18983 10.3481 9.18295 10.3957C9.18098 10.4086 9.16526 10.4132 9.15052 10.4086C9.1456 10.4058 9.13676 10.4012 9.13676 10.3967C9.1289 10.3609 9.12005 10.3252 9.11808 10.2894C9.11121 10.217 9.11022 10.1437 9.10531 10.0712C9.10531 10.0667 9.09646 10.0593 9.09352 10.0593C9.08172 10.063 9.06403 10.0667 9.06108 10.0749C9.04339 10.1198 9.02865 10.1657 9.01293 10.2124C9.01096 10.217 9.00015 10.2216 8.99622 10.2216C8.98541 10.217 8.96772 10.2115 8.96477 10.2042C8.95789 10.1693 8.94905 10.1327 8.94905 10.0969C8.94708 10.0172 8.93922 9.93924 8.91662 9.86132C8.88517 9.75408 8.87337 9.64499 8.87337 9.53499C8.87632 8.86216 8.87632 8.19207 8.87632 7.52016L8.87633 7.50341C8.87637 7.38066 8.87641 7.25795 8.85667 7.13608C8.84722 7.08393 8.84786 7.02884 8.84849 6.97505C8.84865 6.96171 8.8488 6.94844 8.8488 6.93532C8.84979 6.53841 8.85273 6.14149 8.85372 5.74549C8.85765 4.76833 8.85961 3.79207 8.86256 2.81582C8.86256 2.76082 8.85765 2.70582 8.85273 2.65083C8.85077 2.63066 8.80949 2.61141 8.78787 2.62058C8.76822 2.62791 8.74856 2.63524 8.73087 2.64441C8.67092 2.67557 8.60999 2.69941 8.5412 2.71316C8.48125 2.72507 8.42424 2.74799 8.36626 2.76632C8.33874 2.77641 8.31417 2.75624 8.31909 2.72691C8.32204 2.71499 8.32793 2.70399 8.33186 2.69299C8.22572 2.71408 8.12646 2.75257 8.0331 2.80299C8.00263 2.81766 7.97413 2.83324 7.94465 2.84882C7.86406 2.88732 7.78446 2.91482 7.69011 2.89007C7.63606 2.87541 7.58397 2.89191 7.53385 2.91482C7.4739 2.94324 7.411 2.96616 7.35007 2.99182C7.34516 2.98632 7.34024 2.98174 7.33533 2.97716C7.39626 2.90474 7.45523 2.83049 7.53287 2.77366C7.52599 2.75532 7.51616 2.75166 7.49847 2.75532C7.45916 2.76174 7.41887 2.76907 7.37857 2.77641C7.37366 2.77641 7.36285 2.77274 7.36285 2.76907C7.3599 2.75899 7.35597 2.74249 7.36285 2.73791C7.37955 2.72324 7.39921 2.71224 7.41592 2.70032C7.42034 2.69785 7.44941 2.67683 7.45234 2.67464C7.45524 2.6737 7.45623 2.67098 7.45916 2.67007C7.51911 2.63066 7.58495 2.59674 7.63311 2.54266C7.57906 2.55457 7.52402 2.56741 7.46899 2.57932V2.54357C7.4454 2.55458 7.42083 2.56466 7.39724 2.57566C7.39135 2.57932 7.38545 2.58391 7.37857 2.58666C7.3658 2.59766 7.35498 2.60774 7.34417 2.61599C7.26162 2.64441 7.17907 2.67191 7.09651 2.70032C7.09062 2.70216 7.08079 2.70032 7.07686 2.69666C7.06703 2.68841 7.06703 2.67557 7.07981 2.66732C7.15253 2.62241 7.20659 2.55549 7.29209 2.52616C7.34024 2.50966 7.36383 2.47116 7.38545 2.43449C7.3314 2.45833 7.27636 2.48124 7.22526 2.50874C7.1545 2.54541 7.08767 2.58574 7.01888 2.62516C6.96679 2.65449 6.91372 2.68199 6.85082 2.68749C6.87834 2.66274 6.90487 2.63799 6.93239 2.61416C6.95794 2.58941 6.98546 2.56649 7.012 2.54266C6.95991 2.55641 6.9088 2.56924 6.85573 2.58391L6.84296 2.57107C6.85082 2.56099 6.85967 2.55183 6.86556 2.54174C6.89308 2.50049 6.91175 2.45374 6.94713 2.41982C6.99234 2.37674 7.04934 2.34466 7.10241 2.30708C7.15941 2.26582 7.22329 2.23374 7.2626 2.17599C7.15843 2.20808 7.06998 2.26491 6.97563 2.31257C6.90979 2.34649 6.84689 2.38407 6.77318 2.40058L6.76335 2.39141C6.74665 2.39783 6.73092 2.40241 6.71323 2.40516C6.7378 2.36849 6.77416 2.34557 6.81937 2.33366C6.82723 2.32724 6.83411 2.31991 6.84296 2.31257C6.89799 2.26949 6.96384 2.23557 7.01003 2.18699C7.04934 2.14391 7.05622 2.07882 7.0975 2.03207C7.03067 2.04582 6.9717 2.07882 6.91372 2.10724C6.87048 2.12832 6.82723 2.14574 6.78301 2.16224C6.77454 2.16575 6.76066 2.15749 6.75 2.15115L6.74861 2.15032C6.74665 2.15032 6.7496 2.13749 6.75353 2.13474C6.7781 2.11458 6.80561 2.09441 6.83215 2.07607C6.94124 2.00182 7.04836 1.92574 7.15646 1.84966C7.19381 1.82307 7.23017 1.79466 7.2685 1.76899C7.67537 1.49857 8.08322 1.22816 8.49009 0.956825C8.61589 0.873408 8.7466 0.793658 8.88418 0.723992C8.93725 0.697408 8.98639 0.663492 9.0375 0.633242C9.30678 0.469158 9.59964 0.412325 9.91806 0.476492C9.98587 0.489325 10.0517 0.504908 10.1176 0.523242C10.3662 0.595658 10.5411 0.740492 10.6355 0.959575C10.666 1.03291 10.6935 1.10899 10.719 1.18507C10.7456 1.26024 10.7652 1.33724 10.7878 1.41424C10.7967 1.44357 10.8075 1.47291 10.8094 1.50316C10.8124 1.57535 10.8202 1.64721 10.8281 1.71916C10.8388 1.81714 10.8495 1.91529 10.8478 2.01466C10.8455 2.18786 10.849 2.36107 10.8526 2.53469C10.8537 2.58711 10.8547 2.63957 10.8556 2.69207ZM4.64252 1.10991C4.5698 1.15482 4.49904 1.20524 4.40862 1.22082V1.21716C4.42337 1.20524 4.43712 1.19149 4.45383 1.17957C4.56685 1.09707 4.65825 1.00816 4.72901 0.912825C4.73294 0.907325 4.73687 0.901825 4.73687 0.896325C4.73785 0.889908 4.73884 0.880742 4.73491 0.878908C4.73381 0.878193 4.73266 0.877431 4.73148 0.876645C4.72206 0.870379 4.71022 0.86251 4.70149 0.863325C4.61108 0.878908 4.53933 0.925658 4.46268 0.965992C4.38504 1.00724 4.31133 1.05399 4.22976 1.08241C4.13246 1.11816 4.04303 1.16307 3.96343 1.22082C3.79537 1.33816 3.62928 1.45641 3.46909 1.58107C3.20178 1.79191 2.96394 2.03024 2.72906 2.26949C2.63373 2.36574 2.54233 2.46566 2.447 2.56191C2.15414 2.86349 1.88289 3.17882 1.6254 3.50332C1.59789 3.53816 1.57233 3.57482 1.54973 3.61332C1.46128 3.76641 1.363 3.91308 1.26964 4.06249C1.1065 4.32466 0.94434 4.58774 0.796924 4.85724C0.607248 5.20374 0.435262 5.55666 0.299639 5.92332C0.159102 6.30282 0.0598421 6.68874 0.0362555 7.08841C0.0323244 7.13791 0.025445 7.18649 0.0175828 7.23416C-0.00600383 7.37441 -0.00698661 7.51466 0.0215139 7.65491C0.0844115 7.96108 0.163034 8.26449 0.261311 8.56332C0.32814 8.76316 0.414624 8.95566 0.519781 9.14082C0.727147 9.50841 0.984634 9.84299 1.30993 10.1372C1.55268 10.3563 1.82786 10.536 2.1335 10.6772C2.29074 10.7505 2.45388 10.8165 2.6298 10.8477C2.67009 10.855 2.70941 10.8651 2.7497 10.8733C2.96984 10.9173 3.18998 10.9586 3.41504 10.9833C3.63518 11.0072 3.85237 11.0017 4.07055 10.9879C4.34573 10.9705 4.61599 10.9357 4.87937 10.8605C4.97077 10.8348 5.06217 10.8073 5.15357 10.7798C5.22531 10.7587 5.29214 10.7303 5.35799 10.6964C5.43562 10.6579 5.51719 10.624 5.59975 10.5937C5.66363 10.5699 5.72653 10.5452 5.78254 10.5103C5.96731 10.3948 6.1501 10.2757 6.29359 10.1162C6.31521 10.0932 6.33781 10.0694 6.3614 10.0474C6.56287 9.86316 6.72797 9.65233 6.88718 9.43691C7.01298 9.26824 7.11617 9.08857 7.18693 8.89607C7.27833 8.65133 7.34024 8.40016 7.35892 8.14258C7.36088 8.10499 7.36383 8.06832 7.37267 8.03258C7.40118 7.91799 7.40019 7.80157 7.40511 7.68608C7.40892 7.58583 7.39854 7.48668 7.38819 7.38779C7.38519 7.35917 7.3822 7.33058 7.37955 7.30199C7.36973 7.18557 7.34614 7.07282 7.31961 6.95824C7.2685 6.73549 7.17612 6.52557 7.07588 6.31749C6.9432 6.04249 6.79185 5.77666 6.58154 5.53924C6.49702 5.44391 6.40562 5.35316 6.30047 5.27341C6.1904 5.19091 6.08032 5.10932 5.96534 5.03232C5.87198 4.96999 5.77566 4.91041 5.67444 4.85999C5.21843 4.63541 4.72999 4.50891 4.20322 4.50891C3.87793 4.50891 3.56344 4.54924 3.25288 4.63541C3.16148 4.66107 3.07008 4.68766 2.97869 4.71332C2.96788 4.71699 2.95019 4.71424 2.94134 4.70782C2.93348 4.70141 2.92856 4.68582 2.93151 4.67574C2.9836 4.51166 3.03372 4.34574 3.11136 4.18808C3.30202 3.80674 3.52216 3.44099 3.76687 3.08624C3.95851 2.80941 4.17571 2.54907 4.40076 2.29516C4.48233 2.20257 4.56489 2.11274 4.65923 2.03207C4.73884 1.96332 4.80567 1.88632 4.85579 1.79832C4.87937 1.75432 4.91181 1.71399 4.94424 1.67549C4.99043 1.62141 5.04055 1.57191 5.08772 1.51874C5.1005 1.50499 5.11229 1.48849 5.1172 1.47107C5.11917 1.46282 5.10934 1.44999 5.10148 1.44082C5.09952 1.43716 5.08772 1.43532 5.08281 1.43716C5.05922 1.44816 5.03269 1.45641 5.01303 1.47107C4.94522 1.52241 4.87937 1.57649 4.81254 1.62874C4.79485 1.59757 4.77618 1.56549 4.75554 1.52882C4.78306 1.49582 4.81156 1.46191 4.84203 1.42891C4.8892 1.37757 4.93932 1.32624 4.98944 1.27674C5.01794 1.24741 5.02777 1.21257 5.0317 1.17499C5.03563 1.14107 5.00124 1.11266 4.96881 1.12549C4.92556 1.14382 4.8833 1.16307 4.84006 1.18232C4.81648 1.19241 4.78994 1.18874 4.78404 1.17591C4.77422 1.15666 4.78306 1.14107 4.79485 1.12549C4.80763 1.11174 4.82041 1.09799 4.83318 1.08241C4.83613 1.07782 4.83908 1.07232 4.83908 1.06682C4.83908 1.06041 4.83908 1.05216 4.83515 1.04849C4.82532 1.04207 4.81254 1.03291 4.80272 1.03291C4.73884 1.03932 4.69265 1.07782 4.64252 1.10991ZM15.4078 3.92866C15.6978 3.94699 15.9631 3.87458 16.2137 3.74991C16.5439 3.58399 16.7543 3.32366 16.9213 3.03032C16.9282 3.01932 16.9331 3.00741 16.9361 2.99641C16.9882 2.84332 17.0225 2.68657 17.0078 2.52616C16.9891 2.32999 16.94 2.14024 16.8348 1.96516C16.6678 1.68466 16.4221 1.48391 16.0899 1.36749C15.9268 1.31066 15.7577 1.29874 15.5877 1.29141C15.4137 1.28316 15.2467 1.30882 15.0855 1.36291C14.5892 1.52607 14.2609 1.83041 14.1076 2.28599C14.0605 2.42807 14.0497 2.57474 14.0546 2.72049C14.0654 3.03949 14.1931 3.31907 14.4418 3.54549C14.7061 3.78474 15.0246 3.92499 15.4078 3.92958V3.92866ZM7.22526 1.95782L7.26457 1.92207C7.27833 1.90924 7.29209 1.89732 7.30585 1.88357H7.30486L7.26359 1.92116C7.25081 1.93216 7.23705 1.94499 7.22329 1.95691C7.20364 1.96516 7.18398 1.97432 7.16334 1.98349C7.18398 1.97616 7.20462 1.96791 7.22526 1.95782ZM17.2977 7.22866C17.3007 7.17366 17.3046 7.11958 17.3046 7.06457C17.3046 7.03432 17.3017 7.00224 17.2967 6.97291C17.228 6.54024 16.999 6.19007 16.6147 5.92332C16.2963 5.70149 15.9258 5.60799 15.5258 5.60341C15.4914 5.60341 15.457 5.60524 15.4226 5.60799C15.0698 5.64649 14.7464 5.75282 14.4585 5.94532C14.1597 6.14607 13.9445 6.40366 13.8099 6.71166C13.689 6.99124 13.6565 7.28091 13.7175 7.57791C13.801 7.98674 14.0192 8.32041 14.4015 8.56241C14.8398 8.83741 15.3243 8.91807 15.8442 8.81174C15.9828 8.78424 16.1194 8.73933 16.256 8.69624C16.5007 8.61833 16.6992 8.47991 16.8574 8.29657C16.9557 8.18474 17.0324 8.06374 17.1012 7.93541C17.2221 7.71174 17.2977 7.47891 17.2977 7.22866ZM5.2075 7.79596C5.20674 7.81628 5.20598 7.83653 5.20565 7.85657L5.20467 7.85291C5.21941 8.11966 5.13096 8.36166 4.96291 8.57891C4.7693 8.82916 4.50494 8.99782 4.16981 9.06932C4.10986 9.08216 4.04893 9.08949 3.98701 9.09499C3.93984 9.10049 3.8907 9.09774 3.84353 9.10049C3.48285 9.11791 3.17229 9.00241 2.89515 8.80807C2.80867 8.74849 2.73004 8.68158 2.64749 8.61741C2.46568 8.47624 2.36249 8.29199 2.28976 8.09216C2.1905 7.81716 2.1905 7.53941 2.28583 7.26257C2.38509 6.97566 2.58263 6.75474 2.87549 6.60532C2.98753 6.54849 3.09858 6.48707 3.22733 6.45774C3.30792 6.43849 3.38752 6.42107 3.47007 6.42107H3.69709C3.89955 6.41924 4.08726 6.47241 4.27005 6.54666C4.60027 6.68049 4.84203 6.89774 5.01794 7.17549C5.06217 7.24424 5.09952 7.31666 5.13686 7.38816C5.18403 7.47799 5.20271 7.57516 5.2086 7.67324C5.21057 7.71369 5.20903 7.75497 5.2075 7.79596ZM10.5707 10.0762C10.568 10.0856 10.5651 10.0957 10.5834 10.0997C10.5834 10.0997 10.5873 10.0896 10.5873 10.085C10.5864 10.0749 10.5834 10.0657 10.5814 10.0547C10.5785 10.0584 10.5726 10.063 10.5726 10.0657C10.5729 10.0688 10.5718 10.0725 10.5707 10.0762ZM5.86324 10.799L5.86411 10.7982H5.8651L5.86324 10.799ZM5.86324 10.799L5.86117 10.8009C5.86117 10.8009 5.86172 10.7999 5.86324 10.799Z" fill="currentColor"/>
</g>
</svg>
