<svg viewBox="0 0 30 14" fill="none" xmlns="http://www.w3.org/2000/svg">
<g>
<path fill-rule="evenodd" clip-rule="evenodd" d="M19.6255 2.422L18.8987 0.150182L18.8516 0H16.7211L17.9124 2.422H19.6255ZM24.9709 14V0H23.0644V14H24.9709ZM7.76236 2.29982H13.9962V0.710182H0V2.29982H5.572L5.19273 3.69473H1.25109V13.6984H12.7158V3.69473H7.20873L7.76236 2.29982ZM19.1622 6.55836H19.4104V14H17.5293V8.596C17.2658 8.90273 16.9947 9.21327 16.7173 9.52636L16.6524 9.59891H14.5855L14.8998 9.24127C16.5264 7.39073 17.7673 5.69036 18.6213 4.14018H15.3911V2.51745H20.9007V3.98364L20.8715 4.03455C20.412 4.816 19.8431 5.65727 19.1622 6.55836ZM29.1633 9.23364L27.3904 3.53055L27.3433 3.37909H25.2713L27.5036 9.23364H29.1633ZM20.9771 7.66691L22.3924 10.2455H20.5864L19.502 7.66309L20.5584 5.23345H22.3873L20.9771 7.66691ZM10.7762 7.73182V5.27036H3.18691V7.73182H10.7762ZM10.7762 9.282V12.1049H3.18691V9.282H10.7762Z" fill="currentColor"/>
</g>
</svg>
