<svg viewBox="0 0 57 11" fill="none" xmlns="http://www.w3.org/2000/svg">
<mask id="mask0_16_154" style="mask-type:luminance" maskUnits="userSpaceOnUse" x="0" y="0" width="57" height="11">
<path d="M56.2222 0H0V11H56.2222V0Z" fill="currentColor"/>
</mask>
<g mask="url(#mask0_16_154)">
<path d="M36.2786 0H37.9891V10.9994H36.2786V0Z" fill="currentColor"/>
<path d="M32.6737 1.65L32.2306 0H30.3967L30.8385 1.65H32.6737Z" fill="currentColor"/>
<path d="M33.8953 3.17722V2.01672H28.9453V3.17722H31.6721L28.5181 7.36395H30.7371L31.0237 6.98384V11.0001H32.7348V4.71661L33.8953 3.17722Z" fill="currentColor"/>
<path d="M35.5221 3.97278H34.1446L32.8032 5.75172L32.8044 5.75295H32.8032L34.2247 7.63944H35.6021L34.1813 5.75295L35.5221 3.97278Z" fill="currentColor"/>
<path d="M40.4 3.17712H38.5403L39.7607 7.63885H41.5953L40.4 3.17712Z" fill="currentColor"/>
<path d="M55.6502 3.17839V2.01728H52.9149V0H51.2044V5.01172H49.1877V10.9994H55.3599V5.01172H52.9161V3.17839H55.6514H55.6502ZM53.6482 9.83889H50.8982V6.17222H53.6482V9.83889Z" fill="currentColor"/>
<path d="M44.176 1.65061H47.4155V7.57839H48.576V1.65061V0.490112H47.4155H44.176H43.0155V1.65061V7.57839H44.176V1.65061Z" fill="currentColor"/>
<path d="M46.376 6.45461V6.42222C46.376 6.38433 46.376 6.35622 46.376 6.33911V2.01733H45.2149V6.35745C45.2149 6.37578 45.2149 6.39961 45.2149 6.43139C45.2027 6.78217 45.02 8.48961 42.6794 9.71245V10.9994C44.374 10.2533 45.2925 9.26572 45.7912 8.38939C46.2844 9.2645 47.1961 10.2527 48.8828 10.9994V9.71061C46.5801 8.49817 46.3901 6.81639 46.3766 6.45461H46.376Z" fill="currentColor"/>
<path d="M20.4539 9.8395L26.6243 1.65V0.489502H19.1076V1.65H24.4811L18.1909 9.99839V10.4983V11H27.1126V9.8395H20.4539Z" fill="currentColor"/>
<path d="M15.5014 10.9994H17.2119V1.34082L15.5014 2.67793V10.9994Z" fill="currentColor"/>
<path d="M7.46412 0.489502H5.69251H-0.0812683V1.65H5.38084L5.0374 2.93334H3.93373L4.84184 4.09445H9.52051L11.0061 2.93334H6.80901L7.15245 1.65H12.8743V0.489502H7.46412Z" fill="currentColor"/>
<path d="M10.2007 9.83887H2.56179V5.34537L0.882459 3.19671L0.850681 3.15515V9.83887H0.835403V10.9994H0.850681H2.56179H10.2007H11.9576H11.9729V5.43521L10.2007 6.81999V9.83887Z" fill="currentColor"/>
<path d="M14.8298 0.489502L6.54073 6.96484L3.39107 2.93334H1.21918L6.24495 9.3665H6.24618L17.6086 0.489502H14.8298Z" fill="currentColor"/>
</g>
</svg>
