<svg viewBox="0 0 20 11" fill="none" xmlns="http://www.w3.org/2000/svg">
<g>
<path fill-rule="evenodd" clip-rule="evenodd" d="M19.5785 10.9931H17.857C17.7267 10.9931 17.6222 10.8968 17.6222 10.7758V4.85372C17.6222 4.72103 17.5237 4.60622 17.3844 4.57322L15.5274 4.14009C15.3681 4.10228 15.3267 3.91047 15.4585 3.81972L17.3155 2.54647L19.2363 1.22991C19.4681 1.08072 19.8133 1.08966 19.8133 1.58809V10.7758C19.8133 10.8968 19.7089 10.9931 19.5785 10.9931ZM14.5667 10.9938H12.8444C12.7148 10.9938 12.6096 10.8962 12.6096 10.7765V3.68497C12.6096 3.55297 12.5126 3.43678 12.3733 3.40516L10.5378 2.97684C10.3785 2.93972 10.337 2.74791 10.4704 2.65647L12.2541 1.43959L14.2252 0.0845306C14.4563 -0.0646569 14.8015 -0.0564069 14.8015 0.442031V10.7765C14.8015 10.8962 14.697 10.9938 14.5667 10.9938ZM9.61036 2.97684L7.77555 3.40516C7.63703 3.43747 7.53851 3.55366 7.53851 3.68497V10.7765C7.53851 10.8962 7.43333 10.9938 7.3037 10.9938H5.58222C5.45185 10.9938 5.34666 10.8962 5.34666 10.7765V0.442031C5.34666 -0.0557194 5.69259 -0.0646569 5.92296 0.0845306L7.89481 1.43959L9.67851 2.65716C9.81185 2.74791 9.77036 2.93972 9.61036 2.97684ZM4.62073 4.14009L2.7637 4.57322C2.62444 4.60553 2.52666 4.72103 2.52666 4.85372V10.7765C2.52666 10.8962 2.42222 10.9938 2.2911 10.9938H0.569623C0.439994 10.9938 0.334808 10.8962 0.334808 10.7765V1.58741C0.334808 1.09034 0.680734 1.08072 0.911105 1.22991L2.83185 2.54716L4.68962 3.81903C4.82148 3.91047 4.78073 4.10228 4.62073 4.14009ZM9.41925 11C9.28888 11 9.18444 10.903 9.18444 10.7834V9.60709C9.18444 9.48747 9.28888 9.39053 9.41925 9.39053H10.7422C10.8726 9.39053 10.9778 9.48747 10.9778 9.60709V10.7834C10.9778 10.903 10.8726 11 10.7422 11H9.41925Z" fill="currentColor"/>
</g>
</svg>
