<svg viewBox="0 0 72 11" fill="none" xmlns="http://www.w3.org/2000/svg">
<g>
<path d="M35.923 6.175C36.019 6.376 36.178 6.54 36.374 6.642L38.539 7.783C38.539 7.783 39.528 5.822 39.592 5.689C39.636 5.615 39.673 5.535 39.701 5.453C39.737 5.343 39.757 5.228 39.76 5.112C39.761 4.931 39.719 4.753 39.635 4.594C39.558 4.442 39.446 4.311 39.309 4.212C39.171 4.114 39.012 4.05 38.845 4.026C38.616 3.989 38.382 4.03 38.179 4.143C38.028 4.222 37.9 4.339 37.806 4.483C37.761 4.55 37.726 4.625 37.688 4.698C37.649 4.77 37.638 4.798 37.609 4.859L37.585 4.838C37.485 4.787 37.385 4.728 37.281 4.685C37.079 4.602 36.857 4.583 36.644 4.631C36.431 4.679 36.238 4.792 36.09 4.954C35.943 5.116 35.848 5.32 35.818 5.539C35.788 5.757 35.824 5.978 35.923 6.175Z" fill="currentColor"/>
<path d="M24.76 10.994V9.654H25.253C25.376 9.654 25.582 9.601 25.582 9.238V3.054C25.582 2.326 25.227 2.174 24.931 2.174H24.16L23.72 10.9H21.64L22.24 2.176H21.246V0.699996H22.24V0.00799561H24.16V0.699996H25.805C26.912 0.699996 27.449 1.17 27.449 2.132V9.979C27.449 10.662 27.038 10.995 26.189 10.995L24.76 10.994ZM19.418 10.854L19.219 10.133L19.078 10.295C18.773 10.638 18.266 10.812 17.574 10.812H15.6C14.8 10.812 14.398 10.393 14.394 9.534L16.25 5.23H14.448V3.839H20.811V5.23H18.32L16.542 9.476H18.178C18.507 9.476 18.698 9.42599 18.778 9.314C18.803 9.279 18.817 9.237 18.817 9.193C18.817 9.149 18.803 9.107 18.778 9.07199L18.323 7.626H20.184L21.325 10.861L19.418 10.854ZM14.667 1.671V0.284996H20.48V1.671H14.667Z" fill="currentColor"/>
<path d="M33.456 10.994L32.361 9.248L32.259 9.369C31.4 10.382 30.416 10.926 29.331 10.987V9.405C29.771 9.335 30.186 9.149 30.532 8.865C30.878 8.581 31.143 8.209 31.301 7.787V2.591H33.12V8.415H33.942V8.326L35.312 11L33.456 10.994ZM39.259 10.947V9.607H40.246C40.303 9.615 40.361 9.61 40.416 9.592C40.47 9.575 40.521 9.545 40.563 9.505C40.605 9.466 40.637 9.417 40.658 9.363C40.68 9.309 40.688 9.251 40.685 9.193V3.099C40.685 2.373 40.222 2.221 39.835 2.221H37.385L37.353 2.268C36.873 2.954 36.226 3.503 35.473 3.861V1.618C35.929 1.276 36.221 0.734 36.339 0H38.134L37.92 0.838H40.909C41.905 0.838 42.39 1.291 42.39 2.223V9.931C42.39 10.615 42.03 10.947 41.293 10.947H39.259ZM33.939 8.316V2.493C33.939 1.684 33.373 1.522 32.896 1.522H30.483V8.308H29.385V1.623C29.385 0.628 29.96 0.146 31.145 0.146H33.44C34.51 0.146 35.03 0.568 35.03 1.44V8.318L33.939 8.316Z" fill="currentColor"/>
<path d="M46.136 10.994V8.31298L44.105 9.05198V7.45298L46.136 6.71498V4.34698H44.833C44.203 4.20098 43.947 3.69998 44.051 2.83098V0.421979H45.312V2.86798H46.136V0.0529785H48V2.86798H48.657V4.34698H48V6.16798L48.657 5.84498V7.47398L48 7.74998V10.985L46.136 10.994ZM53.539 10.901V9.65398H54.198C54.544 9.65398 54.968 9.52798 55.019 8.92298V7.33298L54.84 7.45398C53.21 8.57598 51.513 9.59598 49.76 10.507V8.59798C51.628 7.65198 53.383 6.49498 54.993 5.14898L55.025 5.12298V3.71098L54.838 3.86498C53.265 5.12998 51.539 6.18698 49.701 7.00898V5.14098C51.005 4.58298 52.505 3.65598 54.161 2.39098L54.369 2.22898H50.577C50.117 2.22898 49.777 2.13398 49.56 1.94598C49.449 1.83698 49.364 1.70498 49.312 1.55798C49.26 1.41098 49.243 1.25298 49.261 1.09798L49.878 0.0599785H52.169L51.785 0.843979H55.568C56.528 0.873979 57.008 1.34298 57.049 2.27798V9.47598C57.049 10.447 56.654 10.908 55.843 10.908L53.539 10.901Z" fill="currentColor"/>
<path d="M61.904 10.994V9.97799H64.043C64.158 9.98799 64.274 9.95199 64.363 9.87699C64.397 9.83999 64.422 9.79399 64.434 9.74399C64.445 9.69399 64.444 9.64199 64.43 9.59299V9.05399H58.942V7.75999H64.427V7.26799L66.169 6.64699L66.128 6.46899H59.71V5.73099H58.835L60.096 3.28899H59.053V2.13499H64.32V1.81199C64.32 1.44499 63.896 1.25899 63.059 1.25899H59.272V0.0109863H71.227V0.518986C71.227 1.02399 70.88 1.25899 70.131 1.25899H66.291V2.13499H71.555V3.28899H70.336L71.761 5.68899H71.008V5.99999L67.008 7.59199L67.054 7.76599H71.608V8.18199C71.608 8.78099 71.259 9.05899 70.51 9.05899H66.51V9.93599C66.51 10.651 66.115 10.998 65.302 10.998L61.904 10.994ZM66.292 5.22999H69.316L68.225 3.28899H66.292V5.22999ZM61.241 5.22999H64.32V4.16699C64.32 3.76799 64.12 3.28999 63.168 3.28999H62.272L61.241 5.22999Z" fill="currentColor"/>
<path d="M4.70401 10.913C3.56201 10.913 3.00601 10.473 3.00601 9.56998V0.263977H5.03401V9.11198C5.03401 9.21098 5.07501 9.43598 5.47001 9.43598H9.96201V10.038C9.96201 10.638 9.63001 10.918 8.92201 10.918L4.70401 10.913Z" fill="currentColor"/>
<path d="M0 10.913L0.32 1.14203H2.347L2.027 10.478C1.894 10.77 1.643 10.913 1.259 10.913H0Z" fill="currentColor"/>
<path d="M10.336 1.23602H12.266L12.642 10.866H10.725L10.336 1.23602Z" fill="currentColor"/>
<path d="M8.97101 5.42398C8.86301 5.33698 8.73101 5.28698 8.59401 5.27998C8.23201 5.20998 8.07501 4.90498 8.04501 4.34498L7.72501 0.539978H5.76001L6.08001 4.92698C6.27701 6.17298 6.85901 6.83798 7.85301 6.95798C8.23001 6.97698 8.90101 6.89298 9.10701 6.23098C9.23501 5.79398 9.09301 5.53698 8.97101 5.42398Z" fill="currentColor"/>
</g>
</svg>
