<svg viewBox="0 0 65 11" fill="none" xmlns="http://www.w3.org/2000/svg">
<g>
<path d="M0.293561 10.9998L1.49284 9.10089C1.59076 8.94605 1.76476 8.85315 1.95499 8.85315H3.8263L2.70381 10.6282C2.55744 10.8594 2.29648 10.9998 2.01224 10.9998H0.293561Z" fill="currentColor"/>
<path d="M4.93338 8.85315H6.58238C6.82459 8.85315 7.04394 9.00356 7.12511 9.22586L7.77105 10.9998H6.32554C5.96278 10.9998 5.63373 10.7731 5.51254 10.4402L4.93338 8.85315Z" fill="currentColor"/>
<path d="M8.25681 8.85315H9.90581C10.148 8.85315 10.3674 9.00356 10.4485 9.22586L11.0945 10.9998H9.64896C9.28621 10.9998 8.95715 10.7731 8.83596 10.4402L8.25681 8.85315Z" fill="currentColor"/>
<path d="M12.1344 8.85315H13.7834C14.0256 8.85315 14.2449 9.00356 14.3261 9.22586L14.972 10.9998H13.5265C13.1638 10.9998 12.8347 10.7731 12.7135 10.4402L12.1344 8.85315Z" fill="currentColor"/>
<path d="M1.21843 4.36996L3.37513 4.11698L3.54541 2.4968H1.47835L1.59974 1.34189H3.6668L3.80784 0H5.55085L5.40981 1.34189H6.89845L6.77706 2.4968H5.28842L5.14056 3.90359L6.66284 3.73091L6.53567 4.94081L5.01213 5.1256L4.92831 5.92303C4.83814 6.78097 4.522 7.40022 3.9821 7.78079C3.43976 8.16356 2.59157 8.36264 1.43729 8.38024L1.55313 7.27813C2.10219 7.24183 2.49822 7.12524 2.74307 6.93166C2.98694 6.73697 3.13178 6.43229 3.17547 6.01653L3.2453 5.35218L1.08722 5.61836L1.21843 4.36996Z" fill="currentColor"/>
<path d="M6.06605 8.32525C6.83975 7.36172 7.47856 6.3663 7.98248 5.33898C7.62179 5.22459 7.26984 5.1322 6.92566 5.0607L7.06265 3.7573C7.39485 3.8376 7.87173 3.96189 8.49219 4.13018C8.70047 3.59012 8.8622 3.07206 8.97616 2.5771H7.37803L7.50785 1.34189H9.25087C9.3275 0.907429 9.38992 0.460864 9.43836 0H11.3141C11.3103 0.0362971 11.2311 0.483962 11.0757 1.34189H14.2919L13.7572 6.42899C13.7332 6.65778 13.7647 6.82056 13.8506 6.91846C13.9367 7.01525 14.0964 7.06364 14.3309 7.06364H15.1482L21.0527 6.58188L21.1114 7.30783L16.583 8.09096C16.583 8.09096 15.2997 8.23175 14.7965 8.27355C14.0948 8.33075 13.5003 8.27355 13.5003 8.27355C12.9141 8.27355 12.5003 8.14926 12.2588 7.90068C12.0181 7.6543 11.9287 7.24293 11.9893 6.66548L12.4191 2.5771H10.77C10.5694 3.27554 10.3215 3.96189 10.0261 4.63614C10.3648 4.75933 10.7585 4.91771 11.207 5.1124L11.0659 6.45429C10.2587 6.12652 9.72155 5.91314 9.45301 5.81634C8.95535 6.71057 8.38074 7.54761 7.73165 8.32525H6.06605Z" fill="currentColor"/>
<path d="M20.733 6.21448L22.1223 6.74092L21.1748 7.79491L20.733 6.21448Z" fill="currentColor"/>
<path d="M29.5332 7.21433L29.6431 6.16832H24.6508L24.5408 7.21433H29.5332ZM29.7622 5.0354L29.8734 3.97729H24.8811L24.7699 5.0354H29.7622ZM29.414 8.34835H24.4216L24.1495 10.9375H22.3733L23.2266 2.81908H26.5666L26.9005 0H28.8117L28.4778 2.81908H31.7702L31.2115 8.13496C31.1272 9.14798 30.9409 10.0576 30.3885 10.4624C29.8327 10.8781 28.7838 10.9034 27.5095 10.9375L27.6299 9.79143C28.3326 9.72434 28.885 9.72984 29.1146 9.52415C29.3055 9.34927 29.3466 8.8631 29.414 8.34835ZM20.0637 7.09004L19.693 9.84058C19.687 9.88567 19.722 9.92168 19.7676 9.91727C20.095 9.88558 21.2457 9.77539 21.2507 9.79143C21.2552 9.81123 21.1055 10.7308 21.1055 10.7308L18.9085 10.8894C18.2354 10.9381 17.729 10.4 17.8213 9.73424L18.1879 7.09004L18.3071 5.95603L18.4483 4.61304H16.943L17.061 3.49113H21.9582L21.8403 4.61304H20.324L20.1828 5.95603L20.0637 7.09004ZM19.9552 1.11421H22.3562L21.9196 2.24822H19.2343C19.0801 2.46446 18.9357 2.6564 18.8017 2.82355C18.6504 3.01244 18.4196 3.11716 18.1886 3.11716H16.9897L18.7396 0H20.6828C20.4817 0.439965 20.2336 0.63245 19.9552 1.11421Z" fill="currentColor"/>
<path d="M23.4156 0H24.7859C24.9065 0 25.0182 0.139353 25.054 0.325156L25.3728 2.28051H24.6915C24.1507 2.28051 23.6694 1.649 23.5512 0.786346L23.4156 0Z" fill="currentColor"/>
<path d="M29.9481 2.28051L30.3672 0.225618C30.396 0.0873718 30.4728 0 30.5646 0H31.9957L31.7462 0.987633C31.5962 1.76513 31.1702 2.28051 30.6759 2.28051H29.9481Z" fill="currentColor"/>
<path d="M34.9495 1.41229L34.481 4.77804C34.425 5.18042 34.0595 5.49957 33.6547 5.49957H33.5069L34.0749 1.40019L34.9495 1.41229ZM37.4413 1.47498L38.6196 1.20771L38.1793 2.68269L36.6362 3.62202L37.4413 1.47498ZM43.9763 6.45429H42.1017C40.5579 7.81049 39.6932 8.02937 37.9527 8.38464L38.0406 7.54871C38.9673 7.31773 39.7246 6.95255 40.31 6.45429H37.7773L37.7944 6.25931C37.8311 5.84186 38.2053 5.49957 38.6251 5.49957H40.2622L40.338 5.03101H38.2156L38.2308 4.86969C38.27 4.45409 38.6431 4.11478 39.061 4.11478H40.4243L40.4949 3.44273H38.7862L39.1425 0H47.673C48.0872 0 48.3882 0.333646 48.3456 0.745649L48.0664 3.44273H46.2006L46.13 4.11478H48.2037L48.1352 4.842C48.1254 4.94605 48.0319 5.03101 47.9273 5.03101H46.0426L45.9668 5.49957H47.9896L47.9225 6.26408C47.9134 6.3686 47.8196 6.45429 47.7145 6.45429H45.8045C46.4449 6.96905 47.1619 7.33422 47.9545 7.54871L47.8666 8.38464C46.186 7.96997 45.3057 7.81159 43.9763 6.45429ZM46.4328 2.09644H40.8952L40.8387 2.63429H46.3763L46.4328 2.09644ZM46.506 1.40019L46.5635 0.853533H41.0259L40.9684 1.40019H46.506ZM44.3708 5.49957L44.4466 5.03101H41.9184L41.8426 5.49957H44.3708ZM44.533 4.11478L44.6036 3.44273H42.0754L42.0047 4.11478H44.533ZM36.7084 5.90214L37.2783 8.71902L36.9892 10.5966C36.2889 9.90362 35.976 8.16686 35.8461 7.6455C35.5676 8.82241 34.2107 10.9254 34.2107 10.9254H32.857C33.5556 9.65504 34.0908 8.50893 34.4602 7.48821C34.9006 6.27611 34.9998 5.97473 35.2679 4.56024C35.5549 3.05006 35.8578 0 35.8578 0H37.3951C37.2857 0.556556 36.728 5.47317 36.7084 5.90214Z" fill="currentColor"/>
<path d="M63.288 0.750925L62.8815 4.42605H51.5155L52.005 0H62.616C63.0323 0 63.3338 0.336866 63.288 0.750925ZM53.675 3.23045H61.0485L61.2324 1.20771H53.8588L53.675 3.23045ZM56.3568 6.47299L55.8856 10.9562H49.5915L50.1412 5.72615H55.6844C56.0991 5.72615 56.4002 6.06052 56.3568 6.47299ZM51.4381 9.82333H54.2772L54.5861 6.88436H51.747L51.4381 9.82333ZM64.0688 6.47299L63.5976 10.9562H57.2869L57.8366 5.72615H63.3963C63.811 5.72615 64.1121 6.06052 64.0688 6.47299ZM59.1346 9.82333H61.9891L62.298 6.88436H59.4435L59.1346 9.82333Z" fill="currentColor"/>
<path d="M37.831 9.5957C38.7021 9.38891 41.3021 8.85326 41.3021 8.85326L39.3604 8.2395C39.8004 8.15701 40.2033 8.01732 40.5704 7.81824L41.13 8.05094C41.4037 8.16477 41.5617 8.44045 41.5285 8.74653L41.5197 8.82806C41.4663 9.32131 41.0951 9.75558 40.6052 9.8978L37.736 10.7308L37.831 9.5957Z" fill="currentColor"/>
<path d="M41.0188 10.16C41.3493 10.1193 41.569 10.0489 41.6779 9.94988C41.7869 9.84868 41.8549 9.665 41.8828 9.39992L42.1377 6.97461H43.8342L43.5937 9.26353C43.5238 9.92788 43.2735 10.3843 42.8435 10.634C42.4627 10.8485 41.8255 10.9651 40.9322 10.9838L41.0188 10.16Z" fill="currentColor"/>
<path d="M44.1025 8.70723C44.1252 8.46215 44.2446 8.21775 44.4439 8.05234L44.9339 7.64551C45.3021 7.88859 45.7147 8.06677 46.1748 8.18227L44.303 8.84991C44.303 8.84991 46.7452 9.54286 47.2742 9.79144L47.1656 10.8254C47.1656 10.8254 45.6287 10.1913 44.5683 9.8341C44.2381 9.72291 44.0287 9.39902 44.0682 9.04135C44.0806 8.92892 44.0927 8.8136 44.1025 8.70723Z" fill="currentColor"/>
</g>
</svg>
