<svg viewBox="0 0 56 11" fill="none" xmlns="http://www.w3.org/2000/svg">
<g>
<path d="M48.4574 0.301961V7.57778H47.1633V1.42353H44.7044V7.57778H43.4103V0.301961H48.4574ZM53.2169 4.88889L53.677 8.25359H48.745L49.9672 3.24967H51.477L50.5136 7.07451H52.1816L51.8221 4.88889H53.2169ZM51.0888 0.992157H55.7907V8.28235C55.7907 9.23137 55.5367 9.92157 55.0286 10.3529C54.5781 10.7364 53.8639 10.9473 52.8861 10.9856V9.82092C53.3367 9.74423 53.6674 9.60523 53.8783 9.40392C54.1084 9.17386 54.2234 8.83834 54.2234 8.39739V2.17124H50.3986C50.2739 2.37255 50.0774 2.66492 49.809 3.04837H48.5436C49.023 2.09935 49.3968 1.08322 49.6652 0H51.5633C51.4195 0.325926 51.2613 0.656645 51.0888 0.992157ZM46.545 2.01307V5.6366C46.545 6.54728 46.7223 7.35251 47.077 8.05229C47.4508 8.76165 48.002 9.36558 48.7306 9.86405V11C47.3981 10.2139 46.5066 9.44226 46.0561 8.68497C45.9986 8.58911 45.9602 8.51721 45.941 8.46928C45.9027 8.53638 45.8643 8.60349 45.826 8.67059C45.3659 9.43747 44.4696 10.2139 43.1371 11V9.86405C43.904 9.33682 44.4648 8.71373 44.8195 7.99477C45.155 7.32375 45.3227 6.53769 45.3227 5.6366V2.01307H46.545Z" fill="currentColor"/>
<path d="M40.7942 4.09804V5.95294C40.7942 6.76776 40.5737 7.36209 40.1327 7.73595C39.7301 8.08105 39.0879 8.27756 38.2059 8.32549V7.26144C38.5702 7.21351 38.8194 7.10327 38.9537 6.93072C39.0783 6.76776 39.1406 6.48497 39.1406 6.08235V4.84575H35.5602V9.00131C35.5602 9.25054 35.6081 9.42789 35.704 9.53333C35.7998 9.63878 35.9772 9.6915 36.236 9.6915H41.2399V10.7843H35.5746C34.9802 10.7843 34.5537 10.6453 34.2948 10.3673C34.036 10.0893 33.9066 9.65316 33.9066 9.05882V4.08366C33.504 4.29455 33.202 4.44793 33.0007 4.54379V3.37908C33.6813 2.93813 34.3092 2.43965 34.8844 1.88366C35.4979 1.28932 36.0107 0.661438 36.4229 0H38.2922C38.6469 0.623094 39.1502 1.25098 39.802 1.88366C40.4347 2.50675 41.0674 3.00523 41.7001 3.37908V4.54379C41.4987 4.45752 41.1968 4.30893 40.7942 4.09804ZM40.1903 3.76732C39.0303 3.05795 38.0861 2.24793 37.3576 1.33725C36.6194 2.24793 35.6513 3.05795 34.453 3.76732H40.1903ZM31.9367 6.3268V8.25359C31.9367 9.10675 31.673 9.76819 31.1458 10.2379C30.6569 10.6693 29.9811 10.9137 29.1184 10.9712V9.87843C29.8948 9.70588 30.2831 9.20741 30.2831 8.38301V6.64314L28.7589 6.9451V5.72288L30.2831 5.42092V2.73203H28.7589V1.59608H30.2831V0H31.9367V1.59608H33.0726V2.73203H31.9367V5.10457L33.1157 4.87451V6.09673L31.9367 6.3268Z" fill="currentColor"/>
<path d="M22.3457 3.98301L23.5967 7.96601H22.3025L20.4189 3.98301H22.3457ZM19.8725 8.48366V9.61961L14.3653 10.3242V9.18824L19.8725 8.48366ZM22.4463 1.13595H26.8895V8.13856C26.8895 9.18344 26.6115 9.93115 26.0555 10.3817C25.6529 10.7076 25.0058 10.9089 24.1143 10.9856V9.82092C24.8524 9.77299 25.2215 9.25055 25.2215 8.2536V2.31503H21.8137C21.5069 2.81351 21.2002 3.25926 20.8934 3.65229H19.5849C20.2368 2.35817 20.7065 1.14074 20.9941 0H22.9208C22.8346 0.258824 22.6764 0.637473 22.4463 1.13595ZM17.4999 3.26405L18.2908 2.09935H19.9588L17.0398 6.36993H19.5274V7.4915H14.6097L16.7235 4.4H14.2071L16.8097 0H18.5784L16.4215 3.26405H17.4999Z" fill="currentColor"/>
<path d="M10.1804 1.43661L9.64837 2.45752H12.6248V8.13726H11.1725V3.59347H7.36209V8.13726H5.89542V2.45752H8.28235L8.48366 1.43661H5.62222V0.300659H12.9412V1.43661H10.1804ZM9.93595 4.19739V5.57778C9.93595 6.64184 10.1277 7.4902 10.5111 8.12288C10.9617 8.86101 11.7717 9.46014 12.9412 9.92027V10.9843C11.1007 10.4283 9.84967 9.59434 9.18824 8.48236C8.48845 9.57517 7.17996 10.4092 5.26274 10.9843V9.92027C6.50893 9.44096 7.36688 8.83704 7.8366 8.1085C8.2488 7.46624 8.4549 6.62266 8.4549 5.57778V4.19739H9.93595ZM3.68105 3.7804H5.39216V6.42615H4.0549V4.90197H3.17778V8.46798C3.17778 9.32114 3.0244 9.92985 2.71765 10.2941C2.39172 10.6872 1.82135 10.9172 1.00654 10.9843V9.86275C1.28453 9.81482 1.46667 9.71896 1.55294 9.57517C1.65839 9.40262 1.71111 9.07669 1.71111 8.59739V4.90197H0V3.7804H1.38039L0.431373 1.98301H2.02745L2.53072 3.55033L3.45098 1.42223H0.273203V0.300659H5.0902V1.20654L3.68105 3.7804Z" fill="currentColor"/>
</g>
</svg>
