<svg viewBox="0 0 38 11" fill="none" xmlns="http://www.w3.org/2000/svg">
<g>
<path d="M10.0834 7.14811L9.57472 10.7677H1.50622L2.04554 6.93025C1.51711 7.11776 0.990984 7.28894 0.467151 7.44377L0.604714 6.46496C1.92048 5.9919 2.94476 5.49082 3.67834 4.96174H0.999836L1.14079 3.95881H4.78336C4.99285 3.69816 5.14571 3.48263 5.24205 3.31146H2.08427L2.20794 2.43146H5.68787C5.77565 2.22061 5.85719 1.99263 5.9316 1.74832H1.92131L2.06051 0.757838H6.1698C6.20062 0.594444 6.24076 0.34235 6.28888 0H7.75581C7.70769 0.34235 7.66833 0.594444 7.63751 0.757838H11.8584L11.7192 1.74832H7.40167C7.35954 1.91949 7.28664 2.14747 7.1823 2.43146H11.2523L11.1286 3.31146H6.79934C6.66323 3.56433 6.53001 3.77985 6.398 3.95881H11.8666L11.7256 4.96174H8.86012C9.06125 5.23017 9.3438 5.47837 9.70765 5.70713C10.2965 6.0736 10.9563 6.35448 11.6853 6.55133L11.5464 7.53948C10.9786 7.42588 10.4901 7.29594 10.0834 7.14811ZM8.40266 8.83729H3.20909L3.0771 9.77642H8.27068L8.40266 8.83729ZM8.5318 7.9184L8.65723 7.02595H3.46366L3.33823 7.9184H8.5318ZM8.11792 6.03858C7.76404 5.74447 7.44763 5.38501 7.17005 4.96174H5.52791C5.10362 5.35311 4.60524 5.71257 4.033 6.03858H8.11792Z" fill="currentColor"/>
<path d="M18.4371 9.44574H23.6315L23.4646 10.6331H12.3593L12.5262 9.44574H16.883L18.2105 0H19.7647L19.3043 3.27567H23.6336L23.4654 4.47233H19.1361L18.4371 9.44574Z" fill="currentColor"/>
<path d="M25.9021 7.34496H27.1011L25.8087 10.5584H24.8085L25.9021 7.34496ZM30.6894 7.34496L30.5817 10.23H29.5941L29.481 7.34496H30.6894ZM35.8917 4.49879L34.978 11.0003H33.6069L34.5206 4.49879H33.3609L33.0346 6.82054C32.8275 8.2942 32.3528 9.68694 31.6096 11.0003H30.4106C31.0217 9.81066 31.4374 8.42959 31.6585 6.85633L32.5483 0.525196H34.9557C35.8271 0.525196 36.5821 0.419378 37.2207 0.208522L37.0642 1.32194C36.468 1.53279 35.7171 1.63783 34.8111 1.63783H33.763L33.5278 3.31146H37.0077L36.8408 4.49879H35.8917ZM30.6121 3.60712H31.7207L31.5614 4.74077H29.4282L29.3079 5.59664H31.2573L31.0958 6.74585H29.1464L28.9007 8.49417C28.7771 9.37338 28.5072 10.0083 28.0906 10.4004C27.6912 10.7825 27.1037 10.9824 26.328 11.0003L26.4845 9.88691C26.8372 9.83711 27.0874 9.72273 27.2352 9.54378C27.3821 9.36482 27.4857 9.06371 27.5452 8.64044L27.8115 6.74585H25.6272L25.7887 5.59664H27.973L28.0933 4.74077H25.7015L25.8609 3.60712H26.9695L26.4393 2.29763H27.7955L28.0931 3.60712H29.4885L30.1542 2.29763H31.5221L30.6121 3.60712ZM30.0052 0.808412H31.9781L31.8188 1.94206H26.2544L26.4137 0.808412H28.4628L28.5765 0H30.1188L30.0052 0.808412Z" fill="currentColor"/>
</g>
</svg>
