<svg xmlns="http://www.w3.org/2000/svg" version="1.1" xmlns:xlink="http://www.w3.org/1999/xlink" fill="none" width="20" height="20" viewBox="0 0 20 20"><path d="M20 5C20 2.2390001 17.761999 0 15 0C12.239 0 10 2.2390001 10 5C10 7.7610002 12.239 10 15 10C17.761999 10 20 7.7610002 20 5ZM0.84600002 4.3130002L1.888 10.147L2.3039999 12.475C2.437 13.219 2.5369999 13.724 2.6070001 13.99C2.727 14.454 2.8900001 14.831 3.0940001 15.121C3.4760001 15.665 3.9779999 16.059999 4.5960002 16.304001C4.934 16.437 5.2940001 16.509001 5.677 16.518999C5.927 16.525 6.4860001 16.502001 7.3540001 16.450001L11.363 16.207001L11.365 16.207001C12.878 16.115 13.841 16.040001 14.255 15.981C14.833 15.898 15.377 15.733 15.884 15.485C16.836 15.02 17.605 14.345 18.188999 13.46C18.490999 13.003 18.740999 12.408 18.937 11.674C18.938999 11.671 18.936001 11.667 18.931999 11.667L17.500999 11.667C17.322001 11.667 17.164 11.782 17.098 11.949C17.006001 12.182 16.906 12.379 16.799 12.541C16.381001 13.173 15.833 13.655 15.153 13.988C14.803 14.159 14.425 14.273 14.02 14.331C13.651 14.383 12.732 14.454 11.265 14.543L11.263 14.543L7.2529998 14.786C6.4330001 14.836 5.9229999 14.858 5.7220001 14.852C5.5349998 14.848 5.3629999 14.815 5.2080002 14.753C4.8990002 14.631 4.6479998 14.435 4.4569998 14.162C4.369 14.037 4.29 13.84 4.2199998 13.571C4.1620002 13.347 4.0700002 12.884 3.9449999 12.182L2.6619999 5L7.9169998 5C8.1470003 5 8.3330002 4.8130002 8.3330002 4.5830002L8.3330002 3.75C8.3330002 3.52 8.1470003 3.3329999 7.9169998 3.3329999L2.3640001 3.3329999L2.0639999 1.653C2.0090001 1.341 1.931 1.112 1.831 0.96499997C1.698 0.76800001 1.523 0.62099999 1.3049999 0.52399999C1.143 0.45199999 0.90399998 0.417 0.588 0.417L0.417 0.417C0.18700001 0.417 0 0.60299999 0 0.833L0 1.6670001C0 1.897 0.18700001 2.0829999 0.417 2.0829999L0.44800001 2.0829999L0.84600002 4.3130002ZM13.541 1.544C14.005 1.348 14.491 1.25 15 1.25C15.509 1.25 15.995 1.348 16.459 1.544C16.908001 1.734 17.305 2.0020001 17.652 2.348C17.997999 2.6949999 18.266001 3.092 18.455999 3.5409999C18.652 4.0050001 18.75 4.4910002 18.75 5C18.75 5.5089998 18.652 5.9949999 18.455999 6.4590001C18.266001 6.908 17.997999 7.3049998 17.652 7.652C17.305 7.9980001 16.908001 8.2659998 16.459 8.4560003C15.995 8.6520004 15.509 8.75 15 8.75C14.491 8.75 14.005 8.6520004 13.541 8.4560003C13.092 8.2659998 12.695 7.9980001 12.348 7.652C12.002 7.3049998 11.734 6.908 11.544 6.4590001C11.348 5.9949999 11.25 5.5089998 11.25 5C11.25 4.4910002 11.348 4.0050001 11.544 3.5409999C11.734 3.092 12.002 2.6949999 12.348 2.348C12.695 2.0020001 13.092 1.734 13.541 1.544ZM15.625 4.375L15.625 2.9170001C15.625 2.687 15.438 2.5 15.208 2.5L14.792 2.5C14.562 2.5 14.375 2.687 14.375 2.9170001L14.375 4.375L12.917 4.375C12.687 4.375 12.5 4.5619998 12.5 4.7919998L12.5 5.2080002C12.5 5.4380002 12.687 5.625 12.917 5.625L14.375 5.625L14.375 7.0830002C14.375 7.3130002 14.562 7.5 14.792 7.5L15.208 7.5C15.438 7.5 15.625 7.3130002 15.625 7.0830002L15.625 5.625L17.083 5.625C17.313 5.625 17.5 5.4380002 17.5 5.2080002L17.5 4.7919998C17.5 4.5619998 17.313 4.375 17.083 4.375L15.625 4.375ZM4.5830002 17.5C5.2740002 17.5 5.8330002 18.059999 5.8330002 18.75C5.8330002 19.440001 5.2740002 20 4.5830002 20C3.8929999 20 3.3329999 19.440001 3.3329999 18.75C3.3329999 18.059999 3.8929999 17.5 4.5830002 17.5ZM17.5 18.75C17.5 18.059999 16.940001 17.5 16.25 17.5C15.56 17.5 15 18.059999 15 18.75C15 19.440001 15.56 20 16.25 20C16.940001 20 17.5 19.440001 17.5 18.75Z" fill-rule="evenodd" fill="currentColor"></path></svg>