<svg xmlns="http://www.w3.org/2000/svg" version="1.1" xmlns:xlink="http://www.w3.org/1999/xlink" fill="none" width="12" height="12" viewBox="0 0 12 12"><path d="M0.088 0.37099999L0.37099999 0.088C0.48800001 -0.028999999 0.67799997 -0.028999999 0.79500002 0.088L3.73 3.0220001L6.664 0.088C6.7810001 -0.028999999 6.9710002 -0.028999999 7.0879998 0.088L7.3709998 0.37099999C7.4879999 0.48800001 7.4879999 0.67799997 7.3709998 0.79500002L4.4369998 3.73L7.3709998 6.664C7.4879999 6.7810001 7.4879999 6.9710002 7.3709998 7.0879998L7.0879998 7.3709998C6.9710002 7.4879999 6.7810001 7.4879999 6.664 7.3709998L3.73 4.4369998L0.79500002 7.3709998C0.67799997 7.4879999 0.48800001 7.4879999 0.37099999 7.3709998L0.088 7.0879998C-0.028999999 6.9710002 -0.028999999 6.7810001 0.088 6.664L3.0220001 3.73L0.088 0.79500002C-0.028999999 0.67799997 -0.028999999 0.48800001 0.088 0.37099999Z" fill-rule="evenodd" transform="translate(2.271, 2.2720000000000002)" fill="currentColor"></path></svg>