<svg xmlns="http://www.w3.org/2000/svg" version="1.1" xmlns:xlink="http://www.w3.org/1999/xlink" fill="none" width="24" height="24" viewBox="0 0 24 24"><path d="M12.879 4C12.879 1.7908609 11.088139 0 8.8789997 0C6.6698608 0 4.8790002 1.7908609 4.8790002 4L2.0104861 4C1.3751146 4 0.84986717 4.4952583 0.81255686 5.1295338L0.0035555363 18.882557C-0.064018533 20.031315 0.84935927 21 2.0001042 21L15.757895 21C16.90864 21 17.822018 20.031315 17.754444 18.882557L16.945442 5.1295338C16.908133 4.4952583 16.382885 4 15.747514 4L12.879 4ZM7.4647865 2.5857863Q6.8790002 3.1715727 6.8790002 4L10.879 4Q10.879 3.1715727 10.293214 2.5857863Q9.707428 2 8.8789997 1.9999995Q8.0505733 1.9999996 7.4647865 2.5857863ZM5.9950447 8.3999996C7.1637039 8.3999996 8.1110888 9.3473854 8.1110888 10.516045C8.1110888 11.684704 7.1637039 12.632089 5.9950447 12.632089C4.8263855 12.632089 3.8789999 11.684704 3.8789999 10.516045C3.8789999 9.3473854 4.8263855 8.3999996 5.9950447 8.3999996ZM10.604 8.4829998L5.2620001 16.774L7.1990004 16.774L12.540999 8.4829998L10.604 8.4829998ZM5.9950447 9.716692Q5.6639423 9.716692 5.4298172 9.9508171Q5.1956925 10.184941 5.1956925 10.516045Q5.1956925 10.847147 5.4298172 11.081271Q5.6639423 11.315396 5.9950447 11.315396Q6.3261466 11.315396 6.5602717 11.081271Q6.7943964 10.847147 6.7943964 10.516045Q6.7943964 10.184942 6.5602717 9.9508171Q6.3261471 9.716692 5.9950447 9.716692ZM13.923088 14.748044C13.923088 13.579385 12.975703 12.632 11.807044 12.632C10.638385 12.632 9.691 13.579385 9.691 14.748044C9.691 15.916703 10.638385 16.864088 11.807044 16.864088C12.975703 16.864088 13.923088 15.916703 13.923088 14.748044ZM11.241817 14.182817Q11.475942 13.948692 11.807044 13.948692Q12.138146 13.948692 12.372272 14.182817Q12.606396 14.416942 12.606396 14.748044Q12.606396 15.079146 12.372272 15.313272Q12.138146 15.547396 11.807044 15.547396Q11.475942 15.547396 11.241817 15.313272Q11.007692 15.079146 11.007692 14.748044Q11.007692 14.416942 11.241817 14.182817Z" fill-rule="evenodd" transform="translate(3.121, 1)" fill="#ff0f23"></path></svg>