<svg xmlns="http://www.w3.org/2000/svg" version="1.1" xmlns:xlink="http://www.w3.org/1999/xlink" fill="none" width="16" height="16" viewBox="0 0 16 16"><path d="M0.67699999 3.1170001L1.51 7.7839999L1.8430001 9.6470003C1.949 10.242 2.03 10.646 2.085 10.858C2.1819999 11.23 2.312 11.532 2.4749999 11.763C2.7809999 12.199 3.1819999 12.514 3.677 12.71C3.947 12.816 4.2350001 12.874 4.5419998 12.882C4.7420001 12.887 5.1890001 12.869 5.8829999 12.826L9.0909996 12.632L9.092 12.632C10.302 12.559 11.073 12.498 11.404 12.451C11.867 12.385 12.301 12.253 12.707 12.055C13.469 11.682 14.084 11.143 14.551 10.435C14.793 10.069 14.993 9.5930004 15.15 9.0059996C15.246 8.6450005 15.393 7.9510002 15.591 6.9229999L15.591 6.9219999C15.76 6.0430002 15.857 5.4759998 15.881 5.2210002C15.919 4.8210001 15.879 4.4549999 15.763 4.1209998C15.546 3.4990001 15.153 3.023 14.583 2.6930001C14.284 2.52 13.891 2.4119999 13.403 2.3699999C13.125 2.345 12.591 2.3329999 11.8 2.3329999L1.891 2.3329999L1.651 0.98900002C1.607 0.74000001 1.545 0.55599999 1.465 0.43799999C1.358 0.28099999 1.2180001 0.164 1.044 0.086000003C0.91399997 0.028999999 0.72299999 0 0.47 0L0.333 0C0.149 0 0 0.149 0 0.333L0 1C0 1.184 0.149 1.3329999 0.333 1.3329999L0.35800001 1.3329999L0.67699999 3.1170001ZM2.1300001 3.6670001L3.1559999 9.4119997C3.256 9.974 3.329 10.344 3.3759999 10.523C3.4319999 10.738 3.4949999 10.896 3.566 10.997C3.7190001 11.214 3.9189999 11.372 4.1659999 11.469C4.29 11.518 4.428 11.545 4.5770001 11.549C4.7379999 11.553 5.1469998 11.535 5.803 11.496L9.0100002 11.301L9.0120001 11.301C10.186 11.23 10.921 11.173 11.216 11.131C11.54 11.085 11.842 10.994 12.122 10.857C12.666 10.591 13.105 10.205 13.439 9.6999998C13.601 9.4549999 13.742 9.1079998 13.862 8.6610003C13.95 8.3310003 14.09 7.6680002 14.282 6.671L14.282 6.6700001C14.443 5.8330002 14.533 5.3080001 14.553 5.0960002C14.573 4.8889999 14.557 4.711 14.505 4.5609999C14.396 4.25 14.199 4.0120001 13.914 3.8469999C13.787 3.773 13.578 3.723 13.288 3.698C13.048 3.677 12.552 3.6670001 11.8 3.6670001L2.1300001 3.6670001ZM3.6670001 13.667C4.2189999 13.667 4.6669998 14.114 4.6669998 14.667C4.6669998 15.219 4.2189999 15.667 3.6670001 15.667C3.1140001 15.667 2.6670001 15.219 2.6670001 14.667C2.6670001 14.114 3.1140001 13.667 3.6670001 13.667ZM14 14.667C14 14.114 13.552 13.667 13 13.667C12.448 13.667 12 14.114 12 14.667C12 15.219 12.448 15.667 13 15.667C13.552 15.667 14 15.219 14 14.667Z" fill-rule="evenodd" transform="translate(0, 0.333)" fill="currentColor"></path></svg>