<svg xmlns="http://www.w3.org/2000/svg" version="1.1" xmlns:xlink="http://www.w3.org/1999/xlink" fill="none" width="16" height="16" viewBox="0 0 16 16"><path d="M15.82 6.395L8.842 0.32699999C8.5909996 0.109 8.3000002 0 7.967 0C7.6350002 0 7.3429999 0.109 7.092 0.32699999L0.115 6.395C-0.024 6.5149999 -0.039000001 6.7259998 0.082000002 6.8649998L0.53899997 7.3909998C0.64899999 7.5170002 0.84100002 7.5300002 0.96700001 7.4200001L0.96700001 12.45C0.96700001 13.186 1.227 13.815 1.748 14.335C2.2690001 14.856 2.8970001 15.117 3.6340001 15.117L12.3 15.117C13.037 15.117 13.665 14.856 14.186 14.335C14.707 13.815 14.967 13.186 14.967 12.45L14.967 7.4200001C15.094 7.5300002 15.286 7.5170002 15.396 7.3899999L15.853 6.8649998C15.973 6.7259998 15.959 6.5149999 15.82 6.395ZM9.967 13.783L12.3 13.783C12.669 13.783 12.983 13.653 13.243 13.393C13.504 13.132 13.634 12.818 13.634 12.45L13.634 6.2610002L7.967 1.3329999L2.3 6.2610002L2.3 12.45C2.3 12.818 2.431 13.132 2.691 13.393C2.951 13.653 3.266 13.783 3.6340001 13.783L5.967 13.783L5.967 11.783C5.967 10.679 6.8629999 9.783 7.967 9.783C9.0719995 9.783 9.967 10.679 9.967 11.783L9.967 13.783ZM7.3010001 13.783L8.6339998 13.783L8.6339998 11.783C8.6339998 11.599 8.5690002 11.442 8.4390001 11.312C8.309 11.182 8.151 11.117 7.967 11.117C7.783 11.117 7.6259999 11.182 7.4959998 11.312C7.3660002 11.442 7.3010001 11.599 7.3010001 11.783L7.3010001 13.783Z" fill-rule="evenodd" transform="translate(0.033, 0.217)" fill="currentColor"></path></svg>