<svg xmlns="http://www.w3.org/2000/svg" version="1.1" xmlns:xlink="http://www.w3.org/1999/xlink" fill="none" width="16" height="16" viewBox="0 0 16 16"><path d="M9.9989996 7.552C9.9350004 7.6339998 9.8599997 7.7129998 9.7889996 7.7880001C9.5080004 8.0640001 9.1940002 8.2749996 8.835 8.4289999C8.4639997 8.5900002 8.0710001 8.665 7.6669998 8.665C7.2589998 8.665 6.869 8.5900002 6.4990001 8.4289999C6.1389999 8.2749996 5.8210001 8.0640001 5.5440001 7.7880001C5.473 7.7129998 5.3979998 7.6339998 5.3340001 7.552C5.2670002 7.6339998 5.1960001 7.7129998 5.1209998 7.7880001C4.8439999 8.0640001 4.526 8.2749996 4.1669998 8.4289999C3.796 8.5900002 3.4070001 8.665 2.9990001 8.665C2.654 8.665 2.313 8.6079998 1.995 8.493L1.995 12.003C1.995 12.368 2.1300001 12.683 2.388 12.941C2.6470001 13.202 2.9649999 13.335 3.332 13.335L11.998 13.335C12.368 13.335 12.683 13.202 12.941 12.941C13.203 12.683 13.331 12.368 13.331 12.003L13.331 8.493C13.009 8.6120005 12.679 8.665 12.335 8.665C11.927 8.665 11.537 8.5900002 11.167 8.4289999C10.807 8.2749996 10.489 8.0640001 10.212 7.7880001C10.134 7.7129998 10.066 7.6339998 9.9989996 7.552ZM13.338 7L13.331 7L13.331 7.0040002C13.042 7.2220001 12.713 7.3299999 12.335 7.3299999C11.871 7.3299999 11.478 7.1719999 11.152 6.8429999C10.905 6.599 10.755 6.316 10.695 5.9980001C10.661 5.8189998 10.515 5.665 10.332 5.665L9.6660004 5.665C9.4820004 5.665 9.3360004 5.8189998 9.3030005 5.9980001C9.243 6.316 9.0889997 6.599 8.8459997 6.8429999C8.5200005 7.1719999 8.1269999 7.3299999 7.6669998 7.3299999C7.2059999 7.3299999 6.8130002 7.1719999 6.487 6.8429999C6.2399998 6.599 6.0910001 6.316 6.0310001 5.9980001C5.9970002 5.8189998 5.8509998 5.665 5.6680002 5.665L5.0009999 5.665C4.8179998 5.665 4.6719999 5.8189998 4.638 5.9980001C4.5749998 6.316 4.421 6.599 4.178 6.8429999C3.8559999 7.1719999 3.4590001 7.3299999 2.9990001 7.3299999C2.6170001 7.3299999 2.2839999 7.2220001 1.995 7L1.995 7L1.995 7C1.9349999 6.954 1.875 6.9000001 1.819 6.8429999C1.494 6.5170002 1.3329999 6.1300001 1.3329999 5.665L1.3329999 3.3340001C1.3329999 2.7820001 1.527 2.3099999 1.92 1.919C2.3099999 1.529 2.7809999 1.332 3.332 1.332L12.002 1.332C12.552 1.332 13.024 1.529 13.413 1.919C13.806 2.3099999 14.001 2.7820001 14.001 3.3340001L14.001 5.665C14.001 6.1300001 13.84 6.5170002 13.514 6.8429999C13.458 6.9000001 13.398 6.954 13.338 7ZM14.663 7.5549998L14.663 12.003C14.663 12.733 14.405 13.363 13.885 13.886C13.364 14.402 12.735 14.667 11.998 14.667L3.332 14.667C2.598 14.667 1.965 14.402 1.449 13.886C0.92500001 13.363 0.66299999 12.733 0.66299999 12.003L0.66299999 7.5479999C0.49000001 7.3299999 0.34400001 7.0929999 0.236 6.8319998C0.079000004 6.46 0 6.073 0 5.665L0 3.3340001C0 2.882 0.090000004 2.4489999 0.26199999 2.0369999C0.43099999 1.636 0.67000002 1.2819999 0.977 0.97799999C1.284 0.67000002 1.64 0.43000001 2.036 0.26100001C2.448 0.086000003 2.882 0 3.332 0L12.002 0C12.451 0 12.885 0.086000003 13.297 0.26100001C13.694 0.43000001 14.049 0.67000002 14.356 0.97799999C14.663 1.2819999 14.903 1.636 15.071 2.0369999C15.243 2.4489999 15.333 2.882 15.333 3.3340001L15.333 5.665C15.333 6.073 15.255 6.46 15.097 6.8319998C14.985 7.0970001 14.839 7.3369999 14.663 7.5549998ZM9.3330002 10.667C9.5200005 10.667 9.6660004 10.814 9.6660004 11L9.6660004 11.666C9.6660004 11.852 9.5200005 11.999 9.3330002 11.999L6.0009999 11.999C5.8140001 11.999 5.6680002 11.852 5.6680002 11.666L5.6680002 11C5.6680002 10.814 5.8140001 10.667 6.0009999 10.667L9.3330002 10.667Z" fill-rule="evenodd" transform="translate(0.333, 0.667)" fill="currentColor"></path></svg>