<svg xmlns="http://www.w3.org/2000/svg" version="1.1" xmlns:xlink="http://www.w3.org/1999/xlink" fill="none" width="16" height="16" viewBox="0 0 16 16"><path d="M1.138 14.862L2.3429999 13.657C0.89499998 12.209 0 10.209 0 8C0 3.582 3.582 0 8 0C12.418 0 16 3.582 16 8C16 12.418 12.418 16 8 16L1.609 16C1.016 16 0.71799999 15.282 1.138 14.862ZM1.3329999 8C1.3329999 8.9049997 1.508 9.7700005 1.857 10.595C2.194 11.392 2.6700001 12.099 3.286 12.714L3.993 13.421C4.1230001 13.551 4.1230001 13.763 3.993 13.893L3.2190001 14.667L8 14.667C8.9049997 14.667 9.7700005 14.492 10.595 14.143C11.392 13.806 12.099 13.33 12.714 12.714C13.33 12.099 13.806 11.392 14.143 10.595C14.492 9.7700005 14.667 8.9049997 14.667 8C14.667 7.0949998 14.492 6.23 14.143 5.4050002C13.806 4.6079998 13.33 3.901 12.714 3.286C12.099 2.6700001 11.392 2.194 10.595 1.857C9.7700005 1.508 8.9049997 1.3329999 8 1.3329999C7.0949998 1.3329999 6.23 1.508 5.4050002 1.857C4.6079998 2.194 3.901 2.6700001 3.286 3.286C2.6700001 3.901 2.194 4.6079998 1.857 5.4050002C1.508 6.23 1.3329999 7.0949998 1.3329999 8ZM4.1669998 8C4.1669998 7.54 4.54 7.1669998 5 7.1669998C5.46 7.1669998 5.8330002 7.54 5.8330002 8C5.8330002 8.46 5.46 8.8330002 5 8.8330002C4.54 8.8330002 4.1669998 8.46 4.1669998 8ZM7.1669998 8C7.1669998 7.54 7.54 7.1669998 8 7.1669998C8.46 7.1669998 8.8330002 7.54 8.8330002 8C8.8330002 8.46 8.46 8.8330002 8 8.8330002C7.54 8.8330002 7.1669998 8.46 7.1669998 8ZM10.167 8C10.167 7.54 10.54 7.1669998 11 7.1669998C11.46 7.1669998 11.833 7.54 11.833 8C11.833 8.46 11.46 8.8330002 11 8.8330002C10.54 8.8330002 10.167 8.46 10.167 8Z" fill-rule="evenodd" fill="currentColor"></path></svg>