<svg xmlns="http://www.w3.org/2000/svg" version="1.1" xmlns:xlink="http://www.w3.org/1999/xlink" fill="none" width="16" height="16" viewBox="0 0 16 16"><defs><clipPath id="clip_tablive"><rect width="16" height="16" rx="2"></rect></clipPath></defs><g clip-path="url(#clip_tablive)"><rect width="16" height="16" rx="2" fill="#ff0f23"></rect><path d="M0.5 0L1 0C1.276 0 1.5 0.22400001 1.5 0.5L1.5 7.5C1.5 7.776 1.276 8 1 8L0.5 8C0.22400001 8 0 7.776 0 7.5L0 0.5C0 0.22400001 0.22400001 0 0.5 0ZM8.5 2L9 2C9.276 2 9.5 2.224 9.5 2.5L9.5 7.5C9.5 7.776 9.276 8 9 8L8.5 8C8.224 8 8 7.776 8 7.5L8 2.5C8 2.224 8.224 2 8.5 2ZM4.5 4L5 4C5.276 4 5.5 4.224 5.5 4.5L5.5 7.5C5.5 7.776 5.276 8 5 8L4.5 8C4.224 8 4 7.776 4 7.5L4 4.5C4 4.224 4.224 4 4.5 4Z" fill-rule="evenodd" transform="translate(3.25, 4)" fill="#ffffff"></path></g></svg>