<svg preserveAspectRatio="none" width="100%" height="100%" overflow="visible" style="display: block;" viewBox="0 0 6 6" fill="none" xmlns="http://www.w3.org/2000/svg">
<g id="&#229;&#176;&#143;&#229;&#176;&#186;&#229;&#175;&#184; &#232;&#183;&#179;&#232;&#189;&#172;8DP 1" clip-path="url(#clip0_0_32)">
<path id="Vector" fill-rule="evenodd" clip-rule="evenodd" d="M1.52053 0.497748C1.53668 0.544273 1.56182 0.587163 1.59454 0.623969L3.70662 2.99998L1.59481 5.37577C1.5621 5.41257 1.53701 5.45549 1.52087 5.50201C1.50473 5.54853 1.49791 5.59778 1.50081 5.64694C1.5037 5.6961 1.51625 5.74421 1.53773 5.78852C1.55922 5.83283 1.58922 5.87248 1.62603 5.9052C1.66283 5.93791 1.70572 5.96306 1.75225 5.9792C1.79878 5.99534 1.84802 6.00216 1.89718 5.99926C1.94635 5.99637 1.99446 5.98382 2.03877 5.96234C2.08308 5.94085 2.12272 5.91085 2.15544 5.87404L4.48313 3.2553C4.50843 3.22807 4.52958 3.1972 4.54585 3.16364C4.56733 3.11932 4.57988 3.07122 4.58277 3.02206C4.58364 3.00732 4.58363 2.99257 4.58276 2.97789C4.57987 2.92873 4.56732 2.88061 4.54584 2.8363C4.52964 2.80291 4.50862 2.77217 4.48349 2.74504L2.15509 0.125687C2.12237 0.0888812 2.08273 0.0588795 2.03841 0.0373958C1.9941 0.0159116 1.94599 0.00336621 1.89683 0.000475139C1.84767 -0.00241593 1.79842 0.00440421 1.7519 0.0205465C1.70537 0.0366884 1.66248 0.0618364 1.62568 0.0945542C1.58887 0.127271 1.55887 0.166919 1.53738 0.21123C1.5159 0.255543 1.50335 0.303653 1.50046 0.352814C1.49757 0.401974 1.50439 0.451223 1.52053 0.497748Z" fill="var(--fill-0, #FF6C02)"/>
</g>
<defs>
<clipPath id="clip0_0_32">
<rect width="6" height="6" fill="white"/>
</clipPath>
</defs>
</svg>
