<svg preserveAspectRatio="none" width="100%" height="100%" overflow="visible" style="display: block;" viewBox="0 0 8 8" fill="none" xmlns="http://www.w3.org/2000/svg">
<g id="&#229;&#176;&#143;&#229;&#176;&#186;&#229;&#175;&#184; &#232;&#183;&#179;&#232;&#189;&#172;8DP 1" clip-path="url(#clip0_0_24)">
<path id="Vector" fill-rule="evenodd" clip-rule="evenodd" d="M2.02727 0.663665C2.04879 0.725698 2.08232 0.782885 2.12594 0.831959L4.94204 3.99997L2.1263 7.16769C2.08269 7.21676 2.04923 7.27399 2.02772 7.33601C2.00619 7.39804 1.9971 7.46371 2.00096 7.52925C2.00482 7.5948 2.02155 7.65895 2.05019 7.71803C2.07884 7.77711 2.11885 7.82997 2.16792 7.8736C2.217 7.91722 2.27419 7.95075 2.33622 7.97227C2.39825 7.99379 2.46392 8.00288 2.52947 7.99902C2.59501 7.99516 2.65916 7.97843 2.71824 7.94979C2.77732 7.92114 2.83019 7.88114 2.87381 7.83206L5.97739 4.3404C6.01112 4.3041 6.03932 4.26293 6.06102 4.21819C6.08966 4.1591 6.10639 4.09496 6.11024 4.02941C6.1114 4.00976 6.11139 3.99009 6.11023 3.97052C6.10638 3.90497 6.08965 3.84082 6.061 3.78174C6.03941 3.73722 6.01138 3.69623 5.97787 3.66006L2.87334 0.167584C2.82972 0.118509 2.77685 0.0785067 2.71777 0.0498617C2.65869 0.0212162 2.59454 0.00448895 2.52899 0.000634193C2.46345 -0.00322056 2.39778 0.00587296 2.33575 0.027396C2.27372 0.0489185 2.21653 0.0824492 2.16745 0.126073C2.11838 0.169696 2.07838 0.222559 2.04973 0.281641C2.02109 0.340725 2.00436 0.404871 2.0005 0.470419C1.99665 0.535966 2.00574 0.601631 2.02727 0.663665Z" fill="var(--fill-0, white)"/>
</g>
<defs>
<clipPath id="clip0_0_24">
<rect width="8" height="8" fill="white"/>
</clipPath>
</defs>
</svg>
