<svg preserveAspectRatio="none" width="100%" height="100%" overflow="visible" style="display: block;" viewBox="0 0 2 6" fill="none" xmlns="http://www.w3.org/2000/svg">
<g id="` 1" clip-path="url(#clip0_0_30)">
<path id="Vector" d="M0.974 0.17C0.743 0.17 0.545 0.247 0.391 0.412C0.237 0.566 0.16 0.764 0.16 0.995C0.16 1.215 0.237 1.413 0.391 1.567C0.545 1.721 0.743 1.809 0.974 1.809C1.194 1.809 1.392 1.721 1.557 1.567C1.711 1.413 1.799 1.215 1.799 0.995C1.799 0.764 1.711 0.566 1.557 0.412C1.392 0.247 1.194 0.17 0.974 0.17ZM0.974 4.196C0.743 4.196 0.545 4.273 0.391 4.438C0.237 4.592 0.16 4.79 0.16 5.021C0.16 5.241 0.237 5.439 0.391 5.593C0.545 5.747 0.743 5.835 0.974 5.835C1.194 5.835 1.392 5.747 1.557 5.593C1.711 5.439 1.799 5.241 1.799 5.021C1.799 4.79 1.711 4.592 1.557 4.438C1.392 4.273 1.194 4.196 0.974 4.196Z" fill="var(--fill-0, white)"/>
</g>
<defs>
<clipPath id="clip0_0_30">
<rect width="2" height="6" fill="white"/>
</clipPath>
</defs>
</svg>
