<svg xmlns="http://www.w3.org/2000/svg" version="1.1" xmlns:xlink="http://www.w3.org/1999/xlink" fill="none" width="48" height="48" viewBox="0 0 48 48"><defs><mask id="mask_1719:4610" mask-type="alpha"><path d="M0 1.119C0 0.50099999 0.50099999 0 1.119 0L45.901001 0C46.519001 0 47.02 0.50099999 47.02 1.119L47.02 45.901001C47.02 46.519001 46.519001 47.02 45.901001 47.02L1.119 47.02C0.50099999 47.02 0 46.519001 0 45.901001L0 1.119Z" transform="translate(0.49, 0.49)" fill="#ffffff"></path></mask></defs><g mask="url(#mask_1719:4610)" opacity="0.5"></g><path d="M33.341999 1.887C30.368999 0.62900001 27.254999 0 24 0C20.745001 0 17.631001 0.62900001 14.658 1.887C11.786 3.1010001 9.243 4.8150001 7.0289998 7.0289998C4.8150001 9.243 3.1010001 11.786 1.887 14.658C0.62900001 17.631001 0 20.745001 0 24C0 27.254999 0.62900001 30.368999 1.887 33.341999C3.1010001 36.214001 4.8150001 38.757 7.0289998 40.971001C9.243 43.185001 11.786 44.898998 14.658 46.112999C17.631001 47.370998 20.745001 48 24 48C27.254999 48 30.368999 47.370998 33.341999 46.112999C36.214001 44.898998 38.757 43.185001 40.971001 40.971001C43.185001 38.757 44.898998 36.214001 46.112999 33.341999C47.370998 30.368999 48 27.254999 48 24C48 20.745001 47.370998 17.631001 46.112999 14.658C44.898998 11.786 43.185001 9.243 40.971001 7.0289998C38.757 4.8150001 36.214001 3.1010001 33.341999 1.887ZM15.802 4.5929999C18.41 3.49 21.143 2.9389999 24 2.9389999C26.857 2.9389999 29.59 3.49 32.198002 4.5929999C34.716999 5.6589999 36.949001 7.164 38.893002 9.1070004C40.835999 11.051 42.341 13.283 43.407001 15.802C44.509998 18.41 45.061001 21.143 45.061001 24C45.061001 26.857 44.509998 29.59 43.407001 32.198002C42.341 34.716999 40.835999 36.949001 38.893002 38.893002C36.949001 40.835999 34.716999 42.341 32.198002 43.407001C29.59 44.509998 26.857 45.061001 24 45.061001C21.143 45.061001 18.41 44.509998 15.802 43.407001C13.283 42.341 11.051 40.835999 9.1070004 38.893002C7.164 36.949001 5.6589999 34.716999 4.5929999 32.198002C3.49 29.59 2.9389999 26.857 2.9389999 24C2.9389999 21.143 3.49 18.41 4.5929999 15.802C5.6589999 13.283 7.164 11.051 9.1070004 9.1070004C11.051 7.164 13.283 5.6589999 15.802 4.5929999Z" fill-rule="evenodd" fill="#171a26"></path><path d="M0 3.3800001C0 1.513 1.513 0 3.3800001 0C5.2459998 0 6.7589998 1.513 6.7589998 3.3800001C6.7589998 5.2459998 5.2459998 6.7589998 3.3800001 6.7589998C1.513 6.7589998 0 5.2459998 0 3.3800001Z" transform="translate(13.861, 15.121)" fill="#171a26"></path><path d="M0 3.3800001C0 1.513 1.513 0 3.3800001 0C5.2459998 0 6.7589998 1.513 6.7589998 3.3800001C6.7589998 5.2459998 5.2459998 6.7589998 3.3800001 6.7589998C1.513 6.7589998 0 5.2459998 0 3.3800001Z" transform="translate(27.38, 15.121)" fill="#171a26"></path><path d="M8.4490004 8.4490004C13.115 8.4490004 16.898001 4.6659999 16.898001 0L0 0C0 4.6659999 3.783 8.4490004 8.4490004 8.4490004Z" fill-rule="evenodd" transform="translate(15.551, 26.389)" fill="#171a26"></path><path d="M8.4490004 8.4490004C13.115 8.4490004 16.898001 4.6659999 16.898001 0L0 0C0 4.6659999 3.783 8.4490004 8.4490004 8.4490004Z" fill-rule="evenodd" transform="translate(15.551, 26.389)" fill="#3d414d"></path></svg>