<svg xmlns="http://www.w3.org/2000/svg" viewBox="0 0 50 50" fill="none">
  <path
    d="M20.181 0C17.765 0 15.518 1.211 14.04 3.208C12.562 1.21 10.316 0 7.899 0C3.543 0 0 3.871 0 8.629C0 11.467 1.269 13.458 2.289 15.058C5.254 19.705 11.969 24.496 12.285 24.74C12.636 25.011 13.299 25.362 14.039 25.362C14.748 25.362 15.416 24.994 15.795 24.74C17.111 23.856 22.825 19.705 25.79 15.058C26.81 13.458 28.08 11.467 28.08 8.629C28.08 3.871 24.536 0 20.181 0Z"
    transform="translate(11.076 13.935)"
    fill="currentColor"
  />
  <path
    d="M14.4786 5.02859C14.7064 4.6845 14.4316 4.11715 13.8231 3.48495C13.3149 3.40967 12.6645 3.45659 11.8461 3.70304C8.33616 5.47042 3.94871 10.3307 3.07122 11.2144C2.63247 7.2378 1.31624 5.0286 0 3.3535C1.53561 1.49776 2.93809 0.533414 4.38745 0.168459C7.63604 -0.649412 12.0873 1.68161 13.8231 3.48495C16.0394 3.81328 15.5493 6.46616 14.4786 5.02859Z"
    transform="translate(25.184 13.763)"
    fill="currentColor"
    fill-opacity="0.35"
  />
</svg>
